<svg xmlns="http://www.w3.org/2000/svg" xmlns:xlink="http://www.w3.org/1999/xlink" width="106" zoomAndPan="magnify" viewBox="0 0 79.5 79.499996" height="106" preserveAspectRatio="xMidYMid meet" version="1.2"><defs><clipPath id="0c41f8d3dd"><path d="M 0 0 L 78.792969 0 L 78.792969 78.792969 L 0 78.792969 Z M 0 0 "/></clipPath><clipPath id="72cc1f667a"><path d="M 39.398438 0 C 17.636719 0 0 17.636719 0 39.398438 C 0 61.15625 17.636719 78.792969 39.398438 78.792969 C 61.15625 78.792969 78.792969 61.15625 78.792969 39.398438 C 78.792969 17.636719 61.15625 0 39.398438 0 Z M 39.398438 0 "/></clipPath><clipPath id="9d9901088c"><path d="M 53.339844 29.269531 L 65.925781 29.269531 L 65.925781 39.757812 L 53.339844 39.757812 Z M 53.339844 29.269531 "/></clipPath><clipPath id="d3f0df3abe"><path d="M 12.742188 20.210938 L 56.789062 20.210938 L 56.789062 42.238281 L 12.742188 42.238281 Z M 12.742188 20.210938 "/></clipPath><clipPath id="a178170f92"><path d="M 17 41 L 55 41 L 55 57 L 17 57 Z M 17 41 "/></clipPath><clipPath id="f4c757c5b0"><path d="M 20.554688 61.253906 L 16.402344 48.265625 L 52.863281 36.609375 L 57.015625 49.59375 Z M 20.554688 61.253906 "/></clipPath><clipPath id="a19d167bbd"><path d="M 16.351562 48.117188 L 20.503906 61.105469 L 56.96875 49.445312 L 52.816406 36.460938 Z M 16.351562 48.117188 "/></clipPath><clipPath id="2667395dfc"><path d="M 36 54 L 37 54 L 37 55 L 36 55 Z M 36 54 "/></clipPath><clipPath id="2e25ef635e"><path d="M 20.554688 61.253906 L 16.402344 48.265625 L 52.863281 36.609375 L 57.015625 49.59375 Z M 20.554688 61.253906 "/></clipPath><clipPath id="89e3de2fc3"><path d="M 16.351562 48.117188 L 20.503906 61.105469 L 56.96875 49.445312 L 52.816406 36.460938 Z M 16.351562 48.117188 "/></clipPath></defs><g id="a27953824a"><g clip-rule="nonzero" clip-path="url(#0c41f8d3dd)"><g clip-rule="nonzero" clip-path="url(#72cc1f667a)"><path style=" stroke:none;fill-rule:nonzero;fill:#f5f5f4;fill-opacity:1;" d="M 0 0 L 78.792969 0 L 78.792969 78.792969 L 0 78.792969 Z M 0 0 "/></g></g><g clip-rule="nonzero" clip-path="url(#9d9901088c)"><path style=" stroke:none;fill-rule:nonzero;fill:#6dc17b;fill-opacity:1;" d="M 59.390625 29.332031 C 59.027344 29.5 58.390625 30.222656 58.117188 30.773438 C 58.003906 30.992188 57.949219 31.226562 57.910156 31.582031 C 57.859375 32.101562 57.800781 32.277344 57.609375 32.480469 C 57.417969 32.6875 57.140625 32.769531 56.882812 32.695312 C 56.738281 32.65625 56.5625 32.480469 56.480469 32.304688 C 56.355469 32.019531 56.351562 31.738281 56.464844 31.5 C 56.554688 31.320312 56.671875 31.226562 56.894531 31.164062 C 57.316406 31.039062 57.4375 30.703125 57.15625 30.425781 C 56.90625 30.171875 56.527344 30.308594 56.445312 30.679688 C 56.410156 30.851562 56.351562 30.953125 56.25 31.015625 C 55.957031 31.195312 55.683594 30.828125 55.738281 30.320312 C 55.769531 30.003906 55.765625 29.941406 55.683594 29.84375 C 55.484375 29.59375 55.105469 29.617188 54.964844 29.886719 C 54.859375 30.089844 54.898438 30.234375 55.136719 30.492188 C 55.371094 30.746094 55.496094 31.0625 55.433594 31.25 C 55.402344 31.347656 55.351562 31.378906 55.210938 31.378906 C 55.085938 31.378906 55.023438 31.328125 54.859375 31.101562 C 54.816406 31.035156 54.738281 30.960938 54.691406 30.933594 C 54.589844 30.875 54.398438 30.871094 54.292969 30.929688 C 54.023438 31.070312 53.992188 31.488281 54.234375 31.664062 C 54.3125 31.71875 54.511719 31.761719 54.683594 31.761719 C 54.742188 31.761719 54.847656 31.785156 54.925781 31.8125 C 55.140625 31.894531 55.308594 32.082031 55.589844 32.554688 C 56.082031 33.375 56.285156 33.589844 56.710938 33.730469 C 56.851562 33.78125 56.894531 33.785156 57.210938 33.769531 L 57.558594 33.753906 L 57.535156 33.941406 C 57.523438 34.042969 57.515625 34.304688 57.515625 34.523438 C 57.523438 34.875 57.53125 34.945312 57.585938 35.148438 C 57.671875 35.457031 57.679688 35.5 57.65625 35.515625 C 57.640625 35.527344 57.550781 35.480469 57.453125 35.421875 C 56.992188 35.132812 56.285156 34.808594 55.921875 34.714844 C 55.703125 34.660156 55.441406 34.652344 55.273438 34.707031 C 55.117188 34.753906 54.953125 34.894531 54.867188 35.066406 C 54.785156 35.21875 54.78125 35.472656 54.859375 35.6875 C 55.050781 36.226562 55.652344 37.058594 56.476562 37.929688 C 56.628906 38.089844 56.761719 38.242188 56.769531 38.269531 C 56.78125 38.304688 56.773438 38.339844 56.742188 38.371094 C 56.660156 38.464844 56.6875 38.476562 55.339844 37.746094 C 54.652344 37.375 54.558594 37.308594 54.460938 37.105469 C 54.382812 36.953125 54.320312 36.886719 54.207031 36.828125 C 54.097656 36.773438 53.976562 36.769531 53.859375 36.816406 C 53.742188 36.867188 53.6875 36.917969 53.632812 37.027344 C 53.539062 37.210938 53.609375 37.453125 53.792969 37.582031 C 53.882812 37.644531 53.925781 37.652344 54.144531 37.671875 C 54.40625 37.691406 54.445312 37.703125 54.617188 37.824219 C 54.78125 37.941406 54.835938 38.089844 54.746094 38.199219 C 54.675781 38.285156 54.546875 38.285156 54.199219 38.199219 C 53.816406 38.101562 53.65625 38.109375 53.519531 38.214844 C 53.40625 38.308594 53.347656 38.425781 53.347656 38.566406 C 53.347656 38.828125 53.558594 39.035156 53.796875 39.007812 C 53.898438 39 53.960938 38.964844 54.1875 38.796875 L 54.289062 38.714844 L 54.640625 38.71875 C 54.929688 38.71875 55.042969 38.730469 55.273438 38.78125 C 55.644531 38.867188 56.058594 39.007812 56.5 39.199219 C 57.28125 39.539062 57.367188 39.574219 57.523438 39.617188 C 57.714844 39.675781 57.816406 39.675781 57.972656 39.628906 C 58.214844 39.554688 58.367188 39.351562 58.367188 39.105469 C 58.367188 38.890625 58.265625 38.695312 57.765625 37.933594 C 57.414062 37.394531 57.324219 37.238281 57.355469 37.207031 C 57.375 37.1875 57.402344 37.195312 57.460938 37.238281 C 57.964844 37.617188 58.679688 38.007812 59.125 38.15625 C 59.339844 38.226562 59.390625 38.234375 59.628906 38.234375 C 59.921875 38.230469 60.15625 38.171875 60.519531 38.015625 C 60.855469 37.871094 61.527344 37.464844 61.761719 37.269531 C 61.839844 37.207031 61.898438 37.199219 61.898438 37.25 C 61.898438 37.289062 61.726562 37.574219 61.273438 38.269531 C 60.9375 38.796875 60.890625 38.890625 60.890625 39.070312 C 60.890625 39.238281 60.9375 39.359375 61.042969 39.46875 C 61.171875 39.605469 61.285156 39.648438 61.492188 39.648438 C 61.703125 39.648438 61.890625 39.589844 62.359375 39.375 C 63.371094 38.910156 64.074219 38.703125 64.644531 38.703125 C 64.90625 38.703125 64.960938 38.722656 65.144531 38.875 C 65.273438 38.980469 65.351562 39.015625 65.46875 39.015625 C 65.652344 39.015625 65.863281 38.828125 65.902344 38.640625 C 65.921875 38.527344 65.878906 38.382812 65.785156 38.277344 C 65.632812 38.105469 65.472656 38.089844 65.035156 38.199219 C 64.707031 38.28125 64.640625 38.285156 64.542969 38.234375 C 64.402344 38.164062 64.417969 38.007812 64.582031 37.867188 C 64.710938 37.75 64.847656 37.703125 65.128906 37.667969 C 65.390625 37.640625 65.515625 37.578125 65.589844 37.441406 C 65.765625 37.136719 65.527344 36.757812 65.171875 36.785156 C 65.011719 36.800781 64.902344 36.886719 64.800781 37.070312 C 64.671875 37.308594 64.585938 37.371094 63.894531 37.761719 C 63.386719 38.042969 62.652344 38.414062 62.605469 38.414062 C 62.539062 38.414062 62.5 38.371094 62.5 38.289062 C 62.5 38.238281 62.558594 38.160156 62.796875 37.914062 C 62.957031 37.746094 63.140625 37.542969 63.207031 37.464844 C 63.273438 37.386719 63.363281 37.277344 63.414062 37.226562 C 63.6875 36.917969 64.078125 36.34375 64.261719 35.988281 C 64.492188 35.539062 64.515625 35.25 64.34375 34.988281 C 64.253906 34.855469 64.082031 34.730469 63.933594 34.691406 C 63.757812 34.640625 63.382812 34.675781 63.132812 34.757812 C 62.859375 34.851562 62.148438 35.195312 61.867188 35.375 C 61.75 35.449219 61.636719 35.507812 61.617188 35.507812 C 61.578125 35.507812 61.574219 35.511719 61.671875 35.160156 C 61.730469 34.945312 61.738281 34.878906 61.742188 34.523438 C 61.742188 34.304688 61.734375 34.046875 61.722656 33.945312 L 61.703125 33.761719 L 62.070312 33.765625 C 62.371094 33.765625 62.464844 33.761719 62.570312 33.722656 C 62.976562 33.585938 63.230469 33.316406 63.640625 32.589844 C 63.8125 32.285156 63.894531 32.167969 64.023438 32.03125 C 64.179688 31.878906 64.210938 31.859375 64.359375 31.8125 C 64.453125 31.785156 64.609375 31.757812 64.710938 31.75 C 65.039062 31.722656 65.199219 31.570312 65.183594 31.300781 C 65.167969 31.0625 64.984375 30.890625 64.746094 30.890625 C 64.550781 30.890625 64.445312 30.964844 64.316406 31.191406 C 64.28125 31.253906 64.21875 31.320312 64.179688 31.339844 C 64.09375 31.386719 63.941406 31.386719 63.875 31.339844 C 63.710938 31.226562 63.84375 30.792969 64.136719 30.476562 C 64.210938 30.398438 64.289062 30.296875 64.3125 30.253906 C 64.390625 30.097656 64.34375 29.90625 64.195312 29.773438 C 64.089844 29.679688 64.027344 29.660156 63.855469 29.675781 C 63.714844 29.6875 63.632812 29.734375 63.546875 29.847656 C 63.492188 29.917969 63.492188 29.933594 63.511719 30.417969 C 63.523438 30.789062 63.394531 31.035156 63.164062 31.058594 C 63.070312 31.070312 63.050781 31.0625 62.976562 30.984375 C 62.914062 30.925781 62.871094 30.84375 62.824219 30.707031 C 62.75 30.480469 62.695312 30.402344 62.5625 30.34375 C 62.4375 30.285156 62.320312 30.285156 62.199219 30.34375 C 62.085938 30.394531 62.035156 30.449219 61.984375 30.566406 C 61.871094 30.835938 62.027344 31.085938 62.355469 31.160156 C 62.519531 31.199219 62.585938 31.234375 62.6875 31.332031 C 62.847656 31.488281 62.902344 31.703125 62.859375 31.984375 C 62.808594 32.324219 62.609375 32.609375 62.375 32.6875 C 62.058594 32.792969 61.703125 32.652344 61.523438 32.34375 C 61.414062 32.160156 61.375 32 61.347656 31.632812 C 61.308594 31.109375 61.222656 30.867188 60.929688 30.429688 C 60.628906 29.972656 60.175781 29.503906 59.914062 29.371094 C 59.738281 29.28125 59.527344 29.265625 59.390625 29.332031 Z M 59.390625 29.332031 "/></g><g clip-rule="nonzero" clip-path="url(#d3f0df3abe)"><path style=" stroke:none;fill-rule:nonzero;fill:#6dc17b;fill-opacity:1;" d="M 53.035156 20.277344 C 48.636719 20.484375 50.03125 25.574219 46.089844 25.957031 C 46.101562 25.65625 46.105469 25.351562 46.105469 25.042969 C 46.105469 24.800781 45.910156 24.601562 45.667969 24.597656 C 44.160156 24.566406 41.90625 24.203125 39.519531 23.824219 C 36.710938 23.378906 33.808594 22.914062 31.699219 22.914062 C 31.097656 22.914062 30.597656 22.949219 30.167969 23.027344 C 26.148438 23.746094 23.066406 27.574219 20.085938 31.277344 C 17.695312 34.246094 15.4375 37.050781 13.113281 37.542969 C 12.898438 37.589844 12.75 37.785156 12.757812 38.003906 C 12.765625 38.21875 12.929688 38.402344 13.148438 38.429688 C 14.003906 38.546875 14.808594 38.660156 15.566406 38.765625 L 13.207031 42.226562 L 17.222656 42.226562 L 18.65625 39.222656 C 19.699219 39.378906 20.636719 39.527344 21.492188 39.65625 C 22.238281 39.777344 22.917969 39.882812 23.550781 39.976562 L 22.585938 42.226562 L 26.632812 42.226562 L 26.632812 40.390625 C 27.707031 40.503906 28.683594 40.566406 29.730469 40.566406 C 30.25 40.566406 30.777344 40.550781 31.335938 40.519531 C 32.21875 40.46875 33.226562 40.363281 34.292969 40.15625 L 34.292969 42.226562 L 37.867188 42.226562 L 37.328125 39.292969 C 38.621094 38.796875 39.90625 38.109375 41.082031 37.171875 C 41.535156 36.808594 41.957031 36.414062 42.351562 35.996094 C 44.402344 38.582031 44.308594 42.226562 44.308594 42.226562 L 48.480469 42.226562 C 48.390625 39.074219 45.648438 35.484375 44.078125 33.675781 C 44.730469 32.546875 45.222656 31.289062 45.558594 29.910156 C 48.863281 28.785156 52.085938 25.53125 53.503906 25.042969 C 54.992188 24.535156 56.800781 24.90625 56.800781 23.085938 C 56.800781 20.875 54.351562 20.214844 53.035156 20.277344 Z M 53.035156 20.277344 "/></g><g clip-rule="nonzero" clip-path="url(#a178170f92)"><g clip-rule="nonzero" clip-path="url(#f4c757c5b0)"><g clip-rule="nonzero" clip-path="url(#a19d167bbd)"><path style=" stroke:none;fill-rule:nonzero;fill:#6dc17b;fill-opacity:1;" d="M 32.65625 48.019531 C 32.824219 48.015625 32.988281 48.015625 33.144531 48.082031 C 33.335938 48.171875 33.476562 48.066406 33.609375 47.957031 C 33.714844 47.875 33.820312 47.796875 33.929688 47.726562 C 33.984375 47.691406 34.046875 47.648438 34.023438 47.570312 C 34 47.496094 33.949219 47.453125 33.851562 47.441406 C 33.554688 47.410156 33.273438 47.449219 32.996094 47.554688 C 32.84375 47.613281 32.683594 47.609375 32.527344 47.542969 C 32.324219 47.453125 32.238281 47.265625 32.257812 47.046875 C 32.269531 46.917969 32.328125 46.820312 32.386719 46.722656 C 32.53125 46.492188 32.609375 46.25 32.589844 45.972656 C 32.582031 45.847656 32.539062 45.738281 32.511719 45.621094 C 32.484375 45.511719 32.386719 45.5 32.3125 45.582031 C 32.25 45.644531 32.238281 45.726562 32.21875 45.804688 C 32.207031 45.871094 32.175781 45.914062 32.125 45.953125 C 31.964844 46.066406 31.867188 46.203125 31.871094 46.410156 C 31.871094 46.644531 31.777344 46.855469 31.660156 47.050781 C 31.632812 47.097656 31.609375 47.15625 31.542969 47.148438 C 31.472656 47.144531 31.410156 47.105469 31.382812 47.035156 C 31.335938 46.902344 31.230469 46.800781 31.171875 46.667969 C 31.152344 46.625 31.105469 46.601562 31.0625 46.578125 C 30.871094 46.472656 30.652344 46.449219 30.441406 46.402344 C 30.28125 46.363281 30.25 46.425781 30.304688 46.546875 C 30.328125 46.589844 30.320312 46.636719 30.308594 46.683594 C 30.261719 46.910156 30.339844 47.089844 30.546875 47.179688 C 30.699219 47.25 30.832031 47.34375 30.964844 47.445312 C 30.988281 47.460938 31.011719 47.480469 31.007812 47.511719 C 31.003906 47.546875 30.972656 47.5625 30.941406 47.5625 C 30.851562 47.574219 30.765625 47.585938 30.671875 47.566406 C 30.472656 47.53125 30.269531 47.523438 30.066406 47.570312 C 30.019531 47.582031 29.980469 47.605469 29.945312 47.640625 C 29.832031 47.746094 29.839844 47.8125 29.96875 47.898438 C 29.996094 47.914062 30.023438 47.925781 30.046875 47.945312 C 30.1875 48.0625 30.332031 48.085938 30.496094 47.984375 C 30.535156 47.960938 30.585938 47.957031 30.628906 47.945312 C 30.664062 47.941406 30.710938 47.917969 30.734375 47.957031 C 30.757812 48 30.730469 48.042969 30.703125 48.074219 C 30.632812 48.152344 30.554688 48.226562 30.46875 48.285156 C 30.273438 48.425781 30.078125 48.570312 29.886719 48.714844 C 29.769531 48.804688 29.679688 48.921875 29.613281 49.054688 C 29.476562 49.320312 29.496094 49.539062 29.703125 49.753906 C 30 50.0625 30.28125 50.382812 30.617188 50.652344 C 30.632812 50.664062 30.648438 50.675781 30.664062 50.6875 C 30.691406 50.714844 30.753906 50.71875 30.75 50.761719 C 30.746094 50.820312 30.679688 50.8125 30.636719 50.832031 C 30.425781 50.929688 30.199219 50.96875 29.964844 50.960938 C 29.835938 50.957031 29.707031 50.914062 29.574219 50.902344 C 29.292969 50.875 29.011719 50.90625 28.734375 50.933594 C 28.417969 50.964844 28.105469 51.023438 27.792969 51.09375 C 27.503906 51.15625 27.210938 51.148438 26.921875 51.132812 C 26.558594 51.109375 26.195312 51.082031 25.832031 51.019531 C 25.535156 50.96875 25.230469 50.953125 24.945312 50.851562 C 24.914062 50.839844 24.871094 50.84375 24.863281 50.800781 C 24.855469 50.757812 24.898438 50.746094 24.925781 50.730469 C 25.132812 50.59375 25.34375 50.464844 25.550781 50.332031 C 25.566406 50.320312 25.578125 50.308594 25.59375 50.300781 C 25.816406 50.113281 25.84375 49.964844 25.570312 49.738281 C 25.394531 49.589844 25.292969 49.410156 25.269531 49.183594 C 25.261719 49.089844 25.285156 49.003906 25.355469 48.933594 C 25.460938 48.820312 25.535156 48.695312 25.542969 48.535156 C 25.546875 48.449219 25.523438 48.386719 25.425781 48.382812 C 25.394531 48.382812 25.363281 48.378906 25.347656 48.347656 C 25.289062 48.253906 25.253906 48.308594 25.230469 48.367188 C 25.167969 48.53125 25.089844 48.683594 25.007812 48.839844 C 24.953125 48.945312 24.902344 49.050781 24.84375 49.152344 C 24.785156 49.265625 24.671875 49.285156 24.574219 49.203125 C 24.511719 49.152344 24.476562 49.082031 24.457031 49.003906 C 24.414062 48.832031 24.320312 48.695312 24.164062 48.605469 C 24.0625 48.546875 23.976562 48.476562 23.898438 48.386719 C 23.878906 48.367188 23.863281 48.34375 23.832031 48.359375 C 23.800781 48.371094 23.792969 48.402344 23.800781 48.429688 C 23.84375 48.597656 23.808594 48.773438 23.84375 48.945312 C 23.875 49.113281 23.941406 49.257812 24.121094 49.328125 C 24.1875 49.355469 24.25 49.402344 24.292969 49.46875 C 24.375 49.597656 24.304688 49.738281 24.15625 49.757812 C 23.871094 49.804688 23.605469 49.886719 23.378906 50.085938 C 23.160156 50.28125 23.15625 50.265625 22.925781 50.082031 C 22.660156 49.871094 22.40625 49.652344 22.214844 49.375 C 22.066406 49.15625 21.910156 48.953125 21.726562 48.765625 C 21.6875 48.726562 21.660156 48.679688 21.628906 48.632812 C 21.472656 48.382812 21.253906 48.230469 20.957031 48.1875 C 20.746094 48.160156 20.535156 48.132812 20.324219 48.085938 C 20.261719 48.074219 20.214844 48.046875 20.183594 47.984375 C 20.0625 47.738281 19.796875 47.640625 19.550781 47.753906 C 19.457031 47.796875 19.375 47.800781 19.277344 47.773438 C 18.9375 47.679688 18.59375 47.636719 18.238281 47.644531 C 17.796875 47.65625 17.53125 47.957031 17.574219 48.398438 C 17.605469 48.765625 17.742188 49.097656 17.914062 49.414062 C 17.945312 49.46875 17.949219 49.519531 17.9375 49.578125 C 17.875 49.847656 18.007812 50.082031 18.269531 50.160156 C 18.363281 50.183594 18.414062 50.234375 18.445312 50.324219 C 18.527344 50.542969 18.640625 50.75 18.761719 50.949219 C 18.859375 51.101562 19.003906 51.191406 19.164062 51.265625 C 19.296875 51.324219 19.425781 51.378906 19.558594 51.4375 C 19.605469 51.457031 19.652344 51.484375 19.6875 51.53125 C 19.933594 51.851562 20.257812 52.046875 20.648438 52.136719 C 20.925781 52.203125 21.203125 52.269531 21.472656 52.363281 C 21.578125 52.402344 21.660156 52.457031 21.6875 52.570312 C 21.691406 52.589844 21.703125 52.609375 21.710938 52.628906 C 21.820312 52.867188 21.792969 53.089844 21.628906 53.292969 C 21.464844 53.496094 21.339844 53.71875 21.253906 53.96875 C 21.238281 54.015625 21.207031 54.046875 21.15625 54.058594 C 20.816406 54.144531 20.480469 54.238281 20.136719 54.292969 C 20.058594 54.304688 20.007812 54.285156 19.96875 54.214844 C 19.894531 54.070312 19.824219 53.921875 19.765625 53.769531 C 19.757812 53.753906 19.753906 53.738281 19.75 53.722656 C 19.730469 53.6875 19.71875 53.640625 19.667969 53.644531 C 19.617188 53.648438 19.605469 53.691406 19.597656 53.730469 C 19.574219 53.816406 19.550781 53.902344 19.527344 53.988281 C 19.519531 54.019531 19.511719 54.0625 19.476562 54.070312 C 19.4375 54.078125 19.429688 54.03125 19.410156 54.003906 C 19.390625 53.976562 19.375 53.941406 19.355469 53.910156 C 19.253906 53.742188 19.078125 53.703125 18.917969 53.8125 C 18.839844 53.863281 18.824219 53.933594 18.882812 54 C 18.972656 54.109375 19.0625 54.222656 19.191406 54.292969 C 19.25 54.324219 19.269531 54.355469 19.210938 54.402344 C 19.195312 54.417969 19.1875 54.433594 19.171875 54.449219 C 19.039062 54.597656 18.992188 54.761719 19.082031 54.945312 C 19.132812 55.058594 19.125 55.144531 19.027344 55.234375 C 18.96875 55.285156 18.933594 55.363281 18.890625 55.433594 C 18.808594 55.5625 18.824219 55.832031 18.914062 55.953125 C 18.949219 56.003906 19 56.007812 19.050781 55.984375 C 19.15625 55.945312 19.234375 55.867188 19.292969 55.777344 C 19.367188 55.667969 19.433594 55.5625 19.507812 55.453125 C 19.527344 55.421875 19.554688 55.382812 19.59375 55.402344 C 19.628906 55.417969 19.605469 55.457031 19.601562 55.484375 C 19.589844 55.601562 19.59375 55.71875 19.609375 55.832031 C 19.628906 55.964844 19.691406 56.054688 19.824219 56.097656 C 19.898438 56.121094 19.96875 56.164062 20.039062 56.195312 C 20.101562 56.226562 20.136719 56.203125 20.140625 56.136719 C 20.148438 56.054688 20.128906 55.980469 20.101562 55.90625 C 20.046875 55.753906 19.996094 55.601562 19.964844 55.4375 C 19.957031 55.386719 19.957031 55.335938 19.964844 55.285156 C 19.984375 55.105469 20.101562 55.027344 20.273438 55.085938 C 20.570312 55.1875 20.871094 55.292969 21.175781 55.375 C 21.476562 55.457031 21.777344 55.476562 22.070312 55.335938 C 22.335938 55.203125 22.5 54.980469 22.585938 54.699219 C 22.636719 54.523438 22.679688 54.34375 22.753906 54.175781 C 22.890625 53.859375 23.136719 53.71875 23.472656 53.785156 C 23.796875 53.851562 24.117188 53.933594 24.441406 53.980469 C 24.671875 54.015625 24.90625 54.046875 25.121094 54.144531 C 25.214844 54.1875 25.308594 54.226562 25.394531 54.277344 C 25.824219 54.527344 26.296875 54.652344 26.769531 54.765625 C 27.179688 54.863281 27.597656 54.917969 28.019531 54.945312 C 28.285156 54.964844 28.554688 54.964844 28.820312 54.953125 C 29.273438 54.9375 29.722656 54.878906 30.164062 54.765625 C 30.511719 54.675781 30.84375 54.554688 31.171875 54.414062 C 31.449219 54.292969 31.703125 54.125 31.964844 53.972656 C 32.253906 53.8125 32.519531 53.613281 32.839844 53.503906 C 32.96875 53.460938 33.085938 53.386719 33.222656 53.359375 C 33.296875 53.347656 33.347656 53.367188 33.402344 53.410156 C 33.78125 53.703125 34.179688 53.96875 34.601562 54.191406 C 35.039062 54.421875 35.503906 54.582031 36.003906 54.59375 C 36.183594 54.597656 36.367188 54.535156 36.519531 54.425781 C 36.59375 54.371094 36.6875 54.359375 36.75 54.285156 C 36.742188 54.285156 36.738281 54.289062 36.734375 54.292969 C 36.738281 54.289062 36.742188 54.285156 36.746094 54.285156 C 36.910156 54.226562 37.046875 54.117188 37.195312 54.027344 C 37.34375 53.9375 37.507812 53.878906 37.710938 53.839844 C 37.625 53.953125 37.558594 54.035156 37.496094 54.121094 C 37.464844 54.164062 37.4375 54.214844 37.414062 54.261719 C 37.347656 54.394531 37.386719 54.507812 37.53125 54.609375 C 37.625 54.671875 37.753906 54.65625 37.851562 54.574219 C 38.023438 54.417969 38.15625 54.230469 38.277344 54.035156 C 38.289062 54.015625 38.296875 53.980469 38.324219 53.988281 C 38.355469 53.992188 38.34375 54.027344 38.355469 54.046875 C 38.429688 54.242188 38.390625 54.449219 38.398438 54.648438 C 38.402344 54.796875 38.460938 54.925781 38.519531 55.058594 C 38.535156 55.097656 38.566406 55.113281 38.605469 55.113281 C 38.691406 55.109375 38.765625 55.132812 38.839844 55.175781 C 38.890625 55.203125 38.945312 55.210938 38.992188 55.175781 C 39.039062 55.140625 39.039062 55.089844 39.035156 55.035156 C 39.015625 54.785156 38.945312 54.539062 38.964844 54.289062 C 38.972656 54.148438 38.992188 54.007812 39.042969 53.875 C 39.105469 53.722656 39.203125 53.6875 39.34375 53.769531 C 39.546875 53.890625 39.742188 54.019531 39.949219 54.125 C 40.160156 54.226562 40.371094 54.351562 40.625 54.257812 C 40.675781 54.238281 40.730469 54.25 40.78125 54.277344 C 40.816406 54.300781 40.855469 54.289062 40.878906 54.257812 C 40.902344 54.226562 40.910156 54.1875 40.882812 54.160156 C 40.738281 54.023438 40.65625 53.839844 40.542969 53.679688 C 40.441406 53.535156 40.292969 53.464844 40.132812 53.421875 C 40.039062 53.394531 39.953125 53.359375 39.867188 53.324219 C 39.726562 53.265625 39.582031 53.214844 39.457031 53.128906 C 39.371094 53.074219 39.304688 53 39.257812 52.914062 C 39.222656 52.855469 39.230469 52.785156 39.285156 52.726562 C 39.355469 52.65625 39.4375 52.621094 39.535156 52.652344 C 39.671875 52.699219 39.816406 52.726562 39.945312 52.644531 C 40.039062 52.589844 40.152344 52.566406 40.21875 52.464844 C 40.253906 52.40625 40.332031 52.433594 40.390625 52.4375 C 40.445312 52.445312 40.503906 52.4375 40.5625 52.445312 C 40.613281 52.449219 40.660156 52.429688 40.683594 52.375 C 40.707031 52.320312 40.6875 52.28125 40.644531 52.242188 C 40.453125 52.082031 40.25 52.011719 39.996094 52.070312 C 39.769531 52.121094 39.535156 52.140625 39.308594 52.191406 C 38.925781 52.273438 38.542969 52.207031 38.160156 52.242188 C 37.777344 52.28125 37.421875 52.398438 37.09375 52.601562 C 36.835938 52.761719 36.574219 52.910156 36.292969 53.019531 C 36.207031 53.050781 36.136719 53.027344 36.082031 52.964844 C 35.980469 52.855469 35.882812 52.742188 35.785156 52.632812 C 35.664062 52.492188 35.550781 52.351562 35.40625 52.234375 C 35.300781 52.148438 35.21875 52.03125 35.085938 51.972656 C 35.042969 51.953125 35.03125 51.914062 35.078125 51.878906 C 35.320312 51.691406 35.566406 51.519531 35.84375 51.386719 C 36.085938 51.273438 36.34375 51.253906 36.59375 51.1875 C 36.714844 51.152344 36.835938 51.097656 36.945312 51.039062 C 37.285156 50.855469 37.640625 50.714844 38 50.589844 C 38.261719 50.5 38.53125 50.421875 38.808594 50.394531 C 38.839844 50.390625 38.875 50.382812 38.90625 50.371094 C 39.175781 50.28125 39.457031 50.273438 39.734375 50.238281 C 39.960938 50.207031 40.191406 50.195312 40.417969 50.175781 C 40.605469 50.164062 40.796875 50.160156 40.984375 50.164062 C 41.140625 50.164062 41.300781 50.171875 41.457031 50.160156 C 41.605469 50.148438 41.753906 50.175781 41.902344 50.15625 C 42.070312 50.136719 42.238281 50.160156 42.402344 50.160156 C 42.65625 50.167969 42.910156 50.164062 43.160156 50.171875 C 43.511719 50.179688 43.863281 50.183594 44.214844 50.179688 C 44.597656 50.171875 44.976562 50.171875 45.359375 50.15625 C 45.703125 50.144531 46.042969 50.125 46.382812 50.101562 C 46.621094 50.085938 46.855469 50.054688 47.09375 50.027344 C 47.753906 49.953125 48.40625 49.839844 49.050781 49.667969 C 49.742188 49.480469 50.40625 49.21875 51.015625 48.84375 C 51.402344 48.605469 51.734375 48.289062 52.054688 47.964844 C 52.394531 47.625 52.695312 47.257812 52.96875 46.859375 C 53.324219 46.339844 53.613281 45.78125 53.789062 45.175781 C 53.925781 44.71875 53.976562 44.246094 54.003906 43.769531 C 54.027344 43.300781 54.082031 42.835938 54.195312 42.378906 C 54.230469 42.25 54.222656 42.117188 54.164062 41.992188 C 54.117188 41.890625 54.066406 41.886719 54.003906 41.980469 C 53.84375 42.222656 53.695312 42.476562 53.597656 42.753906 C 53.351562 43.472656 53.085938 44.183594 52.835938 44.902344 C 52.558594 45.710938 52.097656 46.410156 51.472656 46.996094 C 50.957031 47.484375 50.351562 47.835938 49.707031 48.125 C 49.386719 48.269531 49.0625 48.394531 48.726562 48.492188 C 48.261719 48.628906 47.789062 48.707031 47.308594 48.742188 C 46.761719 48.78125 46.214844 48.765625 45.671875 48.734375 C 45.148438 48.703125 44.625 48.640625 44.105469 48.566406 C 43.636719 48.5 43.164062 48.429688 42.695312 48.375 C 42.339844 48.332031 41.988281 48.289062 41.632812 48.277344 C 41.042969 48.253906 40.457031 48.199219 39.867188 48.210938 C 39.566406 48.21875 39.265625 48.214844 38.964844 48.230469 C 38.691406 48.25 38.417969 48.265625 38.144531 48.296875 C 37.925781 48.320312 37.710938 48.347656 37.492188 48.375 C 37.167969 48.417969 36.851562 48.484375 36.53125 48.546875 C 36.058594 48.636719 35.601562 48.765625 35.148438 48.921875 C 34.722656 49.070312 34.3125 49.257812 33.894531 49.433594 C 33.621094 49.546875 33.34375 49.660156 33.070312 49.773438 C 32.941406 49.828125 32.894531 49.78125 32.8125 49.710938 C 32.703125 49.609375 32.554688 49.582031 32.417969 49.53125 C 32.191406 49.445312 31.96875 49.347656 31.746094 49.25 C 31.667969 49.214844 31.671875 49.171875 31.730469 49.117188 C 31.929688 48.945312 32.117188 48.761719 32.289062 48.558594 C 32.34375 48.492188 32.390625 48.417969 32.433594 48.34375 C 32.480469 48.257812 32.558594 48.1875 32.558594 48.074219 C 32.558594 48.035156 32.613281 48.019531 32.65625 48.019531 Z M 32.65625 48.019531 "/></g></g></g><g clip-rule="nonzero" clip-path="url(#2667395dfc)"><g clip-rule="nonzero" clip-path="url(#2e25ef635e)"><g clip-rule="nonzero" clip-path="url(#89e3de2fc3)"><path style=" stroke:none;fill-rule:nonzero;fill:#6dc17b;fill-opacity:1;" d="M 36.734375 54.292969 C 36.738281 54.289062 36.742188 54.285156 36.75 54.285156 L 36.746094 54.285156 C 36.742188 54.285156 36.738281 54.289062 36.734375 54.292969 Z M 36.734375 54.292969 "/></g></g></g></g></svg>