<?xml version="1.0" encoding="UTF-8"?>
<svg id="Layer_1" data-name="Layer 1" xmlns="http://www.w3.org/2000/svg" viewBox="0 0 799 195">
  <defs>
    <style>
      .cls-1 {
        fill: #6dc17b;
        stroke: #fff;
        stroke-linecap: round;
        stroke-linejoin: round;
      }
    </style>
  </defs>
  <g id="Tennessee">
    <path id="Gibson" class="cls-1" d="M112.4,51.5l17.69.9.2-2.4,2.47,3.4,4.28,3.07,1.8,3.44,1.39.27,1.14,1.71,7.17,1.63,2.34,3.3,3.39,2.03-.7,11.65-1.44,19.1-19.27-1.27-2.06-2.04-2.46-1.45-2-.17-2.83-1.43-.19-1.68-3.19.43-2.57-1.34-2.4-.45-.4-2.44-1.2-1.66.54-2.37-.87-5.34-2.83-1.1-1.91-2.68-1.24-1.9,3.63-1.02,1.52-20.19Z"/>
    <path id="Cheatham" class="cls-1" d="M299.16,27.16l8.41,6.31,2.04.95,2.1,2.43,5.74-1.75.57.51.62,1.87-1.6,4.61-2.3,4.85-2.46,3.66-.91,2.77.02,1.79-1.39,9.18-3.75,3.83-.32,5.89-1.17-.38-2.87.17-8.96-.77.9-2.39.08-4.37.69-5.11-.43-1.29,1.93-1.22-.79-1.62-2.6-2.76,2.09-2.28-1.51-2.77,2.34-1.31.35-3.82-2.21-1.03-3.6-.24-1.27-1.37-3.28.76-1.83-.16.59-3.64,1.64-.06,1.19-2.6,3.22-2,.89-1.52,2.39.35.77-2.37,1.84,1.26.1-3.21,2.74-1.15Z"/>
    <path id="Anderson" class="cls-1" d="M544.57,59.7l2.35-.55,2.16-4.1,1.65-1.49,3.87.92,2.66-1.51,5.6,4.82,1-.53-.42-2.97.54-4.15,7.86.99,2.9.06.73,1.05,2.99-.73-.6-1.97,1.72-.34.13-1.49,2.57-3.84.52,2.8,1.58.19-.23.5,3.59,6.26,2.57,2.64-6.63,5.92-1.28,2.17-5.8,5.5,3.33,3.63-2.39,2.27-1.5.6-4.44,2.86-3.87-.87-.57,2.09-1.33.18-.67,3.42-1.3,1.62-1.88.41-1.37,2.09-4.62-9.18-2.1-6.44-3.51-5.2-3.82-1.42-.93-2.64-1.75-.85.69-2.72Z"/>
    <path id="Union" class="cls-1" d="M584.38,46.86l1.67-1.3,1.04-1.92.27-5.47,1.76-2.7-.79-1.12.63-2.43,2.74,1.46,1.26-1.3.09-2.37,1.91-.19,2.12-1.56,2.59,1.65,2.31-.37,3.87,2.55,2.16,3.3,1.01,2.76,2.01-.17.78-1.89,2.21.84,1.01,1.16-1.85,5.53v1.91l-1.19.7-.1,2.61,1.04,1.42-.53,3.4-1.52.92-1.35,4.02-17.44-.15-1.78-1.89-2.57-2.64-3.59-6.26.23-.5Z"/>
    <path id="Bedford" class="cls-1" d="M342.55,114.78l1.45-1.91,7.45.63,2.54,1.06,1.44,3.06,5.03,2.06,2.64-.68-.13,2.42,1.17.69,2.98-.99-.52-1.33,3.94-2.18,2.37.07.83,1.8h1.99s3.19,1.58,3.19,1.58l.27,6.45.02,8.03-.85,10.31-.65.08-2.82.58-.59,1.73-3.26,1.69-3.88,3.28-3.53.14-1.22,3.14-2.02-.22-2.99-2.14-.79-2.39-3.72.64-5.4-1.88-1.47.68-1.74-.22-3.65-7.79-.66-2.37.15-4.03,2.44-20.91v-1.08Z"/>
    <path id="Davidson" class="cls-1" d="M318.02,35.61l1.74-.72,6.24,4.41,3.52-.98-.41-1.11.93-2.29,2.5-1.78,2.2,2.77.83,4.44,2.2,2.32,2.01.69.55,1.73,2.43,1.41.25,3.76,2.66,1.26,1.44-.1,2.09,8.11,1.37,3.22,2.66.87-.42,2.92,1.42,1.3-1.11,3.01-3.35,1.35.28,2.51-4.77,3.35.46,2.78-1.09,1.95-5.77-2.44-2.84-2.14-1.76-.21-4.12-2.68-1.26-.4-12.64-1.95-9.23,7.05-1,.06-1.27-6.4,1.17.38.32-5.89,3.75-3.83,1.39-9.18-.02-1.79.91-2.77,2.46-3.66,2.3-4.85,1.6-4.61-.62-1.87Z"/>
    <path id="Rhea" class="cls-1" d="M501.5,105.8l.99-1.35,2.09-.59,7.72-5.34h1.48s.05,1.3.05,1.3l1.5,1.57,2.4,1.32-1,1.5-.32,2.27,2.82.13,1.15,3.14-1.01,2.07v1.95s-1.77,1.27-1.77,1.27l-.63-1.63-1.58-.76-1.39,2.98.36,3.32-.71,1.95.81,1.6-.4,2.1-2.53,1.43.19,1.54,1.32,1.49-1.98,1.17-3.74-.94-2.16,1.4.21,1.91,1.83,1.85-.8,1.98-2.64.96-.73,3.13-1.83,2.07-2.06-.24-2.17-3.03-1.52.57.53,2.54-3.35,3.46-4.69-3.06-3.16.83-.81-2.94-1.99-.28,1.38-2.01-2.59-1.9,1.01-2.44,2.08-3.13.16-3.38,5.51-5.42,11.97-16.36Z"/>
    <path id="Hamilton" class="cls-1" d="M458.51,175.85l12.96-19.57,1.83-4.01,2.73-5.6,2.51-5.93,1.81,1.12,1.63-1.42,1.99.28.81,2.94,3.16-.83,4.69,3.06-.85.71-.39,2.7,1.42.8,1.34-.97,2.37,2.52-.08,1.2,1.17,4.18,1.67,2.54-3.12,7.74-2.54,4.11-.05,2.93-1.33,1.04.06,2.69,1.27,2.74,1.59,7.44,3.08,2.22-1.44,3.13-27.98.55-10,.3-8.3.04,2.84-1.61,2.08-1.9,1.05-3.01,2.54-.52,1.46-2.81.4-2.08-2-2.03-1.16.02.78-4.71Z"/>
    <path id="Lauderdale" class="cls-1" d="M66.55,83.75l.97-1.99,2.11.55,1.94-.91,1.68.39,1.08-1.32,4.64,1.68,1.3-.84.26-1.75,7.71.4,2.01,3.01,2.63,1.93,1,2.7.23,2.11-1.25,1.5-.44,3.52-4.19-.71-.39,1.55-3.32,4.75.52,4.11-2.06,5.29-1.25-.06-.69,9.89-3.03,1.55-2.68-2.59-4.35-1.76-2.25-1.67-.69-1.44-3.19-.55-2.24.85-2.58-.56-2.14.46-.52-1.04h-1.97s-6.67,3.11-6.67,3.11l-.69,1.59-4.34,1.75-2.05,3.93-1.46,1.33-.25-1.28-2.65-.99-1.34-3.23.68-1.4,3.77-2.13,1.93.21,3.19-1.92.6-2.58-.63-1.33-1.66.19-1.03,1.44-1.78.21-2.55-1.67-1.91-3.4v-3.66s1.92-1.9,1.92-1.9l3.03-1.58,1.07.97,2.89-.6,2.16,1.78,3.59-1.56.24-3.53,1.72-1.85,2.16-.51,2.76.99,2.99-1.92-.02-1.82-6.44-2.95-.48-1.19.73-2.24,2.31-2.22,2.57.66,3.42,3.48,2.87-.93.5-2.3Z"/>
    <path id="Fentress" class="cls-1" d="M482,32.86l1.61-.33,1.22-10.23,2.15-3.15,1.54-.52-.46-1.78.77-1.25,1.94-.06,4.24-1.77,2.99-.81,3.96.3,3.43.91,4.07,2.2,3.14,2.8,4.76-.02,1.57,2.9,2.16,7.16,3.12,4.52-2.45.85-1.33,1.97-2.89.55-.62,3.22-4.26,1.65-.81,2.98-2.43-.18-1.9,1.44-2.11-.64-2.78,7.83-1.52,1.81.37,2.48.98,1.57-.69,1.84-1.76,1.09-.91-.87-2.02.79-1.32-1.33-2.02-.07-.49,1.09-2.6-2.21-1.42,1.99-1.13-.02-2.26,2.36-1.71-.63-1.78-.69,3.34-5.86-2.67-8.17-1.08-4.09.06-11.62Z"/>
    <path id="Williamson" class="cls-1" d="M290.81,83.31l.96-3.46,1.16-6.77,8.96.77,2.87-.17,1.27,6.4,1-.06,9.23-7.05,12.64,1.95,1.26.4,4.12,2.68,1.76.21,2.84,2.14,5.77,2.44-.57,1.62.91,1.16-1.22,3.8.95,1.17v4.05s1.55,1.25,1.55,1.25l-1.07,3.25-.16,3.87-3.11-.61-1.46.51-.1,2.26-3.07,2.09-.24,3.91,1.2.89-.99.52-3.16-.17-2.73.54-1.96-.56-1.47-.17-1.28-1.43-3.09-.56-.77-1.03-2.34-.76-5.41-2.46.89-1.81-3.1-.58-.66,1.27-22.53-9.21,1.39-10.17-.24-2.12Z"/>
    <path id="Blount" class="cls-1" d="M568.9,121.96l3.35-1.98,1.55-2.29-.06-1.94-2.45-2.08-1.17-3.32.39-3.27,1.44-1.84-2.56-1.19,1.14-4.17,2.2.88-.05-2.45.68-1.46,1.62-.15,1.28-1.35,2.21-.81,1.06,2.15,1.64-.29-.03-1.97,1.71-.11,2.04.84v-3.5s1.96-.34,1.96-.34l1.12,1.6,2.69-1.52,5.41,3.5,3.19.3,2.14-2.44,3.19-2.89,6.36,13.99,1.22,3.76,1.08,1.95,1.64.14.85,2.49,1.48-.34.31,13.76-4.08.17-1.49.79-4.46.07-.74,1.35-2.04,1.04-2.1,2.06-5.25.87-1.69,2.38-.91,2.34-4.53,1.49,1.56-1.96-3.02-2.2-1.48.18-1.79-1.86,1.67-1.69-.17-2.18-4.53.98-2.33-.43-1.23.61-1.43-3.86-2.9-.26-4.04-1.64-1.65-1.91Z"/>
    <path id="Maury" class="cls-1" d="M277.94,117.16l1.28.17,1.65-3.19,1.72-1.2,3.11-.35.25-1.64,1.78-1.09,1.93-14.26,22.53,9.21.66-1.27,3.1.58-.89,1.81,5.41,2.46,2.34.76.77,1.03,3.09.56,1.28,1.43,1.47.17-2.77,1.13-1.54,12.94-2.1,6.4-4.3,5-2.7,1.94-2.84,1.36-.57,3.9-2.43-.13-1.1.94-1.73-.74-1.14-1.86-2.69.07-1.16-1.04-2.05-.17-2.47-1.61-4.18,2.08-3.78.37-1.99.42-6.14-1.82,1.23-1.57.66-2.8-.78-1.53.13-2.72-.65-3.09-2.58-.16.29-2.09-2.16-.61-1.27-1.36v-3.78l1.88-1.87-.55-2.78Z"/>
    <path id="Moore" class="cls-1" d="M352.89,152.38l3.72-.64.79,2.39,2.99,2.14,2.02.22,1.22-3.14,3.53-.14,3.88-3.28,3.26-1.69.59-1.73,2.82-.58-2.07,2.83,2.46.25-.81,2.22,1.53,2.08-1.94.99.45.57,1.49,1.08-.97,3.2-2.62,3.15.47,2.03-1.78,1.64.38,3.21-2.46,5.2.16,3.89-2.47-.3-1.47.74-.89-1.48v-4.88l-2-6.39-2.21-1.14-1.93-3.37-2.24-2.02-5-2.05-1.08-.1-1.15-2.73,1.33-2.17Z"/>
    <path id="Tipton" class="cls-1" d="M40.19,124.51l1.46-1.33,2.05-3.93,4.34-1.75.69-1.59,6.67-3.1h1.97s.52,1.03.52,1.03l2.14-.46,2.58.56,2.24-.85,3.19.55.69,1.44,2.25,1.67,4.35,1.76,2.68,2.59,2.07,1.94.78,2.03-.98,16.24-6.14-.42-2.4.74-3.01.22-3.24,2.01-.88-1.41-5.56-.34-.6-1.76-1.93.3-4.23-.62-.26,1.96-2-.48-5.37-.13-16.92-1.36-.53-1.74,4.29-1.96-.28-2.59-1.09-2.29-2.15-2.5-.47-2.44,1.09-3.51,2.98-1.36,1.75.08,2.76,2.19-.1,2.02,2.71,1.41,1.85-.14.04-2.68ZM26.13,140.8l-2.48.28-2.73-2.8-1.62-.55-1.32.72-.11,2.19-2.08,1.46-1.24-1.33,1.13-4.11,3.75-2.14.99-2.73,1.18-1.12,2.66.11.98,1.25-.73,3.63,1.03,2.17-.73.77,1.32,2.2Z"/>
    <path id="Cumberland" class="cls-1" d="M468.9,102.54l1.92-.62.64-1.23,1.69-7.67-.86-1.82,1.69-1.96-2.73-.28-2.14-5.96.11-1.52,1.12-6.97.73-1.63-.32-5.19.97-.58,7.63.64,1.9-3.27,2.88-1.19,1.71.63,2.26-2.36,1.13.02,1.42-1.99,2.6,2.21.49-1.09,2.02.07,1.32,1.33,2.02-.79.91.87,1.76-1.09,3.4,2.15,3.61,5.96,2.51-.55,1.24,3.3,6.63,7.22,3.82,9.75-2.33,1.43-2.03,4.21-4.84,3.94h-1.48s-7.72,5.35-7.72,5.35l-2.09.59-.99,1.35-1.16-.74-9.22,2.62-1.16-2.87-4.03,1.31-1.71-1.05-13.89.6.05-.14-1.78-2.35.3-.64Z"/>
    <path id="Henry" class="cls-1" d="M171.74,19.57l16.94.52,25.34.96.05,2.93-.87,2.22.2,1.4,2.02,2.19,3.98,6.9-8.86-.07-1.49,5.43,1.69,5.8-2.88,4.12-2.07.47-.49,2.25-2.84,3.09-2.25,4.34-1.7,1.32.14-2.91-23.98-1.02-5.23-.38,1.06-16.41,1.24-23.15Z"/>
    <path id="Meigs" class="cls-1" d="M492.63,145.89l3.35-3.46-.53-2.54,1.52-.57,2.17,3.03,2.06.24,1.83-2.07.73-3.13,2.64-.96.8-1.98-1.83-1.85-.21-1.91,2.16-1.4,3.74.94,1.98-1.17-1.32-1.49-.19-1.54,2.53-1.43.4-2.1-.81-1.6.71-1.95-.36-3.32,1.39-2.98,1.58.76.63,1.63,1.78-1.27v-1.95s1-2.07,1-2.07l-1.15-3.14,2.36,1.23.31,1.91,1.75.81.42,1.65,2.47-2.47,2.05,1.4-.38,5.62.78,1.99-4.18,5.67-1.92,1.78-.32,1.81-3.09,4.84-2.3,1.71-2.49,4.66-2.04,1.05-.08,1.63-1.27.62-3.21,7.24-.9,2.66-1.21.14-.97,2.25-3.83,4.41-1.9.35-1.67-2.54-1.17-4.18.08-1.2-2.37-2.52-1.34.97-1.42-.8.39-2.7.85-.71Z"/>
    <path id="Rutherford" class="cls-1" d="M344.65,82.79l1.09-1.95-.46-2.78,4.77-3.35-.28-2.51,3.35-1.35,1.11-3.01,3.99,3.26,4.93,3.43,3.14,1.75,5.28,4.74,3.55,1.41,3.4.57,1.18.94,1.36-1.11,3.35,1.3,3.06.4-.19,2.47,1.24,2.07-1.03.59-.52,3.21-1.32.89-.93,8.67-.73,1.58.33,2.12-.78,2.53-1.15,1.03.06,3.23-1.14-.27-2.52,2.35.54,3.11-.41,2.95-3.19-1.59h-1.99s-.83-1.79-.83-1.79l-2.37-.07-3.94,2.18.52,1.33-2.98.99-1.17-.69.13-2.42-2.64.68-5.03-2.06-1.44-3.06-2.54-1.06-7.45-.63-1.45,1.91-3.2-1.28-1.09-1.49-1.2-.89.24-3.91,3.07-2.09.1-2.26,1.46-.51,3.11.61.16-3.87,1.07-3.25-1.56-1.25v-4.05s-.94-1.17-.94-1.17l1.22-3.8-.91-1.16.57-1.62Z"/>
    <path id="Marshall" class="cls-1" d="M312.6,145.01l.57-3.9,2.84-1.36,2.7-1.94,4.3-5,2.1-6.4,1.54-12.94,2.77-1.13,1.96.56,2.73-.54,3.16.17.99-.52,1.09,1.49,3.2,1.28v1.08s-2.43,20.91-2.43,20.91l-.15,4.03.66,2.37,3.65,7.79,1.74.22-.32,4.3-3.23.66-5.63,2.87-2.42,2.12-2.16,2.65-7.54-1.28v-3.37s-2.44-2.53-2.44-2.53l-.84,1.2-2.07-.19-1.45-1.13v-2.4s-1.62-1.69-1.62-1.69l-.58-2.82.11-2.88-3.23-1.68Z"/>
    <path id="Sullivan" class="cls-1" d="M710.87,6.66l11.63-.6,1.36.09,23.35-1.02h3.33l21.87-.84.94-2.53,8.75-.14-1.92,1.31-2.3.47-.06,1.34-4.73,2.51-.07,1.55-3.06,2.61-1.69,2.8-2.2,2.23-2.69.49-3.48,3.38-1.92-.09-4.2,4.02-3.67,2.92h-1.21s-4.7-1.99-4.7-1.99l-3.25,2.96-1.04-.11-6.38-.51-3.4-3.67h-2.95s-.13-.92-.13-.92l-14.84,3.05-.75-.67-4.44-.88-2.05.85-1.67-2.28,1.74-2.13,4.61-2.96-.23-1.92,1.65-.84-.82-5.59,1.52-.93-.9-1.96Z"/>
    <path id="Coffee" class="cls-1" d="M377.71,145.93l.65-.08.85-10.31-.02-8.03-.27-6.45.41-2.95-.54-3.11,2.52-2.35,1.14.27,5.2,3.73.68,1.06,2.13.09,2.9,1.6,3.29.32,3.51-.61,2.78-1.21,2.47,4.64,2.22,6.36,2.76,2.46,2.04.25.51,1.69.07,1.9-.86,2.03-.33,5.16.44,5.77,1.4,1.42-1.07,3.59-2.21,2.09-.8,4.67-2.75-1.06-.33-1.06-5.11-.76-3.21-3.3-11.26-2.15-4.6,2.8-.66-1.17-1.66.79-1.62-.4-1.05,1.25-.45-.57,1.94-.99-1.53-2.08.81-2.22-2.46-.25,2.07-2.83Z"/>
    <path id="Cocke" class="cls-1" d="M649.06,87.77l1.52-1.66,1.26-11.1,1.71.56v-4.76s1.5-1.51,1.5-1.51l-1.35-2.79,1.76-.38.68-.86-1.65-2.85,2.2-1.13.16-2.58,2.08,2.36,1.84.17-1.16-5.57,1.82-.57-.49,2.45,3.98,3.99,1.75,1.22,1.25-.27,3.99,2.94.32,1.03,8.99,8.54,5.59,6.07v1.66s-1.29.76-1.29.76l1.72,4.91-2.19,1.41.47,3.06-2.61,1.98-1.59,3.98-2.52,1.89-4.11-1.4-3.93-.11-3.74,2.74-3.59.26-2.33,4.04-1.14.53-3.91-.03-1.33,1.36-1.93.22-.52-4.12.49-2.44-1.24-2.68,2.15-2.77-2.91-3.92.4-1.35-1.84-.55-.26-2.73Z"/>
    <path id="Robertson" class="cls-1" d="M299.9,5.97l36.59-.44,11.29-.28,2.36,2.16-3.58,6.87-2.88,4.1-.65,4.54-1.04,2.97-2.14,2.26-1.78,2.97.33,1.58-5.26-1.03-.6,1.47-2.5,1.78-.93,2.29.41,1.11-3.52.98-6.24-4.41-1.74.72-.57-.51-5.74,1.75-2.1-2.43-2.04-.95-8.41-6.31-.74-.75,1.24-8.74-2.27-1.81,1.07-1.96,1.44-7.93Z"/>
    <path id="Dyer" class="cls-1" d="M68.79,52.18l12.95.22.59-2.83,30.07,1.93-1.52,20.19-3.63,1.02,1.24,1.9-1.17,3.3-2.25,3.36-2.51,2.49-1.6.39-1.29,3.02-5.79.43-1-2.7-2.63-1.93-2.01-3.01-7.71-.4-.26,1.75-1.3.84-4.64-1.68-1.08,1.32-1.68-.39-1.94.91-2.11-.55-.97,1.99-.75-2.45-5.73-3.87-.69-3.34,1.52-1.3,1.95-3.67.87-5.46,1.29-1.47,3.56-1.12,3.23-2.18.26-2.59-1.27-2.44-2-1.68Z"/>
    <path id="Knox" class="cls-1" d="M590.31,56.26l1.78,1.89,17.44.15.75,2.5,2.89,2.37.7,2.09,1.87,2.42-2.23-1.54-1.69.9.93,1.77,2.37,2.55.2,1.1-.13,1.01,2.02,6.49-3.88,3.74-3.69,2.67-2.63.64-2.42,2.86-3.19,2.89-2.14,2.44-3.19-.3-5.41-3.5-2.69,1.52-1.12-1.6-1.95.34v3.5s-2.05-.84-2.05-.84l-1.71.11.03,1.97-1.64.29-1.06-2.15-2.21.81-1.28,1.35-1.62.15-.68,1.46.05,2.45-2.2-.88.07-.19-9.2-10.06-.79-1.48,1.37-2.09,1.88-.41,1.3-1.62.67-3.42,1.33-.18.57-2.09,3.87.87,4.44-2.86,1.5-.6,2.39-2.27-3.33-3.63,5.8-5.5,1.28-2.17,6.63-5.92Z"/>
    <path id="Sevier" class="cls-1" d="M615.32,72.46l1.61-.56,4.49,3,7.65,5.58,1.72,2.88,1.89.43,1.2,1.32,3.63-.19,1.74-1.13,2.5.51.2,1.65,3.11-.77,2.86,1.31,1.14,1.28.26,2.73,1.84.55-.4,1.35,2.91,3.92-2.15,2.77,1.24,2.68-.49,2.44.52,4.12,1.93-.22.05,2.15-3.03,2.53-.69,1.92-1.43.37-2.08-1.15-1.51.68-1.36,2.43-2.33,1.61-3.62,1.81-1.25-.17-2.3,2.49-1.24,2.54-1.17.62-6.27-.18-1.46.41-1.88-1.71-2.54,1.23-3.08-.07-.31-13.76-1.48.34-.85-2.49-1.64-.14-1.08-1.95-1.22-3.76-6.36-13.99,2.42-2.86,2.63-.64,3.69-2.67,3.88-3.74-2.02-6.49.13-1.01Z"/>
    <path id="Hawkins" class="cls-1" d="M650.26,31.17l5.24-1.9,2.6-1.68-.65-2.71,3.43-1.6-.5-1.08,5.62-5.89,8.35-5.01,1.89.15.63,1.95,2.07-1.27.98,1.34,5.96-3.61,4.81-2.49,20.18-.71.9,1.96-1.52.93.82,5.59-1.65.84.23,1.92-4.61,2.96-1.74,2.13,1.67,2.28.44.94-2.36,1.55-2.2.75-2.18,2.19-2.59-.19-3.13,2.86-2.32-.68-4.06,2.08-2.74,2.9-1.96-.64-2.71,2.17-2.13,3.24-2.64,2.2-.96-.76-3.71,4.04h-.81s-6.61-8.42-6.61-8.42l-1.34-2.68-1.53.72.23,2.73-1.77.63-3.02,2.94-1.96-.77-1.78-3.35.76-2.93-1.63-5.62Z"/>
    <path id="Scott" class="cls-1" d="M560.19,10.86l-.18,2.81,1.34.26-.23,3.92-.62,1.84-2.42,1.18-3.57-.55-1.29,1.26.24,2.56-1.01,2.51.47,4.32,1.61,1.4-.62,1.71.61,11.71-2.94,1.54-1.24,1.32.39,4.91-1.65,1.49-2.16,4.1-2.35.55-2.54-3.16-.29-1.36-7.51-3.29-1.25.88-.69-4.57-1.74-1.07-1.75.69-8.37-11.27,1.33-1.97,2.45-.85-3.12-4.52-2.16-7.16-1.57-2.9-5-8.86,14.65.23,7.46.27,9.15-.12,16.57.19Z"/>
    <path id="Smith" class="cls-1" d="M389.04,45.83l.97.2,2.29-4.73,1.84-2.19,4.13-3.04,4.88-1.58.34-3.42,13.8,1.6-1.67,14.03,2.08,4.17,1.85-.5,2.16,2,.15,1.91-1.91,1.69.37,2.09-.69,1.49-.39,4.89-3.21,1.37-2.07,2.93-2.7-1.27-2.1.28-1.35-.69-3.42,1.08-1.55,1.36-2.41-.33-1.64.68-2.71-.23-.59-4.33-1.01-1.24-4.46-15.25-.98-2.97Z"/>
    <path id="Giles" class="cls-1" d="M289.87,142.92l3.78-.37,4.18-2.08,2.47,1.61,2.05.17,1.16,1.04,2.69-.07,1.14,1.86,1.73.74,1.1-.94,2.43.13,3.23,1.68-.11,2.88.58,2.82,1.63,1.69v2.4s1.44,1.13,1.44,1.13l2.07.19.84-1.2,2.45,2.53v3.37s-1.01,30.81-1.01,30.81l-36.09-1.24v-5.34s1.12-8.7,1.12-8.7l.87-3.28-1.51-2.39.5-2.87.03-5.36.42-11.36.05-5.19.76-4.66Z"/>
    <path id="Claiborne" class="cls-1" d="M585.16,10.65l18.13.25,8.97-.06,1.35-2.09,4.82.19,13.73-.26,3.67,2.65,3.25,4.25,1.21,2.95,1.66,5.55-.12,2.87-1.33,2.39-2.79-.4-1.99.56-2.33,5.02-1.55-1.14-2.17.86-2.75,2.31-1.43-1.05-3.82-.49-.26,1.17-3.88,2.49-2.02.32-.48-1.2-1.01-1.16-2.21-.84-.78,1.89-2.01.17-1.01-2.76-2.16-3.3-3.87-2.55-2.31.37-2.59-1.65-2.12,1.56-1.91.19-1.52-1.03-6.03-14.82-.34-3.21Z"/>
    <path id="Hickman" class="cls-1" d="M243.44,96.26l1.04-7.59,2.17-1.12,3.52-.6,2.38-1.75.76-1.38,2.24-.35,2.32.62,3.04-3.06-.41-1.98,21.35,3.11,8.96,1.15.24,2.12-1.39,10.17-1.93,14.26-1.78,1.09-.25,1.64-3.11.35-1.72,1.2-1.65,3.19-1.28-.17-1.68-.07-5.72,3.85-3.79,1.05-4.43-1.57-3.84-.27-1.71-2.48-3.31.98-2.94,3.17-2.12.53-4.54-4.16-3.25-2.17.62-4.34,1.95-.84-1.45-1.86,1.71-12.72Z"/>
    <path id="Loudon" class="cls-1" d="M536.33,115.71l1.65-.72v-3.22s.99-1.31.99-1.31h1.47s4.16-4.96,4.16-4.96l2.09.67.84-2.64,2.58.87,1.01-2.55-.28-3.02,3.81-2.61.31-4.23.56-1.4,4.49.87-.67-1.49,2.06-.34,9.2,10.06-.07.19-1.14,4.17,2.56,1.19-1.44,1.84-.39,3.27,1.17,3.32,2.45,2.08.06,1.94-1.55,2.29-3.35,1.98-.41-.86-5.29.21-1.09-2.03-3.36-.83-.21-1.65-2.5-.78-2.88.03-.39,2.04-3.29.85-.83-2.87-4.68.06-2.71.88-2.47,1.66.87,2.75-1.95-.48-2.04-1.91-1.77.94-1.64-1.24.79-1.66,2.06-.02,1.22-1.34Z"/>
    <path id="Crockett" class="cls-1" d="M93.88,87.6l5.79-.43,1.29-3.02,1.6-.39,2.51-2.49,2.25-3.36,1.17-3.3,1.91,2.68,2.83,1.1.87,5.34-.54,2.37,1.2,1.66.4,2.44,2.4.45,2.57,1.34,3.19-.43.19,1.68,2.83,1.43,2,.17,2.46,1.45,2.06,2.04,2.1,1.59-12.23,12.43-3.33-1.26-1.04-1.34-4.35-.88-3.5-3.38-4.39-2.31-6.12-1.08-1.45-2.12-2.01-.04-2.72-2.11-1.4-3.1.44-3.52,1.25-1.5-.23-2.11Z"/>
    <path id="Greene" class="cls-1" d="M661.43,55.1l2.42-.98,2.41-3.69,2.65-2.52h.81s3.71-4.03,3.71-4.03l.96.76,2.64-2.2,2.13-3.24,2.71-2.17,1.96.64,2.74-2.9,4.06-2.08,2.32.68,3.13-2.86,2.59.19,2.18-2.19,2.2-.75,6.44-1.17.22.82-.54,22.79-.09,7.3,5.03,5.52,1.71,1.96-2.2,4.45-2.8-2.84-4.64,2.38-5.95,4.75-2.36.75-.81,1.41-.07,4.05-3.46,2.66-2.51-2.11-2-.35-2.21.94-5.59-6.07-8.99-8.54-.32-1.03-3.99-2.94-1.25.27-1.75-1.22-3.98-3.99.49-2.45Z"/>
    <path id="Shelby" class="cls-1" d="M23.65,141.08l2.48-.28,1.21-.78,16.92,1.36,5.37.13,2,.48.26-1.96,4.23.62,1.93-.3.6,1.76,5.56.34.88,1.41-.88,11.16-.27,8.96-1.5,22.94-19.02-.61-42.76-1.95-.16-.81,1.43-3.96,3-.12,1.17,1.05,4.1.84,2.57-3.09.68-2.48-.51-1.03.51-3.05.94-1.27,2.42-.97,3.18,1.68,2.26-.12,1.56-1.69-.11-2.18-2.96-1.84-1.4-2.21,1.97-.46,2.01-2.93-1.56-3.17-2.1-.88-3.22-.16-1.25-2.16.98-3.01,1.64.37,2.77-.58,1.48-4.92,1.79-2.88-.2-1.25Z"/>
    <path id="Van_Buren" data-name="Van Buren" class="cls-1" d="M438.16,102.53l2.88-1.32,1.68,1.2,1.69-.4,2.06-1.78,1.62.21,1.91-1.1,2.29.11,8.05,2.76,8.93-2.92-1.13,1.43.76,1.82-.3.64,1.78,2.35-.05.14-.94,1.21-.57,3,.51.83-3.66,4.89-5,6-5.85,6.64-2.74,1.07-.58,1.28-3.32-.07-5.7,1.69-3.47-9.61-1.02-10.27,1.14-2.97.07-2.22-1.49-1.93.45-2.68Z"/>
    <path id="White" class="cls-1" d="M430.85,98.45l2.6.37,1.75-2.95-3.17.52-.33-.81,3.25-2.88-1.34-1.5v-2.12s-1.01-3.99-1.01-3.99l-.04-2.54,1.49-1.95.18-2.99.12-1.04,3.08-2.5,1.79.52,2.71-3.64,4.84-.99,13.9,4.01,4.15,2.62.06,3.35,4.34,1.54-.11,1.52,2.14,5.96,2.73.28-1.69,1.96.86,1.82-1.69,7.67-.64,1.23-1.92.62-.76-1.82,1.13-1.43-8.93,2.92-8.05-2.76-2.29-.11-1.91,1.1-1.62-.21-2.06,1.78-1.69.4-1.68-1.2-2.88,1.32-3.58-2.45-2.74-.44-.99-1.19Z"/>
    <path id="DeKalb" class="cls-1" d="M396.08,69.62l2.71.23,1.64-.68,2.41.33,1.55-1.36,3.42-1.08,1.35.69,2.1-.28,2.7,1.27,2.07-2.93,3.21-1.37,1.77,3.22,1.69.92-.56,1.89,2.1,1.17.54-1.08,2.25-.52,3.31,1.94,1.71,3.96,2.18,1.67-.18,2.99-1.49,1.95.04,2.54,1.02,3.99v2.12s1.33,1.5,1.33,1.5l-3.25,2.88.33.81,3.17-.52-1.75,2.95-2.6-.37-6.43-2.11-3.29.8-7.86-.37-1.13.77-2.11-3.72-3.31-3.4-4.43-5.26-2.09-1.38-1.07-4.25-1.99-5.83-.76-1.05-.3-3.03Z"/>
    <path id="Monroe" class="cls-1" d="M537.71,120.94l1.95.48-.87-2.75,2.47-1.66,2.71-.88,4.68-.06.83,2.87,3.29-.85.39-2.04,2.88-.03,2.5.78.21,1.65,3.36.83,1.09,2.03,5.29-.21.41.86,1.65,1.91,4.04,1.64,2.9.26,1.43,3.86,1.23-.61,2.33.43,4.53-.98.17,2.18-1.67,1.69,1.79,1.86,1.48-.18,3.02,2.2-1.56,1.96-1.08,1.7-1.78,1.27-1.99,3,.76,4.55-1.43,2.01-1.37.75.86,1.64-.53,1.76,1.35,1.83-3.11,3.83-4.69,1.98-8.56,1.05-1.22-2.51-1.11-.32-3.34,3.14-2.75,1.9-.15,2.14-3.13-1.39-.61,1.33-2.31-2.9-12.95-5.66,3.84-3.86,3.96-1.37v-7.69s-1.6-.37-1.6-.37l-.98-2.35.15-2.6-6.26-14.12-.49-1.7-1.65.03-.05-2.46.02-1.23-.33-.62Z"/>
    <path id="Johnson" class="cls-1" d="M768.27,14.21l1.69-2.8,3.06-2.61.07-1.55,4.73-2.51.06-1.34,2.3-.47,1.92-1.31,16.4-.46-2.9,3.13.36,1.66-2.65,4.03,1.13,3.51.36,4.18-1.73,1.28-.36,3.96-1.77,1.14.71,3.78,1.73,3.53-2.42,1.24-1.88-.02-2.45-1.85-3.83,1.14-2.15,1.51-2.61,3.02-1.88.89-2.1,4.31-1.68.41-.59-1.36-2.14-1.5-1.73-4.66-1.83-.3-2.47-3.28-1.56-.46,2.32-2.59,2.51-4.12,4.5-5.75-3.29-3.07.17-.71Z"/>
    <path id="Jefferson" class="cls-1" d="M615.74,67.68l.73-.58-1.59-3.84,2.15-.34-.17,1.89,2.17.56.24-2.58-1.04-.61,3.34-2.61,1.91-.57,2.09-2.75,1.66-.33.57,1.82,1.61-1.45.93.99,2.04.18,1.48-.9.82,2.18,7.87-.04,7.32,1.57,3.23,1.9,2.36,3.96-1.76.38,1.35,2.79-1.49,1.51v4.76s-1.72-.56-1.72-.56l-1.26,11.1-1.52,1.66-1.14-1.28-2.86-1.31-3.11.77-.2-1.65-2.5-.51-1.74,1.13-3.63.19-1.2-1.32-1.89-.43-1.72-2.88-7.65-5.58-4.49-3-1.61.56-.2-1.1-2.37-2.55-.93-1.77,1.69-.9,2.23,1.54Z"/>
    <path id="Putnam" class="cls-1" d="M421.71,52.37l1.6-.03,1.81,1.12,1.67-.54,2.06.91,3.33.12,2.92,1.18,4.09-1.88,3.1-.5,2.01-.98-.03-1.83,1.96.2.38-2.36,1.3-.25-.11-2.54h3.25l.64,4.6,1.82.69,1.27,2.16,4.94,1.74,3.56.28v1.93s2.52.95,2.52.95l8.78,4.45,7.77.81,1.78.69-2.88,1.19-1.9,3.27-7.63-.64-.97.58.32,5.19-.73,1.63-1.12,6.97-4.34-1.54-.06-3.35-4.15-2.62-13.9-4.01-4.84.99-2.71,3.64-1.79-.52-3.08,2.5-.12,1.04-2.18-1.67-1.71-3.96-3.31-1.94-2.25.52-.54,1.08-2.1-1.17.56-1.89-1.69-.92-1.77-3.22.39-4.89.69-1.49-.37-2.09,1.91-1.69-.15-1.91Z"/>
    <path id="Wilson" class="cls-1" d="M347.11,51.42l2.13-1.96,1.05-2.82v-2.83s1.71-.5,1.71-.5l.69,3.74,7.53-5.82,1.65-.49,1.4.82.26,2.17,2.28.41.3-2.85.96-1.76,1.43-.76,1.35,1.43.03,1.73,1.43,1.26,2.93.59.19-2.38,1.21-1.46,1.7,2.19-.74,2.38,2.07.26.52-3.56,3.47-.7,1.58,2.56,1.22-.99,3.58,3.75.98,2.97,4.46,15.25,1.01,1.24.59,4.33.3,3.03.76,1.05,1.99,5.83,1.07,4.25-.72-.41-5.59-.03-6.42,1.19-3.06-.4-3.35-1.3-1.36,1.11-1.18-.94-3.4-.57-3.55-1.41-5.28-4.74-3.14-1.75-4.93-3.43-3.99-3.26-1.42-1.3.42-2.92-2.66-.87-1.37-3.22-2.09-8.11Z"/>
    <path id="McMinn" class="cls-1" d="M528.99,118.75l3.27-.02,1.64,1.24,1.77-.94,2.04,1.91.33.62-.02,1.23.05,2.46,1.65-.03.49,1.7,6.26,14.12-.15,2.6.98,2.35,1.59.37v7.69s-3.95,1.37-3.95,1.37l-3.84,3.86-1.88,2.18-14,.02-1.68,2.46-1.67.65-.02-2.01-3.42.31-.91-2.19,2.43-.35-.45-1.42-1.99.47-3.07-2.93-3.94-1.33-1.23-1.61-2.08-1.11.9-2.66,3.21-7.24,1.27-.62.08-1.63,2.04-1.05,2.49-4.66,2.3-1.71,3.09-4.84.32-1.81,1.92-1.78,4.18-5.67Z"/>
    <path id="Sumner" class="cls-1" d="M332.54,33.14l.6-1.47,5.26,1.03-.33-1.58,1.78-2.97,2.14-2.26,1.04-2.97.65-4.54,2.88-4.1,3.58-6.87,5.13-2.12,15.93.49,11.63,1.05-1.82,12.58.78,2.47-1.09,2.21-.82,4.03-2.88-.12-.37,10.64-.99,1.3-1.21,1.46-.19,2.38-2.93-.59-1.43-1.26-.03-1.73-1.35-1.43-1.43.76-.96,1.76-.3,2.85-2.28-.41-.26-2.17-1.4-.82-1.65.49-7.53,5.82-.69-3.74-1.7.5v2.83s-1.06,2.82-1.06,2.82l-2.13,1.96-1.44.1-2.66-1.26-.25-3.76-2.43-1.41-.55-1.73-2.01-.69-2.2-2.32-.83-4.44-2.2-2.77Z"/>
    <path id="Grainger" class="cls-1" d="M609.53,58.3l1.35-4.02,1.52-.92.53-3.4-1.04-1.42.1-2.61,1.19-.7v-1.91l1.85-5.53.48,1.2,2.02-.32,3.88-2.49.26-1.17,3.82.49,1.43,1.05,2.75-2.31,2.17-.86,1.55,1.14,2.33-5.02,1.99-.56,2.79.4,3.15-.83,2.5,1.27,1.98,2.19,2.13-.8,1.63,5.62-.76,2.93,1.78,3.35-2.1,1.58-2.39.92-1.41-1.72-3.22.21-.9,1.93-1.71.06-2.26,1.97-1.07,1.97-.39,2.3-2.12-.68.12,3.14-1.6,1.81-1.48.9-2.04-.18-.93-.99-1.61,1.45-.57-1.82-1.66.33-2.09,2.75-1.91.57-3.34,2.61,1.04.61-.24,2.58-2.17-.56.17-1.89-2.15.34,1.59,3.84-.73.58-1.87-2.42-.7-2.09-2.89-2.37-.75-2.5Z"/>
    <path id="Campbell" class="cls-1" d="M560.19,10.86l24.97-.21.34,3.21,6.03,14.82,1.52,1.03-.09,2.37-1.26,1.3-2.74-1.46-.63,2.43.79,1.12-1.76,2.7-.27,5.47-1.04,1.92-1.67,1.3-1.58-.19-.52-2.8-2.57,3.84-.13,1.49-1.72.34.6,1.97-2.99.73-.73-1.05-2.9-.06-7.86-.99-.54,4.15.42,2.97-1,.53-5.6-4.82-2.66,1.51-3.87-.92-.39-4.91,1.24-1.32,2.94-1.54-.61-11.71.62-1.71-1.61-1.4-.47-4.32,1.01-2.51-.24-2.56,1.29-1.26,3.57.55,2.42-1.18.62-1.84.23-3.92-1.34-.26.18-2.81Z"/>
    <path id="Perry" class="cls-1" d="M220,98.43l.8-2.84,4.82.38-.06.79,5.67,3.21.45-1.88,1.74-.35.63-1.43,9.39-.05-1.71,12.72,1.45,1.86-1.95.84-.62,4.34,3.25,2.17,4.54,4.16.51,5.05-3.18,1.85-.53,4.83-1.89-.02-.64,2.47-1.49-.97-6.47.65-2.23,1.66-2.89.46-.57-1.21-3.81,1.46-2.43-.42-1.87.82-2-.27-3.58,3.03.36,1.08-2.13-.57-1.03-1.91.26-1.66,1.24-1.42,3.52-1.13.91-1.24.51-3.08-2.13-3.68-3.16-6.94-.13-.92,1.65-4.31.17-2.6-.97-1.23-.53-2.67,1.27-2.28,2.97-2.67.97-1.93.92-4.15Z"/>
    <path id="Morgan" class="cls-1" d="M520.43,36.55l8.37,11.27,1.75-.69,1.74,1.07.69,4.57,1.25-.88,7.51,3.29.29,1.36,2.54,3.16-.69,2.72,1.75.85.93,2.64,3.82,1.42,3.51,5.2-1.81.66-1.9,2.2-5.75,4.43-3.78.15-6.11,2.44-.07,1.6-4.02.07-2.01,2.08-2.82.44-.92,1.47-1.72.86-3.82-9.75-6.63-7.22-1.24-3.3-2.51.55-3.61-5.96-3.4-2.15.69-1.84-.98-1.57-.37-2.48,1.52-1.81,2.78-7.83,2.11.64,1.9-1.44,2.43.18.81-2.98,4.26-1.65.62-3.22,2.89-.55Z"/>
    <path id="Benton" class="cls-1" d="M198.51,63.44l1.7-1.32,2.25-4.34,2.84-3.09.49-2.25,2.07-.47,2.88-4.12-1.69-5.8,1.49-5.43,8.86.07.91.8,2.19,4.7.95,5.46-.54,2.38-.23,2.35,1.58,4.4,1.58,2.65-.71,4.34-3.84,5.59-2.45,2.86-1.08,2.01.05,2.96-2,2.53-.1,2.13.71,1.66,3.54,1.14,3.92-.22.51,1.08-.33,2.86-1.14,4.42-2.12,2.8-.8,2.84-3.02-.14-2.28.56-.42-3.71-1.66-.75-3.41.77-8.21-.55-3.64-.17.62-15.42.53-15.58Z"/>
    <path id="Hamblen" class="cls-1" d="M652.91,43.07l1.96.77,3.02-2.94,1.77-.63-.23-2.73,1.53-.72,1.34,2.68,6.61,8.41-2.65,2.52-2.41,3.69-2.42.98-1.82.57,1.16,5.57-1.84-.17-2.08-2.36-.16,2.58-2.2,1.13,1.65,2.85-.68.86-2.36-3.96-3.23-1.9-7.32-1.57-7.87.04-.82-2.18,1.6-1.81-.12-3.14,2.12.68.39-2.3,1.07-1.97,2.26-1.97,1.71-.06.9-1.93,3.22-.21,1.41,1.72,2.39-.92,2.1-1.58Z"/>
    <path id="Humphreys" class="cls-1" d="M222.91,50.03l10.51,1.42,3.34-1.34,3.71.44,2.46.73,3.97,2.1,2.27,1.89,6.98.51,1.72,2.28,1.3,4.59.59,4.93-.5,3.89.35,1.49-.71,3.46,1.6,2.63.41,1.98-3.04,3.06-2.32-.62-2.24.35-.76,1.38-2.38,1.75-3.52.6-2.17,1.12-1.04,7.59-9.39.05-.63,1.43-1.74.35-.45,1.88-5.67-3.21.06-.79-4.82-.38,2.12-2.8,1.14-4.42.33-2.86-.51-1.08-3.92.22-3.54-1.14-.71-1.66.1-2.13,2-2.53-.05-2.96,1.08-2.01,2.45-2.86,3.84-5.59.71-4.34-1.58-2.65-1.58-4.4.23-2.35Z"/>
    <path id="Roane" class="cls-1" d="M513.78,98.51l4.84-3.94,2.03-4.21,2.33-1.43,1.72-.86.92-1.47,2.82-.44,2.01-2.08,4.02-.07.07-1.6,6.11-2.44,3.78-.15,5.75-4.43,1.9-2.2,1.81-.66,2.1,6.44,4.62,9.18.79,1.48-2.06.34.67,1.49-4.49-.87-.56,1.4-.31,4.23-3.81,2.61.28,3.02-1.01,2.55-2.58-.87-.84,2.64-2.09-.67-4.16,4.95h-1.47s-1,1.32-1,1.32v3.22s-1.64.72-1.64.72l-1.22,1.34-2.06.02-.79,1.66-3.27.02-.78-1.99.38-5.62-2.05-1.4-2.47,2.47-.42-1.65-1.75-.81-.31-1.91-2.36-1.23-2.82-.13.32-2.27,1-1.5-2.4-1.32-1.5-1.57-.05-1.31Z"/>
    <path id="Houston" class="cls-1" d="M220.31,37.49l3.21.04,3.12,1.64,4.53,1.19,3.63.19,3.43-.54,2.6-.96,3.78-2.8,11.26.26.45,2.94,6.71.91-1.1,9.44-.63,2.13-3.43,6.13-1.72-2.28-6.98-.51-2.27-1.89-3.97-2.1-2.46-.73-3.71-.44-3.34,1.34-10.51-1.42.54-2.38-.95-5.46-2.19-4.7Z"/>
    <path id="Wayne" class="cls-1" d="M214.04,146.3l1.11.63,2.61-.53.87-2.54-2.94-1.04-.36-1.08,3.58-3.03,2,.27,1.87-.82,2.43.42,3.81-1.46.57,1.21,2.89-.46,2.23-1.66,6.47-.65,1.49.97,2.91,1.25,3.69.07-.11,3.47,3.62.73.89,2.79,2,1.53-.52,14.65-.15,12.44-1.2,1.87v9.56s.9,2.68.9,2.68l-2.52-.15-.61,1.9.51,1.75-5.39-.08-17.47-.55-12.38-.27.33-13.51.64-19.33-2.58-.71-.7-1.72,1.25-3.87-1.79-2.15.05-2.58Z"/>
    <path id="Overton" class="cls-1" d="M447.71,33.56l1.22-5.81,3.9-5.33,4.21-.41,4.98-2.68,3.5.06,1.34-.48,1.42-1.03,1.78,1.93,2.44.9,3.49,2.77,3.23,3.4.33,2.76,1.11,3.25,1.34-.03-.06,11.62,1.08,4.09,2.67,8.17-3.34,5.86-7.77-.81-8.78-4.45-2.51-.95v-1.93s-3.57-.28-3.57-.28l-4.94-1.74-1.27-2.16-1.82-.69-.64-4.6h-3.25l-.24-7.97.15-3.46Z"/>
    <path id="Grundy" class="cls-1" d="M412.94,133.3l5.52,1.2,5.89-1.23,4.65-.52,8.87-.37,3.51,2.92,2.72,1.7-.09,3.32.53,3.38,2.14,2.7,2.03.96-1.42,4.72-3.31,1.83-1.49,2.52-6.89,1.8-2.1-.2-3.47,1.95-1.52-.09,1.49,5.66-4.31,2.73-3.1-.39-4.55-2.65-2.1.13-2.59,2.02-3.77-7.46.8-4.67,2.21-2.09,1.07-3.59-1.4-1.42-.44-5.77.33-5.16.86-2.03-.07-1.9Z"/>
    <path id="Hardeman" class="cls-1" d="M106.72,142.9l.26-4.04,9.59.46,21.95,1.08-.19,4.91,3.91,5.31,1.23,10.35-.83,13.53-.43,15.05-38.3-1.09.77-11.85,2.04-33.71Z"/>
    <path id="Warren" class="cls-1" d="M412.14,97.54l1.13-.77,7.86.37,3.29-.8,6.43,2.11.99,1.19,2.74.44,3.58,2.45-.45,2.68,1.49,1.93-.07,2.22-1.14,2.97,1.02,10.27,3.47,9.61-4.61.17-8.87.37-4.65.52-5.89,1.23-5.52-1.2-.51-1.69-2.04-.25-2.76-2.46-2.22-6.36-2.47-4.64-.57-4.23.59-4.21,6.54-9.97,2.64-1.95Z"/>
    <path id="Franklin" class="cls-1" d="M377.33,154.87l1.05-1.25,1.62.4,1.66-.79.66,1.17,4.6-2.8,11.26,2.15,3.21,3.3,5.11.76.33,1.06,2.75,1.06,3.77,7.46.9.35-.02,26.28-42.34-.35.11-15.4-.16-3.89,2.46-5.2-.38-3.21,1.78-1.64-.47-2.03,2.62-3.15.97-3.2-1.49-1.08Z"/>
    <path id="Macon" class="cls-1" d="M380.7,24.09l1.09-2.21-.78-2.47,1.82-12.58,15.75,1.08,18.29.94h3.97s-.71.95-.71.95l-.96,6.93-.6,6.01-1.28,9.93-13.8-1.6-17.31-2.07-1.98-4.36-3.5-.55Z"/>
    <path id="Stewart" class="cls-1" d="M251.92,5.79l1.2,10.81,2.75,19.91-11.26-.26-3.78,2.8-2.6.96-3.43.54-3.63-.19-4.53-1.19-3.12-1.64-3.21-.04-.91-.8-3.98-6.9-2.02-2.19-.2-1.4.87-2.22-.05-2.93,1.45-1.87.55-3.03-1.01-7.08-2.14-8.57,5.35.24,14.76,1.8-.4,3.45,19.34-.2Z"/>
    <path id="Obion" class="cls-1" d="M95.99,17.1l4.2-.31,16.67.95,13.97.6,12.52.29,1.11,3.67-.41,6.8-2.75-.35-3.67,2.19-2.48-1.63-3.34-.4-1.52,21.09-.2,2.4-17.69-.9-30.07-1.93-.23-.94,3.07-.77,2.3-3.44,2.46-6.03.09-4.26,2.32-2.86,2.01-3.58-.74-2.86.93-2.48,1.89-2.29-.44-2.96Z"/>
    <path id="Sequatchie" class="cls-1" d="M437.87,132.38l4.61-.17,5.7-1.69,3.32.07.58-1.28,2.74-1.07-1.13,2.87,1.54,1.73,1.53,3.91,8.29,8.45,8.25,7.07-1.83,4.01-12.96,19.57-.66-2.07.53-1.74-.31-2.33-1.54-2.75-3.45-4.19-4.42-1.23-.23-.69-5.77-3.17-.17-1.25,1.49-2.52,3.31-1.83,1.42-4.72-2.03-.96-2.14-2.7-.53-3.38.09-3.32-2.72-1.7-3.51-2.92Z"/>
    <path id="Hancock" class="cls-1" d="M690.69,7.37l-4.81,2.49-5.96,3.61-.98-1.34-2.07,1.27-.63-1.95-1.89-.15-8.35,5.01-5.62,5.89.5,1.08-3.43,1.6.65,2.71-2.6,1.68-5.24,1.9-2.13.8-1.98-2.19-2.5-1.27-3.15.83,1.33-2.39.12-2.87-1.66-5.55-1.21-2.95-3.25-4.25-3.67-2.65,17.86-.58,1.4.45,34.02-.97,5.25-.21Z"/>
    <path id="Bradley" class="cls-1" d="M499.28,159.57l1.9-.35,3.83-4.41.97-2.25,1.21-.14,2.08,1.11,1.23,1.61,3.94,1.33,3.07,2.93,1.99-.47.45,1.42-2.43.35.91,2.19,3.42-.31.02,2.01-.87,1.37,1.03,1.12.42,2.1-.14,3.35-4.29,9.69,1.14.51-1.21,2.57-2.43,8.08-18.72.23,1.44-3.13-3.08-2.22-1.59-7.44-1.27-2.74-.06-2.69,1.33-1.04.05-2.93,2.54-4.11,3.12-7.74Z"/>
    <path id="Hardin" class="cls-1" d="M182.72,146.88l.27-4.3,10.25.53.79-.75,2.88,1.87.27,1.44,1.57,1.21,2.28-.85,3.7,1.02,1.75-.71,1.7-1.65,2.47-1.26,3.39,2.87-.05,2.58,1.79,2.15-1.25,3.87.7,1.72,2.58.71-.64,19.33-.33,13.51-20.28-.68.23,1.41-16.79-.39,2.04-33.44.68-10.19Z"/>
    <path id="Lewis" class="cls-1" d="M248.4,122.35l2.12-.53,2.94-3.17,3.31-.98,1.71,2.48,3.84.27,4.43,1.57,3.79-1.05,5.72-3.85,1.68.07.55,2.78-1.88,1.87v3.78l1.27,1.36,2.16.61-.29,2.09,2.58.16.65,3.09-.13,2.72.78,1.53-.66,2.8-1.23,1.57-2.99-.38.12-.99-11.36-.32-.09,4.21-2.74.63-2.9-.04-.69,1.86-5.42-.12-2-1.53-.89-2.79-3.62-.73.11-3.47-3.69-.07-2.91-1.25.64-2.47,1.89.02.53-4.83,3.18-1.85-.51-5.05Z"/>
    <path id="Bledsoe" class="cls-1" d="M454.82,128.24l5.85-6.64,5-6,3.66-4.89-.51-.83.57-3,.94-1.21,13.89-.6,1.71,1.05,4.03-1.31,1.16,2.87,9.22-2.62,1.16.74-11.97,16.36-5.51,5.42-.16,3.38-2.08,3.13-1.01,2.44,2.59,1.9-1.38,2.01-1.63,1.42-1.81-1.12-2.51,5.93-2.73,5.6-8.25-7.07-8.29-8.45-1.53-3.91-1.54-1.73,1.13-2.87Z"/>
    <path id="Henderson" class="cls-1" d="M161.33,100.04l1.68-2.48,1.91-1.45,35.89,1.79-1.57,23.51-5.07,9.01-.72,11.89.58.05-.79.75-10.25-.53-.09-8.37-4.71,1.07-.7-.78-4.31-.88-3.3-1.91-3.53-4.29-1.82-4.36-2.68-.67-1.75.44.44-6.61.79-16.18Z"/>
    <path id="Polk" class="cls-1" d="M521.87,164.59l1.67-.65,1.68-2.46,14-.02,1.88-2.18,12.95,5.66,2.31,2.9.61-1.33,3.13,1.39-1,9.65-1.32,15.13-6.8.16-35.46.54,2.43-8.08,1.21-2.57-1.14-.51,4.29-9.69.14-3.35-.42-2.1-1.03-1.12.87-1.37Z"/>
    <path id="Dickson" class="cls-1" d="M257.87,58.06l3.43-6.13.63-2.13,1.1-9.44,17.02,2.37,1.13-.63h2.61l1.83.16,3.28-.76,1.27,1.37,3.6.24,2.21,1.03-.35,3.82-2.34,1.31,1.51,2.77-2.09,2.28,2.6,2.76.79,1.62-1.93,1.22.43,1.29-.69,5.11-.08,4.37-.9,2.39-1.16,6.77-.96,3.46-8.96-1.15-21.35-3.11-1.6-2.63.71-3.46-.35-1.49.5-3.89-.59-4.93-1.3-4.59Z"/>
    <path id="Cannon" class="cls-1" d="M387.47,84.53l6.42-1.19,5.59.03.72.41,2.09,1.38,4.43,5.26,3.31,3.4,2.11,3.72-2.64,1.95-6.54,9.97-.59,4.21.57,4.23-2.78,1.21-3.51.61-3.29-.32-2.9-1.6-2.13-.09-.68-1.06-5.2-3.73-.06-3.23,1.15-1.03.78-2.53-.33-2.12.73-1.58.93-8.67,1.32-.89.52-3.21,1.03-.59-1.24-2.07.19-2.47Z"/>
    <path id="Marion" class="cls-1" d="M413.35,167.39l2.59-2.02,2.1-.13,4.55,2.65,3.1.39,4.31-2.73-1.49-5.66,1.52.09,3.47-1.95,2.1.2,6.89-1.8.17,1.25,5.77,3.17.23.69,4.42,1.23,3.45,4.19,1.54,2.75.31,2.33-.53,1.74.66,2.07-.78,4.71,1.16-.02,2,2.03-.4,2.08-1.46,2.81-2.54.52-1.05,3.01-2.08,1.9-2.84,1.61-36.29-.48.02-26.28-.9-.35Z"/>
    <path id="Clay" class="cls-1" d="M420.84,8.86l10.11.39,17.28.29,5.31-.48,14.02-.95-.07,4.58.96,1.45-1.32,2.9-.27,1.87-1.34.48-3.5-.06-4.98,2.68-4.21.41-3.9,5.33-1.22,5.81-.87-.53-2.31-3.38-4.22-3.82-8.36-2.74-2.63.02-.73-3-2.95.41,1.89,2.42-3.46-.17-1.24-2.05-4.26,2.02.6-6.01.96-6.93.71-.94Z"/>
    <path id="McNairy" class="cls-1" d="M143.47,160.97l5.76.17,1.2-1.14,1.82-5.88,2.71-.18-.2-3.16,2.11-2.28,6.48-2.23,7.84-.15,11.53.76-.68,10.19-2.04,33.44-8.31-.26-29.48-.7.43-15.05.83-13.53Z"/>
    <path id="Jackson" class="cls-1" d="M417.29,32.67l1.28-9.93,4.26-2.02,1.24,2.05,3.46.17-1.89-2.42,2.95-.41.73,3,2.63-.02,8.36,2.74,4.22,3.82,2.31,3.38.87.53-.15,3.46.24,7.97.11,2.54-1.3.25-.38,2.36-1.96-.2.03,1.83-2.01.98-3.1.5-4.09,1.88-2.92-1.18-3.33-.12-2.06-.91-1.67.54-1.81-1.12-1.6.03-2.16-2-1.85.5-2.08-4.17,1.67-14.03Z"/>
    <path id="Unicoi" class="cls-1" d="M713.62,69.43l2.2-4.45-1.71-1.96,5.98-6.19,3.64-.9,4.75-.08,1.76-1.6-.1-1.22,1.33-1.82,1.85-1.08,2.13-3.06-.17-1.28,1.53-1.36,1.88-.92,3.22.86,2.68,1.99-.62,2.3,3.32,2.44.78,3.78-2.22,3.04-3,.35-.87-.75-4.25,2.52h-1.69s-4.85,3.82-4.85,3.82l-4.38,8.73-3.99,3.56-4.02,1.67-.71,1.2-1.87-1.1-3.06-.26.54-2.28-1.05-1.43,1.13-2.77-.16-1.75Z"/>
    <path id="Chester" class="cls-1" d="M138.52,140.4l2.38.11,13.14-6.63,3.99-5.21,1.96-3.7.11-2.14,1.75-.44,2.68.67,1.82,4.36,3.53,4.29,3.3,1.91,4.31.88.7.78,4.71-1.07.09,8.37-.27,4.3-11.53-.76-7.84.15-6.48,2.23-2.11,2.28.2,3.16-2.71.18-1.82,5.88-1.2,1.14-5.76-.17-1.23-10.35-3.91-5.31.19-4.91Z"/>
    <path id="Madison" class="cls-1" d="M118.36,109.75l1.04,1.34,3.33,1.26,12.23-12.43-2.1-1.59,19.27,1.27,9.2.44-.79,16.18-.44,6.61-.11,2.14-1.96,3.7-3.99,5.21-13.14,6.63-2.38-.11-21.95-1.08.54-7.77,1.25-21.8Z"/>
    <path id="Lawrence" class="cls-1" d="M255.67,146.37l5.42.12.69-1.86,2.9.04,2.74-.63.09-4.21,11.36.32-.12.99,2.99.38,6.14,1.82,1.99-.42-.76,4.66-.05,5.19-.42,11.36-.03,5.36-.5,2.87,1.51,2.39-.87,3.28-1.13,8.7v5.34s-19.02-.65-19.02-.65l-16.52-.35-.51-1.75.61-1.9,2.52.15-.91-2.68v-9.56s1.21-1.87,1.21-1.87l.15-12.44.52-14.65Z"/>
    <path id="Weakley" class="cls-1" d="M143.35,18.63l28.39.94-1.24,23.15-1.06,16.41-.28,4.15-11.3-.52-.02,6.01-3.57.08-3.39-2.03-2.34-3.3-7.17-1.63-1.14-1.71-1.39-.27-1.8-3.44-4.28-3.07-2.47-3.4,1.52-21.09,3.34.4,2.48,1.63,3.67-2.19,2.75.35.41-6.8-1.11-3.67Z"/>
    <path id="Trousdale" class="cls-1" d="M380.7,24.09l3.5.55,1.98,4.36,17.31,2.07-.34,3.42-4.88,1.58-4.13,3.04-1.84,2.19-2.29,4.73-.97-.2-3.58-3.75-1.22.99-1.58-2.56-3.47.7-.52,3.56-2.07-.26.74-2.38-1.7-2.19.99-1.3.37-10.64,2.88.12.82-4.03Z"/>
    <path id="Carroll" class="cls-1" d="M154.27,68.85l3.57-.08.02-6.01,11.3.52.28-4.15,5.23.38,23.98,1.02-.14,2.91-.53,15.58-.62,15.42,3.64.17-.19,3.29-35.89-1.79-1.91,1.45-1.68,2.48-9.2-.44,1.44-19.1.7-11.65Z"/>
    <path id="Lincoln" class="cls-1" d="M324.72,162.5l7.54,1.28,2.16-2.65,2.42-2.12,5.63-2.87,3.23-.66.32-4.3,1.47-.68,5.4,1.88-1.33,2.17,1.15,2.73,1.08.1,5,2.05,2.24,2.02,1.93,3.37,2.21,1.14,2,6.39v4.88l.89,1.48,1.47-.74,2.47.3-.11,15.4-19.52-.04-13.8-.24-14.85-.08,1-30.81Z"/>
    <path id="Decatur" class="cls-1" d="M200.81,97.9l.19-3.29,8.21.55,3.41-.77,1.66.75.42,3.71,2.28-.56,3.02.14-.92,4.15-.97,1.93-2.97,2.67-1.27,2.28.53,2.67.97,1.23-.17,2.6-1.65,4.31.13.92,3.16,6.94,2.13,3.68-.51,3.08-.91,1.24-3.52,1.13-1.24,1.42-.26,1.66,1.03,1.91,2.13.57,2.94,1.04-.87,2.54-2.61.53-1.11-.63-3.39-2.87-2.47,1.26-1.7,1.65-1.75.71-3.7-1.02-2.28.85-1.57-1.21-.27-1.44-2.88-1.87-.58-.05.72-11.89,5.07-9.01,1.57-23.51Z"/>
    <path id="Fayette" class="cls-1" d="M65.09,143.86l3.24-2.01,3.01-.22,2.4-.74,6.14.42,3.28.34,8.44.38,15.12.87-2.04,33.71-.77,11.85-22.02-.66-19.45-.88,1.5-22.94.27-8.96.88-11.16Z"/>
    <path id="Washington" class="cls-1" d="M704.97,25.27l2.05-.85,4.44.88.75.67,14.84-3.05.13.91h2.95s3.4,3.68,3.4,3.68l6.38.51.1,2.87-2.09,8.94-1.32,3.35.21,1.25-1.53,1.36.17,1.28-2.13,3.06-1.85,1.08-1.33,1.82.1,1.22-1.76,1.6-4.75.08-3.64.9-5.98,6.19-5.03-5.52.09-7.3.54-22.79-.22-.82-6.44,1.17,2.36-1.55-.44-.94Z"/>
    <path id="Montgomery" class="cls-1" d="M251.92,5.79l20.69-.02,27.29.2-1.44,7.93-1.07,1.96,2.27,1.81-1.24,8.74.74.75-2.74,1.15-.1,3.21-1.84-1.26-.77,2.37-2.39-.35-.89,1.52-3.22,2-1.19,2.6-1.64.06-.59,3.64h-2.61l-1.13.63-17.02-2.37-6.71-.91-.45-2.94-2.75-19.91-1.2-10.81Z"/>
    <path id="Pickett" class="cls-1" d="M467.56,8.11l7.38.06,15.58.55,16.58,1.43,5.26.14,5,8.86-4.76.02-3.14-2.8-4.07-2.2-3.43-.91-3.96-.3-2.99.81-4.24,1.77-1.94.06-.77,1.25.46,1.78-1.54.52-2.15,3.15-1.22,10.23-1.61.33-1.34.03-1.11-3.25-.33-2.76-3.23-3.4-3.49-2.77-2.44-.9-1.78-1.93-1.42,1.03.27-1.87,1.32-2.9-.96-1.45.07-4.58Z"/>
    <path id="Lake" class="cls-1" d="M95.99,17.1l.44,2.96-1.89,2.29-.93,2.48.74,2.86-2.01,3.58-2.32,2.86-.09,4.26-2.46,6.03-2.3,3.44-3.07.77.23.94-.59,2.83-12.95-.22-4.46-3.63-2.27-2.43.99-1.8,3.9.38,3.74,1.43,2.19.06,2.73-1.21,2.14-.1v-2.04l-3.86-2.15-2.97-2.47-.71-1.6.95-1.95,2.66-.11,1.92.59,2.63-.08,1.21-1.01.95-2.81-.34-1.29-2.45-4.08-.19-1.69,1.69-1.82.54-3.36-1.44-1.94,4.91.23-.81,2.1.59,1.96,2,.57,2.57-1.86,1.88-2.72,6.51-.25Z"/>
    <path id="Carter" class="cls-1" d="M739.91,28.02l1.04.11,3.25-2.96,4.7,1.98h1.21s3.67-2.91,3.67-2.91l4.2-4.02,1.92.09,3.48-3.38,2.69-.49,2.2-2.23-.17.71,3.29,3.07-4.5,5.75-2.51,4.12-2.32,2.59,1.56.46,2.47,3.28,1.83.3,1.73,4.66,2.14,1.5.59,1.36,1.68-.41-2.31,4.26-6.2,12.47-1.95-.65-.6,1.58-1.66.82-4.67.19-1.77-4.81-2.62.93-2.64-1.59-1.57.08-.78-3.78-3.32-2.44.62-2.3-2.68-1.99-3.22-.86-1.88.92-.21-1.25,1.32-3.35,2.09-8.94-.1-2.87Z"/>
    <path id="Haywood" class="cls-1" d="M92.42,94.73l1.4,3.1,2.72,2.11,2.01.04,1.45,2.12,6.12,1.08,4.39,2.31,3.5,3.38,4.35.88-1.25,21.8-.54,7.77-9.59-.46-.26,4.04-15.12-.87-8.44-.38-3.28-.34.98-16.24-.78-2.03-2.07-1.94,3.03-1.55.69-9.89,1.25.06,2.06-5.29-.52-4.11,3.32-4.75.39-1.55,4.19.71Z"/>
  </g>
</svg>