<svg xmlns="http://www.w3.org/2000/svg" xmlns:xlink="http://www.w3.org/1999/xlink" width="106" zoomAndPan="magnify" viewBox="0 0 79.5 79.499996" height="106" preserveAspectRatio="xMidYMid meet" version="1.2"><defs><clipPath id="8a13edce5c"><path d="M 0 0 L 78.792969 0 L 78.792969 78.792969 L 0 78.792969 Z M 0 0 "/></clipPath><clipPath id="4ce543f8aa"><path d="M 39.398438 0 C 17.636719 0 0 17.636719 0 39.398438 C 0 61.15625 17.636719 78.792969 39.398438 78.792969 C 61.15625 78.792969 78.792969 61.15625 78.792969 39.398438 C 78.792969 17.636719 61.15625 0 39.398438 0 Z M 39.398438 0 "/></clipPath><clipPath id="118ef07d6d"><path d="M 27.800781 15.671875 L 47.921875 15.671875 L 47.921875 35 L 27.800781 35 Z M 27.800781 15.671875 "/></clipPath><clipPath id="88840204fa"><path d="M 13.398438 30.492188 L 65.570312 30.492188 L 65.570312 63 L 13.398438 63 Z M 13.398438 30.492188 "/></clipPath></defs><g id="4657a2c4ae"><g clip-rule="nonzero" clip-path="url(#8a13edce5c)"><g clip-rule="nonzero" clip-path="url(#4ce543f8aa)"><path style=" stroke:none;fill-rule:nonzero;fill:#f5f5f4;fill-opacity:1;" d="M 0 0 L 78.792969 0 L 78.792969 78.792969 L 0 78.792969 Z M 0 0 "/></g></g><g clip-rule="nonzero" clip-path="url(#118ef07d6d)"><path style=" stroke:none;fill-rule:nonzero;fill:#6dc17b;fill-opacity:1;" d="M 42.925781 15.699219 L 42.550781 15.699219 C 41.378906 15.683594 40.25 16.261719 39.164062 17.429688 C 38.910156 17.742188 38.714844 18.046875 38.582031 18.34375 C 38.1875 19.246094 37.953125 19.917969 37.882812 20.359375 C 37.800781 20.523438 37.707031 20.683594 37.59375 20.832031 L 35.328125 23.597656 L 30.988281 28.644531 C 30.917969 28.742188 30.898438 28.820312 30.921875 28.875 C 31.292969 28.867188 31.441406 28.941406 31.371094 29.097656 C 29.644531 31.632812 28.683594 33.070312 28.488281 33.417969 C 28.027344 34.148438 27.816406 34.558594 27.851562 34.652344 C 27.902344 34.648438 28.074219 34.554688 28.375 34.375 C 29.632812 33.519531 30.550781 32.929688 31.117188 32.609375 C 31.570312 32.34375 32.09375 32.105469 32.683594 31.890625 C 32.925781 31.792969 33.300781 31.695312 33.800781 31.597656 C 35.453125 31.460938 36.601562 31.304688 37.246094 31.128906 C 38.109375 30.914062 39.160156 30.53125 40.394531 29.980469 C 41.121094 29.636719 41.773438 29.253906 42.355469 28.839844 C 42.855469 28.527344 43.449219 27.976562 44.136719 27.191406 C 45.59375 25.019531 45.933594 22.933594 45.148438 20.9375 C 45.332031 20.660156 45.609375 20.015625 45.984375 19 C 46.101562 18.851562 46.714844 18.445312 47.816406 17.78125 C 47.882812 17.726562 47.917969 17.675781 47.917969 17.621094 L 47.882812 17.570312 L 45.96875 17.09375 C 45.21875 16.429688 44.628906 16.035156 44.199219 15.910156 C 43.980469 15.800781 43.558594 15.730469 42.925781 15.699219 "/></g><path style=" stroke:none;fill-rule:nonzero;fill:#6dc17b;fill-opacity:1;" d="M 39.851562 29.785156 L 37.214844 30.054688 C 37.691406 30.242188 38.152344 30.441406 38.597656 30.65625 C 38.820312 30.761719 39.039062 30.871094 39.253906 30.984375 L 40.332031 31.578125 C 40.722656 31.757812 41.316406 32 42.109375 32.3125 C 42.191406 32.378906 42.234375 32.441406 42.242188 32.496094 C 42.269531 32.886719 42.3125 33.167969 42.367188 33.335938 C 42.4375 33.558594 42.535156 33.742188 42.664062 33.886719 C 42.554688 33.457031 42.523438 33.125 42.574219 32.886719 C 42.648438 32.617188 42.835938 32.394531 43.136719 32.214844 C 43.386719 32.082031 43.695312 32.035156 44.066406 32.082031 C 44.410156 32.113281 44.710938 32.203125 44.964844 32.347656 C 44.6875 32.066406 44.371094 31.871094 44.027344 31.757812 C 43.886719 31.71875 43.742188 31.699219 43.589844 31.695312 C 42.953125 31.769531 42.539062 31.789062 42.339844 31.75 C 42.203125 31.738281 42.078125 31.714844 41.964844 31.675781 C 41.894531 31.65625 41.820312 31.628906 41.734375 31.59375 L 41.292969 31.390625 C 40.636719 31.0625 40.230469 30.800781 40.066406 30.605469 C 39.957031 30.492188 39.878906 30.378906 39.835938 30.269531 L 39.792969 30.105469 C 39.78125 29.996094 39.800781 29.890625 39.851562 29.785156 "/><path style=" stroke:none;fill-rule:nonzero;fill:#6dc17b;fill-opacity:1;" d="M 34.820312 30.382812 L 34.941406 30.449219 C 35.261719 30.617188 35.511719 30.742188 35.6875 30.824219 C 36.394531 31.128906 36.835938 31.324219 37.003906 31.414062 C 37.335938 31.585938 37.621094 31.804688 37.863281 32.074219 C 37.929688 32.152344 37.957031 32.238281 37.949219 32.335938 C 37.796875 33.035156 37.726562 33.425781 37.738281 33.503906 C 37.761719 33.695312 37.785156 33.804688 37.808594 33.835938 C 37.835938 33.894531 37.875 33.933594 37.921875 33.957031 C 37.945312 33.96875 37.960938 33.949219 37.96875 33.898438 C 37.984375 33.519531 38.003906 33.269531 38.019531 33.152344 C 38.039062 33.027344 38.074219 32.902344 38.125 32.769531 C 38.234375 32.53125 38.328125 32.382812 38.402344 32.316406 C 38.492188 32.21875 38.597656 32.140625 38.714844 32.082031 C 38.941406 31.960938 39.21875 31.914062 39.539062 31.945312 C 40.195312 32.089844 40.703125 32.238281 41.058594 32.386719 C 40.480469 31.988281 40.128906 31.785156 40.007812 31.78125 C 39.777344 31.699219 39.214844 31.628906 38.328125 31.574219 C 37.636719 31.207031 37.113281 30.964844 36.761719 30.84375 L 36.636719 30.808594 L 34.820312 30.382812 "/><g clip-rule="nonzero" clip-path="url(#88840204fa)"><path style=" stroke:none;fill-rule:evenodd;fill:#6dc17b;fill-opacity:1;" d="M 41.761719 44.738281 C 43.253906 42.308594 44.765625 40.1875 47.101562 38.441406 C 48.683594 37.257812 50.5 36.421875 52.199219 35.417969 C 53.851562 34.4375 55.402344 33.292969 57.066406 32.332031 C 57.921875 31.839844 58.808594 31.40625 59.683594 30.957031 C 59.863281 30.863281 60.375 30.496094 60.601562 30.570312 C 60.765625 30.625 60.636719 31.0625 60.601562 31.160156 C 60.390625 31.738281 59.878906 32.191406 59.414062 32.574219 C 59.371094 32.609375 58.695312 33.125 58.828125 33.183594 C 59.128906 33.316406 59.777344 32.9375 60.035156 32.828125 C 61.195312 32.335938 62.375 31.871094 63.507812 31.328125 C 63.679688 31.246094 64.8125 30.519531 64.976562 30.820312 C 65.167969 31.164062 64.734375 31.660156 64.511719 31.859375 C 63.957031 32.355469 63.300781 32.726562 62.703125 33.164062 C 62.582031 33.25 62.152344 33.460938 62.113281 33.621094 C 62.085938 33.722656 62.613281 33.691406 62.648438 33.6875 C 63.144531 33.640625 63.667969 33.402344 64.171875 33.511719 C 64.332031 33.542969 64.660156 33.722656 64.539062 33.9375 C 64.371094 34.226562 63.941406 34.371094 63.664062 34.519531 C 63.082031 34.832031 62.503906 35.152344 61.964844 35.53125 C 61.921875 35.558594 61.25 35.984375 61.308594 36.070312 C 61.410156 36.222656 61.871094 36.121094 61.992188 36.097656 C 62.71875 35.976562 63.398438 35.65625 64.117188 35.5 C 64.347656 35.449219 64.945312 35.28125 65.046875 35.617188 C 65.386719 36.722656 63.035156 37.402344 62.40625 37.664062 C 62.316406 37.703125 61.546875 37.9375 61.53125 38.042969 C 61.523438 38.089844 62.207031 38.007812 62.242188 38.003906 C 62.589844 37.960938 64.269531 37.5 64.234375 38.207031 C 64.210938 38.738281 63.652344 38.960938 63.222656 39.109375 C 62.398438 39.386719 61.125 39.417969 60.421875 39.960938 C 60.363281 40.003906 60.910156 40.171875 60.957031 40.1875 C 61.308594 40.292969 61.871094 40.40625 61.507812 40.867188 C 60.925781 41.609375 59.558594 41.492188 58.738281 41.609375 C 58.546875 41.636719 57.835938 41.652344 57.714844 41.84375 C 57.671875 41.914062 58.976562 42.1875 58.871094 42.363281 C 58.742188 42.578125 58.222656 42.660156 58.007812 42.71875 C 57.066406 42.984375 56.132812 42.972656 55.179688 43.132812 C 55.09375 43.148438 55.007812 43.164062 54.925781 43.1875 C 54.234375 43.363281 55.242188 43.738281 55 43.96875 C 54.492188 44.445312 53.445312 44.175781 52.996094 44.558594 C 52.941406 44.605469 53.34375 44.96875 53.222656 45.109375 C 52.992188 45.386719 52.113281 45.121094 52 45.5 C 51.921875 45.75 52.507812 45.921875 52.453125 46.042969 C 52.300781 46.382812 51.351562 46.640625 51.054688 46.902344 C 50.703125 47.210938 51.050781 47.671875 50.574219 47.898438 C 50.246094 48.054688 49.535156 47.9375 49.296875 48.199219 C 49.113281 48.394531 49.445312 48.792969 49.253906 48.996094 C 48.980469 49.289062 48.28125 49.007812 47.949219 49.324219 C 47.746094 49.519531 47.992188 49.75 47.917969 49.949219 C 47.871094 50.082031 47.480469 50 47.371094 50.105469 C 47.179688 50.289062 47.246094 50.632812 47.035156 50.800781 C 46.816406 50.984375 46.464844 50.757812 46.257812 50.917969 C 46.035156 51.089844 46.164062 51.453125 45.863281 51.640625 C 45.625 51.785156 45.34375 51.894531 45.058594 51.988281 C 45.023438 52.34375 44.949219 52.699219 45.003906 53.054688 C 45.070312 53.496094 45.351562 53.84375 45.527344 54.242188 C 45.914062 55.121094 46.230469 55.972656 46.769531 56.78125 C 47.109375 57.289062 48.019531 58.425781 47.394531 59.050781 C 47.078125 59.367188 46.65625 58.605469 46.605469 58.640625 C 46.558594 58.667969 46.601562 59.039062 46.601562 59.085938 C 46.59375 59.417969 46.617188 59.984375 46.34375 60.230469 C 45.941406 60.597656 45.632812 59.765625 45.40625 59.617188 C 45.277344 59.53125 45.425781 59.925781 45.429688 60.078125 C 45.433594 60.339844 45.429688 60.941406 45.175781 61.117188 C 44.953125 61.269531 44.578125 60.488281 44.410156 60.421875 C 44.40625 60.417969 44.367188 60.800781 44.363281 60.824219 C 44.332031 61.046875 44.207031 61.582031 43.910156 61.613281 C 43.574219 61.648438 43.550781 60.953125 43.363281 60.828125 C 43.238281 60.746094 43.316406 61.125 43.285156 61.269531 C 43.238281 61.515625 43.097656 62.167969 42.796875 62.25 C 42.570312 62.3125 42.363281 61.746094 42.308594 61.601562 C 42.273438 61.503906 42.308594 61.257812 42.214844 61.304688 C 42.195312 61.3125 42.167969 61.753906 42.160156 61.792969 C 42.082031 62.113281 41.875 62.445312 41.574219 62.59375 C 41.210938 62.777344 41.132812 62.15625 41.105469 61.9375 C 41.082031 61.789062 41.183594 61.386719 41.078125 61.492188 C 40.84375 61.726562 40.675781 63.113281 40.050781 62.820312 C 39.457031 62.539062 39.816406 61.816406 39.609375 61.402344 C 39.542969 61.273438 39.136719 61.320312 39.015625 61.144531 C 38.988281 61.101562 38.945312 60.886719 38.929688 60.691406 C 38.972656 60.550781 39.027344 60.359375 38.996094 60.359375 C 38.925781 60.359375 38.917969 60.519531 38.929688 60.691406 C 38.90625 60.769531 38.882812 60.828125 38.882812 60.839844 C 38.828125 60.980469 38.507812 61.765625 38.253906 61.667969 C 37.996094 61.5625 37.964844 60.917969 37.945312 60.695312 C 37.929688 60.558594 38 60.175781 37.925781 60.289062 C 37.730469 60.582031 36.695312 62.085938 36.550781 60.859375 C 36.511719 60.515625 36.757812 60.234375 36.757812 59.941406 C 36.757812 59.8125 36.53125 60.085938 36.402344 60.105469 C 36.1875 60.140625 36.03125 60 35.949219 59.816406 C 35.769531 59.425781 36.035156 59.074219 36.136719 58.707031 C 36.214844 58.433594 35.972656 58.191406 36.078125 57.921875 C 36.324219 57.289062 36.804688 57.148438 36.726562 56.410156 C 36.691406 56.042969 36.6875 55.601562 36.492188 55.277344 C 36.230469 54.84375 35.667969 54.632812 35.292969 54.316406 C 34.574219 53.714844 33.980469 52.757812 33.910156 51.796875 C 33.761719 51.753906 33.613281 51.703125 33.472656 51.640625 C 33.097656 51.476562 33.132812 50.96875 32.917969 50.871094 C 32.613281 50.730469 32.257812 51.179688 31.949219 50.785156 C 31.804688 50.601562 32.28125 50.152344 32.054688 50.089844 C 31.699219 49.988281 30.820312 50.90625 30.484375 50.289062 C 30.253906 49.871094 31.214844 49.289062 31.214844 48.871094 C 31.214844 48.804688 31.09375 48.933594 31.035156 48.964844 C 30.917969 49.03125 30.796875 49.089844 30.675781 49.144531 C 30.335938 49.296875 29.625 49.667969 29.242188 49.5 C 28.855469 49.335938 29.773438 48.441406 29.773438 48.269531 C 29.773438 48.269531 29.582031 48.351562 29.574219 48.355469 C 29.453125 48.410156 29.332031 48.457031 29.214844 48.511719 C 28.835938 48.675781 28.09375 49.136719 27.664062 48.957031 C 27.398438 48.847656 27.726562 48.007812 27.613281 47.988281 C 27.023438 47.898438 25.996094 48.855469 25.425781 48.339844 C 25.234375 48.171875 25.878906 47.246094 25.875 47.246094 C 25.785156 47.207031 25.375 47.457031 25.292969 47.488281 C 24.917969 47.644531 23.859375 48.089844 23.476562 47.78125 C 23.277344 47.621094 24.167969 46.867188 24.277344 46.765625 C 24.296875 46.746094 24.585938 46.449219 24.578125 46.445312 C 24.382812 46.398438 23.949219 46.625 23.765625 46.671875 C 23.140625 46.835938 22.34375 47.09375 21.6875 46.96875 C 21.195312 46.871094 21.402344 45.960938 21.339844 45.972656 C 20.597656 46.148438 19.902344 46.5 19.175781 46.726562 C 18.976562 46.785156 18.5625 46.953125 18.363281 46.8125 C 18.164062 46.675781 18.457031 46.3125 18.539062 46.195312 C 18.699219 45.96875 19.792969 45.015625 19.652344 44.710938 C 19.558594 44.507812 18.957031 44.597656 18.800781 44.609375 C 18.15625 44.65625 17.441406 44.808594 16.804688 44.65625 C 16.070312 44.480469 16.238281 44.066406 16.742188 43.753906 C 16.90625 43.652344 17.074219 43.5625 17.25 43.480469 C 17.4375 43.394531 18.492188 43.167969 18.5625 42.976562 C 18.589844 42.898438 17.636719 42.722656 17.578125 42.710938 C 16.777344 42.546875 15.992188 42.332031 15.195312 42.152344 C 14.917969 42.089844 14.378906 42.0625 14.195312 41.792969 C 14.019531 41.535156 14.765625 41.242188 14.816406 41.019531 C 14.839844 40.925781 14.308594 40.875 14.253906 40.773438 C 14.222656 40.71875 14.53125 40.472656 14.515625 40.34375 C 14.492188 40.164062 13.394531 39.535156 13.5625 39.421875 C 14.144531 39.035156 15.214844 39.128906 15.875 39.105469 C 15.929688 39.105469 16.582031 39.125 16.597656 39.03125 C 16.605469 38.960938 16.175781 38.714844 16.125 38.679688 C 15.691406 38.386719 14.367188 37.699219 15.078125 36.988281 C 15.277344 36.789062 15.800781 36.914062 16.019531 36.976562 C 16.664062 37.152344 17.257812 37.484375 17.886719 37.707031 C 18.027344 37.753906 18.464844 37.96875 18.617188 37.90625 C 18.734375 37.859375 18.398438 37.785156 18.289062 37.71875 C 18.078125 37.582031 17.882812 37.433594 17.695312 37.261719 C 17.117188 36.730469 16.445312 36.109375 16.203125 35.335938 C 16.175781 35.246094 15.957031 34.785156 15.996094 34.703125 C 16 34.695312 16.699219 35.109375 16.726562 35.125 C 17.1875 35.398438 17.660156 35.640625 18.136719 35.878906 C 19.617188 36.617188 21.152344 37.25 22.726562 37.753906 C 24.941406 38.460938 27.195312 39.035156 29.417969 39.710938 C 30.867188 40.152344 32.304688 40.535156 33.363281 41.695312 C 34.128906 42.535156 34.550781 43.832031 34.980469 44.867188 C 35.097656 45.15625 35.210938 45.914062 35.425781 46.128906 C 35.464844 46.164062 36.25 45.636719 36.304688 45.605469 C 37.199219 45.054688 38.207031 44.429688 39.246094 44.222656 C 40.027344 44.066406 40.925781 44.367188 41.761719 44.738281 Z M 41.761719 44.738281 "/></g></g></svg>