<svg xmlns="http://www.w3.org/2000/svg" xmlns:xlink="http://www.w3.org/1999/xlink" width="106" zoomAndPan="magnify" viewBox="0 0 79.5 79.499996" height="106" preserveAspectRatio="xMidYMid meet" version="1.2"><defs><clipPath id="c1061ee1b6"><path d="M 0 0 L 78.792969 0 L 78.792969 78.792969 L 0 78.792969 Z M 0 0 "/></clipPath><clipPath id="f50b206aea"><path d="M 39.398438 0 C 17.636719 0 0 17.636719 0 39.398438 C 0 61.15625 17.636719 78.792969 39.398438 78.792969 C 61.15625 78.792969 78.792969 61.15625 78.792969 39.398438 C 78.792969 17.636719 61.15625 0 39.398438 0 Z M 39.398438 0 "/></clipPath><clipPath id="b67ee32f46"><path d="M 12.027344 30.738281 L 66.433594 30.738281 L 66.433594 49.371094 L 12.027344 49.371094 Z M 12.027344 30.738281 "/></clipPath></defs><g id="e4cfe2df61"><g clip-rule="nonzero" clip-path="url(#c1061ee1b6)"><g clip-rule="nonzero" clip-path="url(#f50b206aea)"><path style=" stroke:none;fill-rule:nonzero;fill:#f5f5f4;fill-opacity:1;" d="M 0 0 L 78.792969 0 L 78.792969 78.792969 L 0 78.792969 Z M 0 0 "/></g></g><g clip-rule="nonzero" clip-path="url(#b67ee32f46)"><path style=" stroke:none;fill-rule:nonzero;fill:#6dc17b;fill-opacity:1;" d="M 13.339844 41.53125 C 13.339844 41.53125 12.101562 41.210938 12.101562 40.867188 C 12.101562 40.523438 12.671875 39.578125 14.390625 38.863281 C 16.109375 38.148438 19.375 37.230469 20.578125 36.945312 C 21.78125 36.65625 25.367188 36 27.394531 35.769531 C 29.851562 35.492188 32.78125 35.828125 33.238281 35.398438 C 33.695312 34.96875 36.332031 32.105469 38.738281 30.757812 C 38.738281 30.757812 38.851562 31.042969 39.167969 31.214844 C 39.480469 31.386719 39.394531 31.675781 39.710938 31.902344 C 40.027344 32.132812 39.984375 32.707031 40.183594 32.933594 C 40.382812 33.164062 40.855469 33.277344 41.085938 33.59375 C 41.1875 33.734375 41.320312 33.925781 41.472656 34.117188 C 41.65625 34.347656 41.855469 34.753906 42.074219 34.910156 C 42.261719 35.042969 42.53125 35.050781 42.753906 35.238281 C 43.003906 35.449219 43.203125 35.671875 43.203125 35.855469 C 43.203125 36.199219 41.628906 36.371094 41.054688 36.515625 C 41.054688 36.515625 44.222656 37.222656 46.347656 37.617188 C 49.121094 38.132812 50.765625 38.261719 51.683594 38.0625 C 52.601562 37.859375 53.84375 37.144531 54.976562 37.546875 C 54.976562 37.546875 52.65625 38.769531 53.757812 38.800781 C 54.863281 38.828125 57.152344 39.007812 58.554688 38.289062 C 59.960938 37.574219 62.933594 34.910156 65.488281 35.597656 C 65.488281 35.597656 65.808594 35.898438 65.335938 36.859375 C 65.027344 37.488281 64.996094 38.054688 65.023438 38.761719 C 65.066406 39.953125 65.597656 40.507812 65.597656 40.96875 C 65.597656 41.976562 64.992188 42.019531 65.359375 43.03125 C 65.476562 43.351562 65.957031 43.871094 66.15625 44.363281 C 66.378906 44.917969 66.433594 45.410156 66.117188 45.535156 C 65.164062 45.917969 64.4375 45.972656 62.023438 45.164062 C 60.75 44.738281 58.433594 43.53125 57.066406 43.476562 C 56.351562 43.445312 53.832031 43.445312 53.085938 43.875 C 53.085938 43.875 53.972656 44.25 54.402344 44.332031 C 54.402344 44.332031 54.140625 44.800781 54.195312 45.394531 C 54.253906 45.988281 54.457031 46.347656 54.367188 46.683594 C 54.195312 47.328125 53.660156 47.660156 53.480469 48.027344 C 53.292969 48.410156 53.378906 49.0625 53.085938 49.003906 C 52.511719 48.886719 48.703125 47.027344 46.957031 45.851562 C 46.957031 45.851562 42.277344 46.304688 38.84375 46.597656 C 37.15625 46.738281 40.332031 49.144531 40.332031 49.144531 C 40.332031 49.144531 37.242188 48.800781 36.246094 46.796875 C 35.472656 46.910156 30.195312 46.511719 26.421875 46.253906 C 25.832031 46.210938 26.414062 48.605469 26.191406 48.601562 C 25.769531 48.59375 23.792969 46.917969 23.070312 45.535156 C 23.070312 45.535156 17.855469 44.277344 16.136719 43.90625 C 14.417969 43.53125 12.730469 42.789062 12.414062 42.53125 C 12.101562 42.273438 12.027344 41.664062 12.671875 41.671875 C 13.171875 41.675781 13.339844 41.53125 13.339844 41.53125 "/></g></g></svg>