<svg xmlns="http://www.w3.org/2000/svg" xmlns:xlink="http://www.w3.org/1999/xlink" width="106" zoomAndPan="magnify" viewBox="0 0 79.5 79.499996" height="106" preserveAspectRatio="xMidYMid meet" version="1.2"><defs><clipPath id="9779943c34"><path d="M 0 0 L 78.792969 0 L 78.792969 78.792969 L 0 78.792969 Z M 0 0 "/></clipPath><clipPath id="fcd6b208e5"><path d="M 39.398438 0 C 17.636719 0 0 17.636719 0 39.398438 C 0 61.15625 17.636719 78.792969 39.398438 78.792969 C 61.15625 78.792969 78.792969 61.15625 78.792969 39.398438 C 78.792969 17.636719 61.15625 0 39.398438 0 Z M 39.398438 0 "/></clipPath><clipPath id="e31b5a48f4"><path d="M 30 33 L 49 33 L 49 56.65625 L 30 56.65625 Z M 30 33 "/></clipPath><clipPath id="382d05dba1"><path d="M 25.5625 36 L 32 36 L 32 43 L 25.5625 43 Z M 25.5625 36 "/></clipPath><clipPath id="01a9cfb438"><path d="M 28 47 L 31 47 L 31 56.65625 L 28 56.65625 Z M 28 47 "/></clipPath><clipPath id="a7604dfab5"><path d="M 46 36 L 53.140625 36 L 53.140625 43 L 46 43 Z M 46 36 "/></clipPath><clipPath id="bac3f33486"><path d="M 47 47 L 51 47 L 51 56.65625 L 47 56.65625 Z M 47 47 "/></clipPath><clipPath id="e86ef0fcc1"><path d="M 34 22.371094 L 38 22.371094 L 38 27 L 34 27 Z M 34 22.371094 "/></clipPath><clipPath id="7deaca8aad"><path d="M 40 22.371094 L 45 22.371094 L 45 27 L 40 27 Z M 40 22.371094 "/></clipPath><clipPath id="63346c338e"><path d="M 12.28125 23 L 25.695312 23 L 25.695312 38.769531 L 12.28125 38.769531 Z M 12.28125 23 "/></clipPath><clipPath id="73cabf1f9d"><path d="M 54 34 L 69 34 L 69 52 L 54 52 Z M 54 34 "/></clipPath><clipPath id="c92f91d642"><path d="M 61.5 34.097656 L 69.113281 50.28125 L 58.324219 55.359375 L 50.707031 39.171875 Z M 61.5 34.097656 "/></clipPath><clipPath id="4c23613506"><path d="M 61.5 34.097656 L 69.113281 50.28125 L 58.324219 55.359375 L 50.707031 39.171875 Z M 61.5 34.097656 "/></clipPath><clipPath id="a303657f24"><path d="M 61.496094 34.097656 L 68.933594 49.910156 L 58.152344 54.984375 L 50.714844 39.167969 Z M 61.496094 34.097656 "/></clipPath></defs><g id="1be95ab885"><g clip-rule="nonzero" clip-path="url(#9779943c34)"><g clip-rule="nonzero" clip-path="url(#fcd6b208e5)"><path style=" stroke:none;fill-rule:nonzero;fill:#f5f5f4;fill-opacity:1;" d="M 0 0 L 78.792969 0 L 78.792969 78.792969 L 0 78.792969 Z M 0 0 "/></g></g><g clip-rule="nonzero" clip-path="url(#e31b5a48f4)"><path style=" stroke:none;fill-rule:nonzero;fill:#6dc17b;fill-opacity:1;" d="M 46.515625 36.234375 C 45.71875 34.082031 44.773438 33.960938 43.417969 33.960938 C 42.0625 33.960938 41.796875 34.539062 39.351562 34.539062 C 37.304688 34.539062 36.640625 33.960938 35.285156 33.960938 C 33.933594 33.960938 33.011719 34.082031 32.1875 36.234375 C 31.457031 38.152344 29.769531 44.558594 30.785156 48.816406 C 31.800781 53.078125 35.382812 56.125 39.351562 56.125 C 43.078125 56.125 46.902344 53.078125 47.917969 48.816406 C 48.9375 44.558594 47.230469 38.160156 46.515625 36.234375 "/></g><path style=" stroke:none;fill-rule:nonzero;fill:#6dc17b;fill-opacity:1;" d="M 35.53125 33.476562 L 35.789062 33.988281 C 36.839844 34.101562 37.574219 34.539062 39.351562 34.539062 C 41.46875 34.539062 41.953125 34.105469 42.921875 33.988281 L 43.179688 33.476562 C 45.164062 33.765625 45.113281 32.144531 44.972656 31.492188 C 44.390625 28.8125 40.9375 28.585938 39.355469 28.585938 C 37.777344 28.585938 34.441406 28.765625 33.742188 31.492188 C 33.574219 32.136719 33.546875 33.765625 35.53125 33.476562 "/><path style=" stroke:none;fill-rule:nonzero;fill:#6dc17b;fill-opacity:1;" d="M 36.613281 28.894531 C 37.617188 28.621094 38.660156 28.585938 39.355469 28.585938 C 40.042969 28.585938 41.082031 28.628906 42.085938 28.898438 C 42.472656 28.6875 42.898438 28.304688 42.789062 27.667969 C 42.59375 26.554688 41.480469 26.554688 41.480469 26.554688 C 41.289062 25.632812 40.289062 25.148438 39.351562 25.148438 C 38.464844 25.148438 37.414062 25.632812 37.222656 26.554688 C 37.222656 26.554688 36.109375 26.554688 35.914062 27.667969 C 35.804688 28.300781 36.226562 28.683594 36.613281 28.894531 "/><path style=" stroke:none;fill-rule:nonzero;fill:#6dc17b;fill-opacity:1;" d="M 33.679688 31.867188 C 33.304688 31.878906 32.960938 31.851562 32.777344 31.734375 C 32.363281 31.472656 32.578125 31.128906 32.699219 30.5 C 32.820312 29.871094 32.070312 29.886719 32.070312 29.886719 C 31.5625 29.171875 31.070312 29.359375 30.921875 29.242188 C 30.824219 29.167969 30.75 28.636719 29.96875 28.519531 C 29.730469 28.40625 28.816406 27.601562 28.769531 27.621094 C 28.738281 27.632812 28.914062 27.945312 28.898438 27.957031 C 28.890625 27.972656 28.550781 27.902344 28.539062 27.9375 C 28.519531 27.992188 29.628906 28.625 29.769531 28.78125 C 29.953125 29.300781 30.253906 29.433594 30.722656 29.535156 C 30.808594 29.554688 30.832031 30.171875 31.863281 30.308594 C 32.066406 30.421875 31.6875 31.488281 31.761719 31.925781 C 31.851562 32.433594 32.175781 32.644531 32.699219 32.828125 C 32.957031 32.921875 33.433594 32.960938 33.914062 32.976562 C 33.691406 32.644531 33.652344 32.214844 33.679688 31.867188 "/><g clip-rule="nonzero" clip-path="url(#382d05dba1)"><path style=" stroke:none;fill-rule:nonzero;fill:#6dc17b;fill-opacity:1;" d="M 29.820312 38.226562 C 30.144531 38.019531 30.960938 38.089844 31.578125 38.179688 C 31.699219 37.730469 31.820312 37.328125 31.929688 36.980469 C 31.300781 36.96875 30.1875 36.972656 29.742188 37.132812 C 29.21875 37.316406 28.894531 37.527344 28.804688 38.035156 C 28.730469 38.472656 29.109375 39.539062 28.90625 39.652344 C 27.875 39.789062 27.855469 40.40625 27.765625 40.425781 C 27.296875 40.527344 26.996094 40.660156 26.8125 41.179688 C 26.671875 41.335938 25.5625 41.96875 25.582031 42.019531 C 25.59375 42.054688 25.933594 41.988281 25.941406 42 C 25.957031 42.015625 25.78125 42.328125 25.8125 42.339844 C 25.859375 42.359375 26.773438 41.554688 27.011719 41.441406 C 27.792969 41.324219 27.867188 40.792969 27.964844 40.71875 C 28.113281 40.601562 28.605469 40.789062 29.113281 40.074219 C 29.113281 40.074219 29.863281 40.089844 29.742188 39.460938 C 29.621094 38.832031 29.40625 38.488281 29.820312 38.226562 "/></g><g clip-rule="nonzero" clip-path="url(#01a9cfb438)"><path style=" stroke:none;fill-rule:nonzero;fill:#6dc17b;fill-opacity:1;" d="M 30.136719 51.503906 C 29.617188 51.128906 29.222656 51.027344 29.34375 50.550781 C 29.453125 50.105469 30.34375 49.464844 30.863281 49.121094 C 30.835938 49.019531 30.808594 48.917969 30.785156 48.816406 C 30.699219 48.453125 30.632812 48.074219 30.582031 47.683594 C 29.835938 48.375 28.71875 49.441406 28.53125 49.8125 C 28.277344 50.308594 28.1875 50.683594 28.476562 51.113281 C 28.722656 51.484375 29.730469 51.992188 29.660156 52.214844 C 29.007812 53.023438 29.417969 53.488281 29.367188 53.5625 C 29.097656 53.957031 28.96875 54.261719 29.195312 54.765625 C 29.199219 54.976562 28.832031 56.199219 28.882812 56.222656 C 28.914062 56.238281 29.113281 55.957031 29.132812 55.960938 C 29.152344 55.960938 29.238281 56.308594 29.269531 56.296875 C 29.316406 56.277344 29.425781 55.066406 29.519531 54.816406 C 30.007812 54.195312 29.695312 53.757812 29.710938 53.636719 C 29.738281 53.449219 30.226562 53.25 30.101562 52.378906 C 30.101562 52.378906 30.65625 51.875 30.136719 51.503906 "/></g><path style=" stroke:none;fill-rule:nonzero;fill:#6dc17b;fill-opacity:1;" d="M 49.804688 27.957031 C 49.789062 27.945312 49.964844 27.632812 49.933594 27.621094 C 49.886719 27.601562 48.972656 28.40625 48.734375 28.519531 C 47.953125 28.636719 47.878906 29.167969 47.78125 29.242188 C 47.632812 29.359375 47.140625 29.171875 46.632812 29.886719 C 46.632812 29.886719 45.882812 29.871094 46.003906 30.5 C 46.125 31.128906 46.339844 31.472656 45.925781 31.734375 C 45.742188 31.851562 45.398438 31.878906 45.023438 31.867188 C 45.046875 32.214844 45.011719 32.644531 44.792969 32.976562 C 45.273438 32.960938 45.746094 32.921875 46.003906 32.828125 C 46.527344 32.644531 46.851562 32.433594 46.941406 31.925781 C 47.015625 31.488281 46.636719 30.421875 46.839844 30.308594 C 47.871094 30.171875 47.890625 29.554688 47.980469 29.535156 C 48.449219 29.433594 48.75 29.300781 48.933594 28.78125 C 49.074219 28.625 50.183594 27.992188 50.164062 27.9375 C 50.152344 27.902344 49.8125 27.972656 49.804688 27.957031 "/><g clip-rule="nonzero" clip-path="url(#a7604dfab5)"><path style=" stroke:none;fill-rule:nonzero;fill:#6dc17b;fill-opacity:1;" d="M 53.121094 42.019531 C 53.140625 41.96875 52.03125 41.335938 51.890625 41.179688 C 51.707031 40.660156 51.40625 40.527344 50.9375 40.425781 C 50.847656 40.40625 50.828125 39.789062 49.796875 39.652344 C 49.59375 39.539062 49.972656 38.472656 49.898438 38.035156 C 49.808594 37.527344 49.484375 37.316406 48.960938 37.132812 C 48.515625 36.972656 47.398438 36.96875 46.769531 36.980469 C 46.878906 37.328125 46.996094 37.730469 47.117188 38.183594 C 47.734375 38.089844 48.558594 38.019531 48.882812 38.226562 C 49.296875 38.488281 49.082031 38.832031 48.960938 39.460938 C 48.839844 40.089844 49.589844 40.074219 49.589844 40.074219 C 50.097656 40.789062 50.589844 40.601562 50.738281 40.71875 C 50.835938 40.792969 50.910156 41.324219 51.691406 41.441406 C 51.929688 41.554688 52.84375 42.359375 52.890625 42.339844 C 52.921875 42.328125 52.746094 42.015625 52.761719 42 C 52.769531 41.988281 53.109375 42.054688 53.121094 42.019531 "/></g><g clip-rule="nonzero" clip-path="url(#bac3f33486)"><path style=" stroke:none;fill-rule:nonzero;fill:#6dc17b;fill-opacity:1;" d="M 50.171875 49.8125 C 49.984375 49.441406 48.871094 48.378906 48.121094 47.6875 C 48.074219 48.074219 48.007812 48.457031 47.917969 48.816406 C 47.894531 48.917969 47.867188 49.019531 47.839844 49.121094 C 48.359375 49.464844 49.25 50.105469 49.359375 50.550781 C 49.480469 51.027344 49.085938 51.128906 48.566406 51.503906 C 48.046875 51.875 48.601562 52.378906 48.601562 52.378906 C 48.476562 53.25 48.964844 53.449219 48.992188 53.636719 C 49.007812 53.757812 48.695312 54.195312 49.183594 54.816406 C 49.277344 55.066406 49.386719 56.277344 49.433594 56.296875 C 49.464844 56.308594 49.550781 55.960938 49.570312 55.960938 C 49.589844 55.957031 49.789062 56.238281 49.820312 56.222656 C 49.871094 56.199219 49.503906 54.976562 49.507812 54.765625 C 49.734375 54.261719 49.605469 53.957031 49.335938 53.5625 C 49.285156 53.488281 49.695312 53.023438 49.042969 52.214844 C 48.972656 51.992188 49.980469 51.484375 50.226562 51.113281 C 50.511719 50.683594 50.425781 50.308594 50.171875 49.8125 "/></g><g clip-rule="nonzero" clip-path="url(#e86ef0fcc1)"><path style=" stroke:none;fill-rule:nonzero;fill:#6dc17b;fill-opacity:1;" d="M 37.355469 26.1875 C 37.476562 25.960938 37.648438 25.773438 37.855469 25.621094 C 37.605469 25.261719 37.136719 25.425781 36.226562 24.429688 C 35.757812 23.914062 35.585938 23.742188 35.316406 23.445312 C 35.117188 23.21875 34.929688 23.03125 34.878906 22.851562 C 34.855469 22.761719 34.871094 22.660156 34.808594 22.582031 C 34.695312 22.433594 34.496094 22.398438 34.363281 22.5 C 34.226562 22.601562 34.210938 22.804688 34.320312 22.953125 C 34.386719 23.039062 34.492188 23.050781 34.578125 23.089844 C 34.800781 23.191406 34.976562 23.410156 35.144531 23.59375 C 35.582031 24.078125 36.089844 24.726562 36.308594 25 C 36.703125 25.492188 36.929688 25.703125 37.355469 26.1875 "/></g><g clip-rule="nonzero" clip-path="url(#7deaca8aad)"><path style=" stroke:none;fill-rule:nonzero;fill:#6dc17b;fill-opacity:1;" d="M 44.339844 22.5 C 44.207031 22.398438 44.007812 22.433594 43.894531 22.582031 C 43.832031 22.660156 43.847656 22.761719 43.824219 22.851562 C 43.773438 23.03125 43.585938 23.21875 43.386719 23.445312 C 43.117188 23.742188 42.945312 23.914062 42.476562 24.429688 C 41.574219 25.417969 41.105469 25.265625 40.851562 25.613281 C 41.058594 25.765625 41.230469 25.957031 41.347656 26.183594 C 41.777344 25.703125 42 25.492188 42.394531 25 C 42.613281 24.726562 43.121094 24.078125 43.558594 23.59375 C 43.726562 23.410156 43.902344 23.191406 44.125 23.089844 C 44.210938 23.050781 44.316406 23.039062 44.382812 22.953125 C 44.492188 22.804688 44.476562 22.601562 44.339844 22.5 "/></g><g clip-rule="nonzero" clip-path="url(#63346c338e)"><path style=" stroke:none;fill-rule:evenodd;fill:#6dc17b;fill-opacity:1;" d="M 24.203125 33.339844 C 24.496094 32.691406 24.738281 31.875 24.855469 30.929688 C 24.867188 30.839844 24.792969 30.703125 24.703125 30.703125 C 24.621094 30.703125 24.636719 30.851562 24.625 30.929688 C 24.613281 31.03125 24.636719 31.132812 24.625 31.234375 C 24.5625 32.007812 24.386719 32.695312 24.140625 33.304688 C 24.050781 33.261719 23.953125 33.238281 23.847656 33.238281 C 23.726562 33.238281 23.617188 33.269531 23.519531 33.324219 C 24.296875 30.546875 24.230469 28.449219 23.945312 26.566406 C 23.578125 24.136719 22.828125 26.046875 22.242188 27.019531 C 22.027344 27.378906 21.734375 27.671875 21.410156 27.9375 C 20.984375 26.519531 20.550781 25.300781 20.101562 24.511719 C 18.894531 22.371094 18.871094 24.480469 18.722656 25.609375 C 18.417969 27.875 15.273438 29.34375 17.910156 32.679688 C 15.195312 31.386719 12.28125 35.253906 12.488281 36.886719 C 12.699219 38.570312 17.023438 38.390625 21.257812 36.09375 C 21.199219 36.214844 21.136719 36.328125 21.054688 36.433594 C 20.578125 37.015625 19.746094 37.386719 19.257812 37.960938 C 18.765625 38.542969 19.46875 38.765625 19.902344 38.398438 C 20.53125 37.863281 20.941406 37.105469 21.585938 36.582031 C 21.9375 36.296875 22.515625 36.28125 22.90625 36.050781 C 23.195312 35.882812 23.441406 35.632812 23.636719 35.238281 C 23.746094 35.019531 23.78125 34.785156 23.792969 34.566406 C 23.8125 34.566406 23.828125 34.566406 23.847656 34.566406 C 24.214844 34.566406 24.511719 34.269531 24.511719 33.902344 C 24.511719 33.789062 24.484375 33.683594 24.433594 33.589844 C 24.761719 33.019531 25.0625 32.320312 25.277344 31.507812 C 25.300781 31.417969 25.246094 31.273438 25.15625 31.261719 C 25.078125 31.25 25.074219 31.398438 25.050781 31.476562 C 25.023438 31.574219 25.03125 31.679688 25.007812 31.777344 C 24.863281 32.425781 24.648438 33 24.382812 33.511719 C 24.335938 33.441406 24.273438 33.382812 24.203125 33.339844 Z M 24.203125 33.339844 "/></g><g clip-rule="nonzero" clip-path="url(#73cabf1f9d)"><g clip-rule="nonzero" clip-path="url(#c92f91d642)"><g clip-rule="nonzero" clip-path="url(#4c23613506)"><g clip-rule="nonzero" clip-path="url(#a303657f24)"><path style=" stroke:none;fill-rule:nonzero;fill:#6dc17b;fill-opacity:1;" d="M 63.101562 43.386719 C 63.101562 43.386719 63.070312 43.464844 63.007812 43.496094 C 63.007812 43.496094 63.144531 44.046875 63.191406 44.597656 C 63.238281 45.152344 63.316406 46.425781 63.269531 46.695312 C 63.269531 46.695312 63.566406 48.566406 63.613281 48.851562 C 63.65625 49.132812 63.804688 50.191406 63.746094 50.746094 C 63.691406 51.300781 63.425781 51.632812 63.308594 51.703125 C 63.1875 51.777344 62.882812 51.855469 62.648438 51.703125 C 62.414062 51.546875 62.007812 51.136719 61.75 50.429688 C 61.488281 49.722656 61.140625 48.511719 61.136719 48.097656 C 61.128906 47.683594 61.050781 46.097656 61.761719 44.90625 C 62.472656 43.71875 62.691406 43.503906 62.691406 43.503906 L 62.585938 43.464844 C 62.585938 43.464844 61.953125 43.824219 61.726562 43.835938 C 61.726562 43.835938 58.257812 45.535156 58.136719 45.59375 C 58.015625 45.652344 55.210938 47.15625 54.875 47.144531 C 54.875 47.144531 54.679688 47.207031 54.546875 47.25 C 54.515625 47.261719 54.492188 47.226562 54.511719 47.203125 C 54.535156 47.167969 54.5625 47.140625 54.558594 47.128906 C 54.554688 47.113281 54.546875 47.089844 54.539062 47.074219 C 54.535156 47.066406 54.53125 47.0625 54.523438 47.0625 L 54.449219 47.046875 C 54.414062 47.042969 54.40625 47 54.4375 46.984375 C 54.542969 46.929688 54.703125 46.847656 54.71875 46.824219 C 54.742188 46.792969 54.792969 46.742188 55.046875 46.621094 C 55.304688 46.5 56.195312 46.097656 56.371094 46.023438 C 56.546875 45.953125 57.945312 45.238281 58.054688 45.207031 C 58.164062 45.171875 60.136719 44.222656 60.136719 44.222656 C 60.136719 44.222656 61.550781 43.589844 61.582031 43.550781 C 61.609375 43.511719 61.6875 43.410156 61.957031 43.28125 C 62.226562 43.15625 62.40625 43.117188 62.40625 43.117188 L 62.4375 42.988281 C 62.4375 42.988281 61.527344 43.003906 60.933594 42.914062 C 60.339844 42.824219 59.351562 42.554688 59.136719 42.410156 C 58.921875 42.265625 56.949219 41.359375 56.011719 39.203125 C 55.074219 37.046875 56.828125 37.691406 57.074219 37.839844 C 57.320312 37.992188 57.976562 38.464844 58.222656 38.710938 C 58.464844 38.953125 60.070312 40.546875 60.136719 40.59375 C 60.199219 40.640625 60.84375 41.117188 60.96875 41.214844 C 61.09375 41.3125 62.492188 42.421875 62.664062 42.800781 L 62.816406 42.789062 C 62.816406 42.789062 62.808594 42.660156 62.90625 42.628906 C 62.90625 42.628906 62.769531 42.53125 62.460938 42.136719 C 62.152344 41.742188 60.558594 39.660156 60.390625 38.605469 C 60.226562 37.546875 60.027344 36.476562 60.339844 35.398438 C 60.652344 34.320312 61 34.335938 61.097656 34.316406 C 61.195312 34.292969 61.640625 34.410156 61.914062 34.988281 C 62.183594 35.5625 62.351562 36.320312 62.386719 36.59375 C 62.421875 36.867188 62.714844 38.949219 62.652344 39.199219 C 62.652344 39.199219 62.8125 39.625 63 40.441406 C 63.191406 41.261719 63.191406 42.554688 63.191406 42.554688 C 63.191406 42.554688 63.21875 42.507812 63.328125 42.464844 C 63.441406 42.417969 63.761719 42.460938 63.761719 42.460938 C 63.761719 42.460938 63.738281 42.355469 63.707031 42.335938 C 63.652344 42.300781 63.585938 42.121094 63.722656 42.011719 C 63.800781 41.945312 63.902344 41.894531 64.003906 41.929688 C 64.054688 41.945312 64.230469 42.019531 64.234375 42.230469 C 64.234375 42.246094 64.234375 42.257812 64.238281 42.273438 C 64.296875 42.234375 64.347656 42.183594 64.398438 42.128906 C 64.460938 42.0625 64.515625 41.984375 64.566406 41.90625 C 64.519531 41.988281 64.46875 42.066406 64.410156 42.140625 C 64.382812 42.179688 64.351562 42.214844 64.316406 42.25 C 64.292969 42.269531 64.269531 42.292969 64.242188 42.3125 C 64.242188 42.332031 64.246094 42.355469 64.246094 42.375 C 64.246094 42.375 64.359375 42.496094 64.359375 42.613281 C 64.359375 42.613281 64.390625 42.644531 64.425781 42.691406 C 64.445312 42.6875 64.464844 42.683594 64.484375 42.683594 C 64.53125 42.679688 64.574219 42.683594 64.621094 42.691406 C 64.710938 42.703125 64.796875 42.726562 64.878906 42.757812 C 64.792969 42.734375 64.707031 42.714844 64.617188 42.710938 C 64.574219 42.707031 64.53125 42.707031 64.488281 42.710938 C 64.472656 42.714844 64.460938 42.714844 64.449219 42.71875 C 64.472656 42.75 64.496094 42.785156 64.511719 42.820312 C 64.554688 42.914062 64.566406 42.996094 64.507812 43.09375 C 64.449219 43.191406 64.375 43.210938 64.332031 43.226562 C 64.285156 43.242188 64.132812 43.234375 64.074219 43.167969 C 64.015625 43.101562 64.007812 42.960938 64.007812 42.960938 C 64.007812 42.960938 63.964844 42.910156 63.957031 42.898438 C 63.949219 42.890625 63.789062 43.113281 63.652344 43.175781 C 63.59375 43.203125 63.515625 43.210938 63.515625 43.210938 C 63.515625 43.210938 63.90625 43.589844 64.003906 43.675781 C 64.101562 43.765625 65.476562 45.488281 65.5625 45.855469 C 65.5625 45.855469 66.636719 47.054688 67.148438 47.675781 C 67.65625 48.292969 68.015625 48.824219 68.1875 49.34375 C 68.363281 49.863281 68.230469 50.199219 68.113281 50.277344 C 67.949219 50.382812 67.65625 50.65625 66.628906 49.96875 C 65.601562 49.277344 64.757812 48.367188 64.363281 47.644531 C 63.96875 46.925781 63.8125 46.554688 63.617188 45.59375 C 63.421875 44.632812 63.363281 44.429688 63.316406 44.179688 C 63.273438 43.929688 63.257812 43.410156 63.257812 43.410156 C 63.257812 43.410156 63.136719 43.464844 63.101562 43.386719 "/></g></g></g></g></g></svg>