<svg xmlns="http://www.w3.org/2000/svg" xmlns:xlink="http://www.w3.org/1999/xlink" width="106" zoomAndPan="magnify" viewBox="0 0 79.5 79.499996" height="106" preserveAspectRatio="xMidYMid meet" version="1.2"><defs><clipPath id="1a2f7ad655"><path d="M 0 0 L 78.792969 0 L 78.792969 78.792969 L 0 78.792969 Z M 0 0 "/></clipPath><clipPath id="56b0877e18"><path d="M 39.398438 0 C 17.636719 0 0 17.636719 0 39.398438 C 0 61.15625 17.636719 78.792969 39.398438 78.792969 C 61.15625 78.792969 78.792969 61.15625 78.792969 39.398438 C 78.792969 17.636719 61.15625 0 39.398438 0 Z M 39.398438 0 "/></clipPath><clipPath id="bd69beedeb"><path d="M 20 44 L 38 44 L 38 61 L 20 61 Z M 20 44 "/></clipPath><clipPath id="d22849c026"><path d="M 37.238281 29.878906 L 41.878906 58.789062 L 19.59375 62.367188 L 14.953125 33.453125 Z M 37.238281 29.878906 "/></clipPath><clipPath id="a293dd0dfd"><path d="M 37.238281 29.878906 L 41.878906 58.789062 L 19.59375 62.367188 L 14.953125 33.453125 Z M 37.238281 29.878906 "/></clipPath><clipPath id="8fea3ffaec"><path d="M 18 37 L 39 37 L 39 51 L 18 51 Z M 18 37 "/></clipPath><clipPath id="7205ef7fe3"><path d="M 37.238281 29.878906 L 41.878906 58.789062 L 19.59375 62.367188 L 14.953125 33.453125 Z M 37.238281 29.878906 "/></clipPath><clipPath id="6aea58ed39"><path d="M 37.238281 29.878906 L 41.878906 58.789062 L 19.59375 62.367188 L 14.953125 33.453125 Z M 37.238281 29.878906 "/></clipPath><clipPath id="be47c06cef"><path d="M 16 31 L 36 31 L 36 50 L 16 50 Z M 16 31 "/></clipPath><clipPath id="3a8cf52694"><path d="M 37.238281 29.878906 L 41.878906 58.789062 L 19.59375 62.367188 L 14.953125 33.453125 Z M 37.238281 29.878906 "/></clipPath><clipPath id="2869af1828"><path d="M 37.238281 29.878906 L 41.878906 58.789062 L 19.59375 62.367188 L 14.953125 33.453125 Z M 37.238281 29.878906 "/></clipPath><clipPath id="622f492f0b"><path d="M 21 45 L 41 45 L 41 61 L 21 61 Z M 21 45 "/></clipPath><clipPath id="b093030910"><path d="M 37.238281 29.878906 L 41.878906 58.789062 L 19.59375 62.367188 L 14.953125 33.453125 Z M 37.238281 29.878906 "/></clipPath><clipPath id="2faf33d480"><path d="M 37.238281 29.878906 L 41.878906 58.789062 L 19.59375 62.367188 L 14.953125 33.453125 Z M 37.238281 29.878906 "/></clipPath><clipPath id="1b29d12036"><path d="M 21 31 L 31 31 L 31 46 L 21 46 Z M 21 31 "/></clipPath><clipPath id="0c6deef8c5"><path d="M 37.238281 29.878906 L 41.878906 58.789062 L 19.59375 62.367188 L 14.953125 33.453125 Z M 37.238281 29.878906 "/></clipPath><clipPath id="f3fbf7e645"><path d="M 37.238281 29.878906 L 41.878906 58.789062 L 19.59375 62.367188 L 14.953125 33.453125 Z M 37.238281 29.878906 "/></clipPath><clipPath id="c8b073464f"><path d="M 30 36 L 36 36 L 36 48 L 30 48 Z M 30 36 "/></clipPath><clipPath id="7048dd4606"><path d="M 37.238281 29.878906 L 41.878906 58.789062 L 19.59375 62.367188 L 14.953125 33.453125 Z M 37.238281 29.878906 "/></clipPath><clipPath id="ba63c955a0"><path d="M 37.238281 29.878906 L 41.878906 58.789062 L 19.59375 62.367188 L 14.953125 33.453125 Z M 37.238281 29.878906 "/></clipPath><clipPath id="51b6cfb19c"><path d="M 21 39 L 27 39 L 27 47 L 21 47 Z M 21 39 "/></clipPath><clipPath id="731b967fce"><path d="M 37.238281 29.878906 L 41.878906 58.789062 L 19.59375 62.367188 L 14.953125 33.453125 Z M 37.238281 29.878906 "/></clipPath><clipPath id="86e174820a"><path d="M 37.238281 29.878906 L 41.878906 58.789062 L 19.59375 62.367188 L 14.953125 33.453125 Z M 37.238281 29.878906 "/></clipPath><clipPath id="403b5e93d3"><path d="M 16 42 L 24 42 L 24 47 L 16 47 Z M 16 42 "/></clipPath><clipPath id="8cf46f0243"><path d="M 37.238281 29.878906 L 41.878906 58.789062 L 19.59375 62.367188 L 14.953125 33.453125 Z M 37.238281 29.878906 "/></clipPath><clipPath id="81f2506683"><path d="M 37.238281 29.878906 L 41.878906 58.789062 L 19.59375 62.367188 L 14.953125 33.453125 Z M 37.238281 29.878906 "/></clipPath><clipPath id="0a75e1de49"><path d="M 29 51 L 36 51 L 36 56 L 29 56 Z M 29 51 "/></clipPath><clipPath id="624697a7b4"><path d="M 37.238281 29.878906 L 41.878906 58.789062 L 19.59375 62.367188 L 14.953125 33.453125 Z M 37.238281 29.878906 "/></clipPath><clipPath id="420c3c46a3"><path d="M 37.238281 29.878906 L 41.878906 58.789062 L 19.59375 62.367188 L 14.953125 33.453125 Z M 37.238281 29.878906 "/></clipPath><clipPath id="0d550aa0e2"><path d="M 29 58 L 31 58 L 31 61 L 29 61 Z M 29 58 "/></clipPath><clipPath id="ade134c679"><path d="M 37.238281 29.878906 L 41.878906 58.789062 L 19.59375 62.367188 L 14.953125 33.453125 Z M 37.238281 29.878906 "/></clipPath><clipPath id="779e7a596e"><path d="M 37.238281 29.878906 L 41.878906 58.789062 L 19.59375 62.367188 L 14.953125 33.453125 Z M 37.238281 29.878906 "/></clipPath><clipPath id="1e83d8c4fa"><path d="M 22 50 L 26 50 L 26 54 L 22 54 Z M 22 50 "/></clipPath><clipPath id="8efada6412"><path d="M 37.238281 29.878906 L 41.878906 58.789062 L 19.59375 62.367188 L 14.953125 33.453125 Z M 37.238281 29.878906 "/></clipPath><clipPath id="cf78cd3809"><path d="M 37.238281 29.878906 L 41.878906 58.789062 L 19.59375 62.367188 L 14.953125 33.453125 Z M 37.238281 29.878906 "/></clipPath><clipPath id="0b06752b10"><path d="M 29 47 L 40 47 L 40 54 L 29 54 Z M 29 47 "/></clipPath><clipPath id="d1f5dcd262"><path d="M 37.238281 29.878906 L 41.878906 58.789062 L 19.59375 62.367188 L 14.953125 33.453125 Z M 37.238281 29.878906 "/></clipPath><clipPath id="7461c0c4aa"><path d="M 37.238281 29.878906 L 41.878906 58.789062 L 19.59375 62.367188 L 14.953125 33.453125 Z M 37.238281 29.878906 "/></clipPath><clipPath id="b487d54354"><path d="M 25 54 L 29 54 L 29 57 L 25 57 Z M 25 54 "/></clipPath><clipPath id="01f3d8d0f2"><path d="M 37.238281 29.878906 L 41.878906 58.789062 L 19.59375 62.367188 L 14.953125 33.453125 Z M 37.238281 29.878906 "/></clipPath><clipPath id="f479188048"><path d="M 37.238281 29.878906 L 41.878906 58.789062 L 19.59375 62.367188 L 14.953125 33.453125 Z M 37.238281 29.878906 "/></clipPath><clipPath id="fae76f72d0"><path d="M 25 56 L 27 56 L 27 60 L 25 60 Z M 25 56 "/></clipPath><clipPath id="be106b4440"><path d="M 37.238281 29.878906 L 41.878906 58.789062 L 19.59375 62.367188 L 14.953125 33.453125 Z M 37.238281 29.878906 "/></clipPath><clipPath id="0981def541"><path d="M 37.238281 29.878906 L 41.878906 58.789062 L 19.59375 62.367188 L 14.953125 33.453125 Z M 37.238281 29.878906 "/></clipPath><clipPath id="bab8c8bf27"><path d="M 34 56 L 36 56 L 36 58 L 34 58 Z M 34 56 "/></clipPath><clipPath id="1ed00093d3"><path d="M 37.238281 29.878906 L 41.878906 58.789062 L 19.59375 62.367188 L 14.953125 33.453125 Z M 37.238281 29.878906 "/></clipPath><clipPath id="508e0d078b"><path d="M 37.238281 29.878906 L 41.878906 58.789062 L 19.59375 62.367188 L 14.953125 33.453125 Z M 37.238281 29.878906 "/></clipPath><clipPath id="754469c599"><path d="M 29 43 L 31 43 L 31 44 L 29 44 Z M 29 43 "/></clipPath><clipPath id="77ebbb5ae6"><path d="M 37.238281 29.878906 L 41.878906 58.789062 L 19.59375 62.367188 L 14.953125 33.453125 Z M 37.238281 29.878906 "/></clipPath><clipPath id="318f6ec0fa"><path d="M 37.238281 29.878906 L 41.878906 58.789062 L 19.59375 62.367188 L 14.953125 33.453125 Z M 37.238281 29.878906 "/></clipPath><clipPath id="7d71b98751"><path d="M 29 43 L 30 43 L 30 44 L 29 44 Z M 29 43 "/></clipPath><clipPath id="9f773ca30f"><path d="M 37.238281 29.878906 L 41.878906 58.789062 L 19.59375 62.367188 L 14.953125 33.453125 Z M 37.238281 29.878906 "/></clipPath><clipPath id="2bd50c2ddb"><path d="M 37.238281 29.878906 L 41.878906 58.789062 L 19.59375 62.367188 L 14.953125 33.453125 Z M 37.238281 29.878906 "/></clipPath><clipPath id="608e50a2fa"><path d="M 34 49 L 40 49 L 40 52 L 34 52 Z M 34 49 "/></clipPath><clipPath id="4d1b764283"><path d="M 37.238281 29.878906 L 41.878906 58.789062 L 19.59375 62.367188 L 14.953125 33.453125 Z M 37.238281 29.878906 "/></clipPath><clipPath id="616831a226"><path d="M 37.238281 29.878906 L 41.878906 58.789062 L 19.59375 62.367188 L 14.953125 33.453125 Z M 37.238281 29.878906 "/></clipPath><clipPath id="574b2bb67b"><path d="M 26 40 L 39 40 L 39 57 L 26 57 Z M 26 40 "/></clipPath><clipPath id="6ec66a2765"><path d="M 37.238281 29.878906 L 41.878906 58.789062 L 19.59375 62.367188 L 14.953125 33.453125 Z M 37.238281 29.878906 "/></clipPath><clipPath id="95ee7542ee"><path d="M 37.238281 29.878906 L 41.878906 58.789062 L 19.59375 62.367188 L 14.953125 33.453125 Z M 37.238281 29.878906 "/></clipPath><clipPath id="72c0f58e1f"><path d="M 31.308594 18.359375 L 64 18.359375 L 64 50.691406 L 31.308594 50.691406 Z M 31.308594 18.359375 "/></clipPath></defs><g id="440cc7d9d4"><g clip-rule="nonzero" clip-path="url(#1a2f7ad655)"><g clip-rule="nonzero" clip-path="url(#56b0877e18)"><path style=" stroke:none;fill-rule:nonzero;fill:#f5f5f4;fill-opacity:1;" d="M 0 0 L 78.792969 0 L 78.792969 78.792969 L 0 78.792969 Z M 0 0 "/></g></g><g clip-rule="nonzero" clip-path="url(#bd69beedeb)"><g clip-rule="nonzero" clip-path="url(#d22849c026)"><g clip-rule="nonzero" clip-path="url(#a293dd0dfd)"><path style=" stroke:none;fill-rule:nonzero;fill:#6dc17b;fill-opacity:1;" d="M 30.707031 47.59375 C 30.800781 48.273438 31.347656 49.050781 32.144531 49.285156 C 32.894531 49.507812 33.632812 49.570312 34.398438 49.355469 C 34.507812 49.613281 34.351562 49.851562 34.113281 49.949219 C 33.878906 50.042969 33.578125 50.03125 33.292969 50.015625 C 33.863281 50.820312 35.042969 51.371094 35.984375 51.246094 C 36.386719 51.191406 36.707031 50.953125 37.019531 51.382812 C 37.445312 52.820312 34.53125 51.753906 33.917969 51.523438 C 34.035156 52.15625 35.328125 52.410156 35.527344 53.082031 C 35.285156 53.496094 34.449219 53.167969 33.980469 52.726562 C 33.523438 52.296875 33.171875 51.753906 32.636719 51.503906 C 32.511719 51.445312 32.371094 51.40625 32.257812 51.4375 C 32.160156 51.46875 31.664062 51.472656 31.632812 51.566406 C 31.496094 51.96875 32.777344 52.179688 32.960938 52.683594 C 32.601562 53.230469 33.472656 53.480469 33.261719 53.738281 C 33.164062 53.855469 32.921875 53.769531 32.769531 53.632812 C 32.621094 53.496094 32.519531 53.320312 32.375 53.183594 C 31.953125 52.773438 31.238281 52.941406 31.253906 53.4375 C 31.273438 53.941406 32.03125 54.460938 32.433594 54.230469 C 32.710938 53.753906 33.21875 54.761719 33.058594 54.921875 C 32.898438 55.078125 32.335938 55.28125 32.089844 55.824219 C 31.714844 56.480469 31.421875 57.21875 31.242188 54.878906 C 31.214844 54.507812 30.636719 54.332031 30.425781 54.429688 C 30.054688 54.601562 29.949219 55.09375 30.003906 55.574219 C 30.058594 56.0625 30.246094 56.574219 30.34375 57.085938 C 30.390625 57.335938 30.414062 57.601562 30.308594 57.78125 C 30.199219 57.960938 29.925781 58.007812 29.726562 57.816406 C 29.339844 57.4375 29.605469 56.613281 29.160156 56.457031 C 28.832031 56.34375 28.8125 56.851562 28.796875 57.199219 C 28.773438 57.671875 28.488281 58.042969 28.082031 58.125 C 28.15625 57.734375 28.230469 57.34375 28.304688 56.957031 C 28.320312 56.875 28.335938 56.785156 28.296875 56.695312 C 28.210938 56.476562 27.917969 56.46875 27.8125 56.625 C 27.710938 56.777344 27.710938 57.011719 27.640625 57.191406 C 27.566406 57.375 27.34375 57.492188 27.179688 57.320312 C 27.164062 56.773438 27.550781 56.441406 27.9375 56.222656 C 28.328125 56 28.769531 55.804688 28.9375 55.355469 C 29.183594 54.695312 28.730469 53.765625 28.984375 53.144531 C 29.066406 52.945312 29.214844 52.785156 29.226562 52.558594 C 29.238281 52.335938 28.996094 52.035156 28.800781 52.109375 C 28.726562 52.136719 28.6875 52.214844 28.65625 52.285156 C 28.394531 52.851562 28.261719 53.523438 27.859375 53.984375 C 27.542969 54.347656 27.078125 54.554688 26.824219 54.976562 C 26.628906 55.304688 26.574219 55.738281 26.523438 56.164062 C 26.40625 57.121094 26.285156 58.105469 26.160156 59.117188 C 26.109375 59.542969 26.003906 60.035156 25.652344 60.082031 C 25.519531 59.816406 25.550781 59.527344 25.601562 59.28125 C 25.652344 59.039062 25.714844 58.78125 25.640625 58.515625 C 25.566406 58.25 25.28125 58.007812 25.125 58.136719 C 24.988281 58.25 25.007812 58.570312 24.835938 58.609375 C 24.839844 58.300781 24.863281 58 24.902344 57.710938 C 24.621094 57.917969 24.296875 58.058594 23.953125 58.113281 C 23.957031 57.609375 24.371094 57.371094 24.761719 57.277344 C 25.152344 57.183594 25.605469 57.125 25.804688 56.738281 C 25.941406 56.46875 25.921875 56.113281 25.957031 55.789062 C 26.117188 54.363281 27.398438 53.675781 27.90625 52.484375 C 28.007812 52.25 28.078125 51.984375 28.011719 51.707031 C 27.945312 51.4375 27.714844 51.164062 27.449219 51.128906 C 27.3125 51.109375 27.183594 51.160156 27.066406 51.210938 C 26.171875 51.601562 25.414062 52.304688 24.4375 52.351562 C 24.019531 52.371094 23.574219 52.273438 23.222656 52.46875 C 22.914062 52.640625 22.742188 53.015625 22.628906 53.394531 C 22.503906 53.820312 22.433594 54.292969 22.519531 54.773438 C 22.605469 55.261719 22.882812 55.769531 23.285156 56.003906 C 23.125 56.1875 22.488281 55.824219 22.453125 56.238281 C 22.847656 57.015625 23 57.480469 23.1875 58.171875 C 23.234375 58.34375 23.285156 58.53125 23.253906 58.695312 C 23.222656 58.859375 23.078125 58.976562 22.945312 58.882812 C 22.867188 58.109375 22.664062 57.8125 22.214844 57.246094 C 21.953125 57.195312 21.734375 57.351562 21.667969 57.726562 C 21.554688 57.050781 21.683594 56.371094 22.007812 55.921875 C 21.660156 56.09375 21.515625 56.042969 21.367188 55.964844 C 21.5625 55.390625 21.847656 54.503906 21.851562 53.882812 C 21.855469 53.617188 21.839844 53.339844 21.925781 53.105469 C 22.089844 52.652344 22.585938 52.496094 22.816406 52.089844 C 22.445312 52.023438 22.078125 51.960938 21.71875 51.898438 C 21.667969 51.886719 21.609375 51.875 21.578125 51.824219 C 21.550781 51.777344 21.3125 51.40625 21.320312 51.355469 C 21.347656 51.1875 21.945312 51.273438 22.082031 51.34375 C 21.78125 51.039062 21.847656 50.394531 22.210938 50.269531 C 22.796875 50.070312 22.320312 50.773438 22.414062 50.992188 C 22.582031 51.378906 23.039062 51.679688 23.421875 51.789062 C 23.878906 51.921875 24.367188 51.839844 24.730469 51.566406 C 25.144531 51.257812 25.390625 50.734375 25.859375 50.519531 C 26.488281 50.230469 27.359375 50.566406 28.011719 50.277344 C 28.296875 50.152344 28.503906 49.921875 28.691406 49.6875 C 29.046875 49.230469 29.34375 48.632812 29.078125 48.050781 C 28.976562 47.832031 28.808594 47.644531 28.625 47.480469 C 28.15625 47.054688 27.507812 46.746094 26.964844 46.902344 C 26.351562 47.082031 26.078125 47.785156 25.476562 47.980469 C 25.042969 48.121094 24.558594 47.953125 24.109375 47.933594 C 23.984375 47.925781 23.859375 47.933594 23.761719 48.003906 C 23.585938 48.132812 23.597656 48.40625 23.628906 48.640625 C 23.683594 49.070312 23.703125 50.074219 23.441406 49.429688 C 23.371094 49.257812 23.121094 49.289062 22.957031 49.335938 C 22.796875 49.378906 22.636719 49.460938 22.46875 49.433594 C 22.304688 49.410156 22.140625 49.21875 22.210938 49.0625 C 22.507812 49.195312 23.195312 48.398438 23.105469 48.289062 C 23.011719 48.179688 22.851562 48.097656 22.839844 47.960938 C 22.761719 47.09375 23.019531 47.847656 23.203125 47.867188 C 23.410156 47.5 23.921875 47.511719 24.355469 47.515625 C 24.792969 47.523438 25.347656 47.375 25.363281 46.941406 C 24.847656 46.851562 24.3125 47.199219 23.855469 46.964844 C 23.621094 46.84375 23.484375 46.59375 23.28125 46.4375 C 22.972656 46.199219 22.554688 46.199219 22.179688 46.242188 C 21.8125 46.285156 21.496094 46.460938 21.152344 46.359375 C 20.808594 46.261719 20.359375 46.234375 20.464844 45.882812 C 20.863281 45.945312 21.152344 46.359375 21.347656 45.433594 C 21.46875 45.875 22.308594 45.683594 22.378906 45.746094 C 22.570312 45.917969 22.871094 45.839844 23.132812 45.878906 C 23.457031 45.921875 23.722656 46.144531 24.023438 46.300781 C 24.324219 46.457031 24.742188 46.53125 24.976562 46.296875 C 24.707031 45.96875 24.65625 45.542969 24.519531 45.167969 C 24.386719 44.796875 24.074219 44.429688 23.679688 44.464844 C 23.925781 44.28125 24.289062 44.628906 24.585938 44.523438 C 24.703125 44.480469 24.777344 44.378906 24.878906 44.3125 C 24.980469 44.242188 25.148438 44.222656 25.214844 44.320312 C 25.023438 44.464844 25.039062 44.734375 25.070312 44.96875 C 25.097656 45.171875 25.125 45.378906 25.15625 45.585938 C 25.207031 45.960938 25.28125 46.378906 25.589844 46.648438 C 25.660156 46.707031 25.742188 46.757812 25.832031 46.773438 C 26.011719 46.800781 26.164062 46.6875 26.308594 46.59375 C 26.84375 46.230469 27.636719 46.074219 28.28125 46.429688 C 28.539062 46.574219 28.792969 46.800781 29.085938 46.792969 C 29.375 46.789062 29.554688 46.5625 29.742188 46.386719 C 29.894531 46.246094 30.699219 45.652344 30.96875 45.945312 C 31.082031 46.066406 30.667969 47.308594 30.707031 47.59375 "/></g></g></g><g clip-rule="nonzero" clip-path="url(#8fea3ffaec)"><g clip-rule="nonzero" clip-path="url(#7205ef7fe3)"><g clip-rule="nonzero" clip-path="url(#6aea58ed39)"><path style=" stroke:none;fill-rule:nonzero;fill:#6dc17b;fill-opacity:1;" d="M 25.816406 50.820312 C 25.816406 50.820312 29.328125 50.097656 28.886719 47.863281 C 28.445312 45.628906 27.410156 44.839844 26.675781 44.925781 C 26.675781 44.925781 25.800781 43.683594 24.832031 44.171875 C 23.972656 44.601562 23.464844 44.675781 23.160156 44.609375 L 22.015625 44.167969 C 21.738281 44.050781 21.570312 44.207031 21.5 44.242188 C 20.472656 44.761719 19.355469 44.824219 19.085938 44.667969 C 18.746094 44.46875 19.253906 44.21875 19.253906 44.21875 C 19.253906 44.21875 20.691406 44.105469 20.597656 43.574219 C 20.597656 43.574219 20.667969 42.582031 19.574219 42.390625 C 18.730469 42.246094 18.890625 41.808594 18.890625 41.808594 C 18.890625 41.808594 19.433594 42.058594 19.570312 41.847656 C 19.707031 41.632812 19.644531 40.710938 19.644531 40.710938 C 19.644531 40.710938 20.089844 40.957031 20.417969 41.652344 C 20.742188 42.339844 23.558594 43.128906 24.53125 42.773438 C 25.300781 42.496094 23.503906 40.542969 21.839844 39.855469 C 21.394531 39.671875 21.023438 39.8125 20.582031 39.632812 C 20.582031 39.632812 20.515625 39.226562 21.964844 39.078125 C 22.363281 39.039062 21.609375 38.105469 21.609375 38.105469 C 21.609375 38.105469 21.59375 37.558594 21.886719 37.386719 C 21.886719 37.386719 21.761719 37.625 22.15625 37.917969 C 22.546875 38.210938 22.734375 38.453125 23.277344 39.007812 C 23.824219 39.5625 24.050781 39.949219 24.015625 39.445312 C 23.984375 38.941406 23.257812 38.371094 23.019531 38.296875 C 22.617188 38.171875 22.808594 38.058594 22.808594 38.058594 C 22.808594 38.058594 23.246094 38.097656 23.25 37.714844 C 23.257812 37.261719 23.625 37.445312 23.625 37.445312 C 23.625 37.445312 23.628906 37.96875 24.257812 38.515625 C 24.886719 39.066406 25.433594 39.621094 25.410156 40.027344 C 25.386719 40.433594 25.535156 41.132812 26 41.253906 C 26.464844 41.375 26.945312 42.585938 27.046875 42.878906 C 27.144531 43.171875 28.90625 44.703125 29.503906 43.785156 C 30.097656 42.863281 30.199219 41.40625 29.136719 40.9375 C 28.074219 40.46875 25.675781 39.957031 25.484375 39.414062 C 25.296875 38.867188 27.425781 40.109375 27.699219 39.683594 C 27.976562 39.257812 26.675781 38.261719 26.792969 37.769531 C 26.9375 37.152344 26.738281 37.976562 27.292969 37.953125 C 27.851562 37.933594 28.035156 37.429688 28.035156 37.429688 C 28.035156 37.429688 28.308594 37.96875 28.261719 38.257812 C 28.214844 38.550781 28.179688 39.261719 28.902344 39.5 C 28.902344 39.5 29.359375 40.71875 30.210938 40.304688 C 30.210938 40.304688 30.949219 41.007812 31.808594 40.457031 C 32.667969 39.910156 31.300781 38.21875 32.085938 37.101562 C 32.085938 37.101562 32.367188 37.796875 32.402344 38.472656 C 32.421875 38.878906 32.898438 39.597656 33.5625 39.164062 C 33.820312 38.992188 34.035156 38.824219 34.199219 38.679688 C 34.28125 38.605469 34.402344 38.699219 34.355469 38.800781 C 34.246094 39.019531 34.113281 39.273438 33.972656 39.488281 C 33.652344 39.984375 34 40.128906 34 40.128906 C 34 40.128906 33.058594 40.683594 32.824219 40.734375 C 32.589844 40.785156 31.613281 41.054688 32.007812 41.871094 C 32.402344 42.691406 31.042969 43.578125 31.394531 44.988281 C 31.742188 46.402344 33.769531 45.90625 33.929688 45.289062 C 34.089844 44.667969 33.800781 42.390625 33.121094 42.351562 C 32.824219 42.335938 32.75 42.179688 32.695312 42.027344 C 32.523438 41.539062 32.886719 41.621094 33.101562 41.691406 C 33.574219 41.847656 34.386719 42.21875 34.480469 42.953125 C 34.566406 43.613281 35.789062 42.796875 35.46875 42.109375 C 35.152344 41.417969 35.085938 40.714844 35.261719 40.566406 C 35.4375 40.421875 35.25 41.140625 35.613281 41.015625 C 35.976562 40.890625 35.941406 40.386719 36.238281 40.515625 C 36.535156 40.648438 36.109375 40.8125 36.015625 41.175781 C 35.921875 41.535156 35.785156 43.769531 36.3125 43.535156 C 37.960938 42.808594 38.699219 43.5625 38.097656 43.589844 C 38.097656 43.589844 37.09375 43.753906 37.28125 44.070312 C 37.46875 44.386719 37.640625 44.679688 37.640625 44.679688 C 37.640625 44.679688 36.996094 44.773438 36.730469 44.394531 C 36.460938 44.015625 35.347656 43.753906 35.15625 44.171875 C 34.964844 44.59375 35.589844 46.324219 35.9375 46.46875 C 36.285156 46.613281 36.703125 47.988281 36.453125 48.089844 C 36.207031 48.191406 35.570312 47.777344 35.566406 48.21875 C 35.5625 48.65625 34.476562 48.816406 34.476562 48.816406 C 34.476562 48.816406 35.320312 48.242188 35.074219 47.765625 C 34.898438 47.429688 35.417969 46.996094 35.191406 46.6875 C 34.96875 46.382812 33.632812 46.710938 33.257812 46.554688 C 32.480469 46.222656 30.863281 47.378906 30.679688 48.1875 C 30.496094 48.996094 27.429688 51.632812 25.816406 50.820312 "/></g></g></g><g clip-rule="nonzero" clip-path="url(#be47c06cef)"><g clip-rule="nonzero" clip-path="url(#3a8cf52694)"><g clip-rule="nonzero" clip-path="url(#2869af1828)"><path style=" stroke:none;fill-rule:nonzero;fill:#6dc17b;fill-opacity:1;" d="M 28.59375 47.546875 C 29 46.871094 29.820312 46.378906 30.578125 46.601562 C 31.265625 46.800781 31.867188 47.152344 32.363281 47.78125 C 32.546875 47.585938 32.519531 47.261719 32.378906 47.039062 C 32.234375 46.8125 32.003906 46.660156 31.78125 46.515625 C 32.519531 46.050781 33.574219 46.171875 34.1875 46.789062 C 34.449219 47.050781 34.585938 47.4375 34.9375 47.195312 C 35.664062 46.105469 33.34375 45.539062 32.824219 45.414062 C 33.136719 44.890625 34.125 45.367188 34.484375 44.871094 C 34.457031 44.375 33.777344 44.203125 33.300781 44.339844 C 32.820312 44.476562 32.359375 44.78125 31.867188 44.707031 C 31.746094 44.6875 31.625 44.644531 31.554688 44.550781 C 31.488281 44.464844 31.109375 44.167969 31.121094 44.0625 C 31.179688 43.597656 32.230469 44.15625 32.554688 43.800781 C 32.492188 43.097656 33.207031 43.378906 33.148438 43.03125 C 33.121094 42.875 32.921875 42.808594 32.761719 42.839844 C 32.605469 42.875 32.46875 42.972656 32.3125 43.011719 C 31.84375 43.128906 31.371094 42.550781 31.578125 42.113281 C 31.785156 41.679688 32.535156 41.683594 32.738281 42.121094 C 32.761719 42.695312 33.476562 42.121094 33.417969 41.894531 C 33.363281 41.667969 33.042969 41.164062 33.058594 40.5625 C 33.027344 39.800781 33.082031 39.027344 32.117188 40.847656 C 31.957031 41.148438 31.464844 40.945312 31.34375 40.726562 C 31.132812 40.347656 31.246094 39.859375 31.472656 39.488281 C 31.699219 39.117188 32.027344 38.816406 32.285156 38.464844 C 32.40625 38.296875 32.515625 38.101562 32.507812 37.894531 C 32.496094 37.683594 32.320312 37.472656 32.113281 37.496094 C 31.695312 37.542969 31.578125 38.375 31.191406 38.214844 C 30.902344 38.09375 31.085938 37.667969 31.207031 37.378906 C 31.371094 36.988281 31.304688 36.507812 31.042969 36.175781 C 30.945312 36.53125 30.847656 36.890625 30.746094 37.246094 C 30.726562 37.324219 30.703125 37.40625 30.640625 37.453125 C 30.484375 37.574219 30.257812 37.382812 30.242188 37.1875 C 30.222656 36.992188 30.320312 36.804688 30.339844 36.609375 C 30.359375 36.414062 30.234375 36.171875 30.039062 36.195312 C 29.800781 36.625 29.960938 37.160156 30.171875 37.601562 C 30.378906 38.042969 30.640625 38.5 30.585938 38.988281 C 30.507812 39.710938 29.757812 40.230469 29.691406 40.957031 C 29.671875 41.1875 29.722656 41.433594 29.632812 41.648438 C 29.542969 41.863281 29.210938 41.988281 29.082031 41.792969 C 29.035156 41.71875 29.035156 41.621094 29.042969 41.53125 C 29.082031 40.839844 29.273438 40.140625 29.148438 39.457031 C 29.050781 38.925781 28.765625 38.429688 28.746094 37.890625 C 28.734375 37.472656 28.882812 37.066406 29.03125 36.675781 C 29.351562 35.816406 29.675781 34.953125 29.996094 34.09375 C 30.128906 33.738281 30.25 33.300781 30.003906 33.015625 C 29.796875 33.117188 29.703125 33.351562 29.640625 33.570312 C 29.574219 33.789062 29.519531 34.027344 29.347656 34.179688 C 29.175781 34.328125 28.84375 34.3125 28.773438 34.097656 C 28.714844 33.910156 28.871094 33.679688 28.75 33.523438 C 28.621094 33.761719 28.507812 34.011719 28.40625 34.269531 C 28.273438 33.894531 28.070312 33.546875 27.8125 33.246094 C 27.582031 33.640625 27.816406 34.140625 28.09375 34.503906 C 28.371094 34.867188 28.714844 35.242188 28.703125 35.699219 C 28.695312 36.011719 28.515625 36.292969 28.402344 36.585938 C 27.867188 37.921875 28.628906 39.421875 28.503906 40.855469 C 28.480469 41.140625 28.414062 41.4375 28.226562 41.65625 C 28.039062 41.871094 27.703125 41.984375 27.453125 41.839844 C 27.320312 41.765625 27.230469 41.632812 27.148438 41.503906 C 26.542969 40.503906 26.214844 39.296875 25.328125 38.535156 C 24.941406 38.207031 24.453125 37.960938 24.222656 37.507812 C 24.019531 37.105469 24.070312 36.625 24.183594 36.1875 C 24.304688 35.703125 24.503906 35.226562 24.855469 34.875 C 25.207031 34.523438 25.726562 34.3125 26.210938 34.425781 C 26.164062 34.152344 25.398438 33.957031 25.585938 33.582031 C 26.339844 33.261719 26.703125 33.011719 27.199219 32.617188 C 27.320312 32.519531 27.449219 32.414062 27.5 32.265625 C 27.554688 32.117188 27.488281 31.917969 27.335938 31.882812 C 26.894531 32.414062 26.578125 32.488281 25.898438 32.578125 C 25.632812 32.410156 25.519531 32.109375 25.65625 31.761719 C 25.195312 32.199219 24.949219 32.855469 25.007812 33.488281 C 24.777344 33.066406 24.613281 32.992188 24.429688 32.933594 C 24.289062 33.574219 24.0625 34.570312 23.703125 35.125 C 23.546875 35.367188 23.367188 35.605469 23.3125 35.890625 C 23.203125 36.445312 23.605469 36.984375 23.59375 37.550781 C 23.179688 37.320312 22.765625 37.089844 22.351562 36.863281 C 22.289062 36.828125 22.21875 36.792969 22.15625 36.820312 C 22.097656 36.839844 21.597656 37.007812 21.574219 37.0625 C 21.492188 37.25 22.1875 37.652344 22.378906 37.691406 C 21.863281 37.753906 21.503906 38.457031 21.816406 38.875 C 22.3125 39.542969 22.261719 38.449219 22.503906 38.304688 C 22.921875 38.058594 23.574219 38.121094 24.023438 38.308594 C 24.550781 38.527344 24.976562 38.972656 25.171875 39.507812 C 25.394531 40.109375 25.339844 40.804688 25.667969 41.351562 C 26.105469 42.082031 27.085938 42.335938 27.527344 43.058594 C 27.71875 43.367188 27.789062 43.738281 27.835938 44.097656 C 27.925781 44.796875 27.894531 45.605469 27.355469 46.0625 C 27.152344 46.238281 26.894531 46.335938 26.632812 46.40625 C 25.953125 46.582031 25.136719 46.519531 24.679688 45.984375 C 24.160156 45.371094 24.304688 44.390625 23.808594 43.757812 C 23.445312 43.296875 22.828125 43.136719 22.324219 42.828125 C 22.1875 42.746094 22.050781 42.640625 21.996094 42.492188 C 21.886719 42.214844 22.085938 41.921875 22.273438 41.691406 C 22.609375 41.269531 23.269531 40.234375 22.585938 40.707031 C 22.398438 40.835938 22.148438 40.609375 22.003906 40.433594 C 21.859375 40.261719 21.738281 40.054688 21.539062 39.949219 C 21.335938 39.84375 21.023438 39.917969 20.992188 40.140625 C 21.417969 40.230469 21.640625 41.628906 21.460938 41.679688 C 21.28125 41.730469 21.046875 41.699219 20.933594 41.84375 C 20.222656 42.769531 21.058594 42.105469 21.277344 42.222656 C 21.257812 42.792969 21.839844 43.167969 22.316406 43.476562 C 22.796875 43.785156 23.292969 44.347656 23.035156 44.855469 C 22.414062 44.589844 22.058594 43.804688 21.390625 43.746094 C 21.035156 43.714844 20.703125 43.902344 20.347656 43.9375 C 19.808594 43.988281 19.300781 43.671875 18.878906 43.328125 C 18.457031 42.984375 18.207031 42.523438 17.683594 42.367188 C 17.164062 42.210938 16.554688 41.871094 16.390625 42.390625 C 16.96875 42.640625 17.683594 42.367188 17.167969 43.667969 C 17.691406 43.214844 18.597656 44.113281 18.734375 44.089844 C 19.105469 44.023438 19.417969 44.347656 19.761719 44.5 C 20.175781 44.683594 20.65625 44.613281 21.109375 44.644531 C 21.566406 44.679688 22.085938 44.890625 22.183594 45.335938 C 21.65625 45.535156 21.300781 46.019531 20.875 46.382812 C 20.445312 46.75 19.792969 47.003906 19.335938 46.671875 C 19.5 47.082031 20.203125 46.898438 20.480469 47.242188 C 20.589844 47.375 20.605469 47.558594 20.671875 47.71875 C 20.742188 47.875 20.925781 48.019531 21.074219 47.933594 C 20.953125 47.621094 21.167969 47.285156 21.371094 47.015625 C 21.546875 46.78125 21.722656 46.546875 21.898438 46.3125 C 22.214844 45.894531 22.574219 45.449219 23.085938 45.351562 C 23.199219 45.328125 23.320312 45.328125 23.425781 45.371094 C 23.632812 45.460938 23.722656 45.699219 23.8125 45.902344 C 24.148438 46.6875 24.867188 47.382812 25.71875 47.375 C 26.054688 47.371094 26.421875 47.273438 26.699219 47.460938 C 26.96875 47.640625 27.019531 48.007812 27.101562 48.324219 C 27.167969 48.574219 27.609375 49.730469 28.007812 49.550781 C 28.171875 49.472656 28.417969 47.835938 28.59375 47.546875 "/></g></g></g><g clip-rule="nonzero" clip-path="url(#622f492f0b)"><g clip-rule="nonzero" clip-path="url(#b093030910)"><g clip-rule="nonzero" clip-path="url(#2faf33d480)"><path style=" stroke:none;fill-rule:nonzero;fill:#6dc17b;fill-opacity:1;" d="M 30.078125 45.054688 C 30.078125 45.054688 27.316406 47.339844 28.753906 49.105469 C 30.191406 50.871094 31.476562 51.082031 32.085938 50.664062 C 32.085938 50.664062 33.4375 51.347656 34.066406 50.460938 C 34.621094 49.679688 35.035156 49.378906 35.339844 49.289062 L 36.554688 49.144531 C 36.855469 49.117188 36.929688 48.902344 36.976562 48.835938 C 37.640625 47.894531 38.597656 47.316406 38.90625 47.328125 C 39.300781 47.34375 38.96875 47.804688 38.96875 47.804688 C 38.96875 47.804688 37.753906 48.578125 38.085938 49.003906 C 38.085938 49.003906 38.488281 49.914062 39.546875 49.566406 C 40.359375 49.300781 40.421875 49.761719 40.421875 49.761719 C 40.421875 49.761719 39.828125 49.792969 39.804688 50.046875 C 39.78125 50.296875 40.273438 51.085938 40.273438 51.085938 C 40.273438 51.085938 39.765625 51.078125 39.148438 50.613281 C 38.539062 50.160156 35.679688 50.789062 34.988281 51.558594 C 34.441406 52.164062 36.941406 53.042969 38.734375 52.871094 C 39.214844 52.824219 39.472656 52.523438 39.949219 52.476562 C 39.949219 52.476562 40.199219 52.800781 38.988281 53.613281 C 38.65625 53.835938 39.757812 54.304688 39.757812 54.304688 C 39.757812 54.304688 40.027344 54.78125 39.851562 55.070312 C 39.851562 55.070312 39.847656 54.804688 39.363281 54.730469 C 38.882812 54.652344 38.605469 54.527344 37.863281 54.292969 C 37.121094 54.058594 36.738281 53.824219 37.003906 54.253906 C 37.269531 54.683594 38.179688 54.847656 38.425781 54.800781 C 38.839844 54.722656 38.722656 54.910156 38.722656 54.910156 C 38.722656 54.910156 38.320312 55.082031 38.492188 55.421875 C 38.699219 55.824219 38.289062 55.835938 38.289062 55.835938 C 38.289062 55.835938 38.039062 55.375 37.226562 55.1875 C 36.414062 54.996094 35.671875 54.765625 35.503906 54.394531 C 35.332031 54.023438 34.871094 53.476562 34.40625 53.589844 C 33.9375 53.699219 32.941406 52.855469 32.71875 52.640625 C 32.496094 52.429688 30.21875 51.90625 30.125 52.996094 C 30.03125 54.089844 30.625 55.425781 31.78125 55.339844 C 32.941406 55.253906 35.300781 54.578125 35.722656 54.972656 C 36.144531 55.363281 33.683594 55.269531 33.640625 55.773438 C 33.597656 56.277344 35.214844 56.546875 35.339844 57.035156 C 35.5 57.648438 35.292969 56.828125 34.808594 57.109375 C 34.328125 57.386719 34.402344 57.917969 34.402344 57.917969 C 34.402344 57.917969 33.90625 57.570312 33.8125 57.292969 C 33.71875 57.015625 33.417969 56.371094 32.664062 56.5 C 32.664062 56.5 31.6875 55.636719 31.132812 56.402344 C 31.132812 56.402344 30.148438 56.128906 29.648438 57.015625 C 29.148438 57.902344 31.148438 58.753906 30.980469 60.109375 C 30.980469 60.109375 30.40625 59.628906 30.058594 59.046875 C 29.847656 58.695312 29.089844 58.289062 28.707031 58.984375 C 28.558594 59.253906 28.449219 59.503906 28.375 59.707031 C 28.335938 59.8125 28.183594 59.785156 28.179688 59.675781 C 28.171875 59.433594 28.171875 59.144531 28.191406 58.886719 C 28.242188 58.300781 27.867188 58.335938 27.867188 58.335938 C 27.867188 58.335938 28.441406 57.402344 28.621094 57.25 C 28.804688 57.09375 29.542969 56.398438 28.808594 55.859375 C 28.078125 55.324219 28.863281 53.902344 27.890625 52.820312 C 26.917969 51.738281 25.359375 53.125 25.507812 53.746094 C 25.65625 54.371094 26.984375 56.246094 27.601562 55.960938 C 27.871094 55.832031 28.011719 55.9375 28.128906 56.046875 C 28.511719 56.394531 28.152344 56.496094 27.925781 56.535156 C 27.4375 56.617188 26.546875 56.671875 26.117188 56.066406 C 25.734375 55.523438 25.039062 56.820312 25.640625 57.277344 C 26.246094 57.738281 26.632812 58.328125 26.546875 58.542969 C 26.460938 58.753906 26.289062 58.027344 26.027344 58.308594 C 25.765625 58.59375 26.03125 59.019531 25.707031 59.042969 C 25.386719 59.066406 25.6875 58.71875 25.597656 58.359375 C 25.511719 57.996094 24.582031 55.960938 24.226562 56.410156 C 23.113281 57.828125 22.105469 57.507812 22.625 57.203125 C 22.625 57.203125 23.433594 56.585938 23.121094 56.394531 C 22.808594 56.203125 22.519531 56.027344 22.519531 56.027344 C 22.519531 56.027344 23.042969 55.640625 23.457031 55.847656 C 23.871094 56.058594 24.976562 55.765625 24.949219 55.304688 C 24.921875 54.847656 23.558594 53.613281 23.183594 53.648438 C 22.804688 53.683594 21.792969 52.664062 21.964844 52.457031 C 22.136719 52.253906 22.890625 52.320312 22.6875 51.929688 C 22.484375 51.539062 23.371094 50.890625 23.371094 50.890625 C 23.371094 50.890625 22.894531 51.789062 23.335938 52.09375 C 23.648438 52.308594 23.394531 52.9375 23.738281 53.101562 C 24.078125 53.269531 25.105469 52.351562 25.507812 52.316406 C 26.347656 52.242188 27.234375 50.460938 27.019531 49.660156 C 26.800781 48.859375 28.273438 45.09375 30.078125 45.054688 "/></g></g></g><g clip-rule="nonzero" clip-path="url(#1b29d12036)"><g clip-rule="nonzero" clip-path="url(#0c6deef8c5)"><g clip-rule="nonzero" clip-path="url(#f3fbf7e645)"><path style=" stroke:none;fill-rule:nonzero;fill:#6dc17b;fill-opacity:1;" d="M 28.542969 45.421875 C 28.546875 45.417969 28.546875 45.414062 28.550781 45.410156 C 28.578125 45.347656 28.601562 45.28125 28.625 45.214844 C 28.660156 45.117188 28.695312 45.019531 28.730469 44.925781 C 28.757812 44.859375 28.792969 44.804688 28.835938 44.761719 C 28.886719 44.699219 28.886719 44.355469 28.832031 44.246094 C 28.726562 44.015625 28.628906 43.78125 28.542969 43.542969 C 28.464844 43.320312 28.351562 43.054688 28.375 42.8125 C 28.390625 42.621094 28.496094 42.4375 28.675781 42.351562 C 28.722656 42.332031 28.773438 42.3125 28.828125 42.300781 C 28.839844 42.253906 28.859375 42.210938 28.878906 42.167969 C 28.941406 42.027344 28.972656 41.988281 29.019531 41.847656 C 29.03125 41.8125 29.046875 41.777344 29.058594 41.742188 C 29.035156 41.675781 29.035156 41.601562 29.042969 41.53125 C 29.082031 40.839844 29.273438 40.140625 29.148438 39.457031 C 29.050781 38.925781 28.765625 38.429688 28.746094 37.890625 C 28.734375 37.472656 28.882812 37.066406 29.03125 36.675781 C 29.351562 35.816406 29.675781 34.953125 29.996094 34.09375 C 30.128906 33.738281 30.25 33.300781 30.003906 33.015625 C 29.796875 33.117188 29.703125 33.351562 29.640625 33.570312 C 29.574219 33.789062 29.519531 34.027344 29.347656 34.179688 C 29.308594 34.210938 29.265625 34.234375 29.222656 34.25 C 29.332031 34.597656 29.34375 34.9375 29.195312 35.273438 C 29.132812 35.417969 29.050781 35.550781 28.96875 35.683594 C 28.9375 35.738281 28.902344 35.792969 28.871094 35.847656 C 28.863281 35.859375 28.859375 35.863281 28.859375 35.867188 C 28.855469 35.875 28.851562 35.882812 28.847656 35.890625 C 28.835938 35.914062 28.828125 35.933594 28.816406 35.957031 C 28.761719 36.085938 28.75 36.105469 28.753906 36.238281 C 28.761719 36.425781 28.8125 36.601562 28.804688 36.789062 C 28.800781 36.972656 28.75 37.15625 28.679688 37.324219 C 28.636719 37.433594 28.566406 37.542969 28.539062 37.65625 C 28.460938 37.992188 28.503906 38.378906 28.542969 38.71875 C 28.582031 39.089844 28.644531 39.457031 28.691406 39.828125 C 28.738281 40.199219 28.765625 40.574219 28.75 40.945312 C 28.742188 41.226562 28.75 41.523438 28.636719 41.785156 C 28.488281 42.128906 28.109375 42.386719 27.738281 42.242188 C 27.515625 42.15625 27.402344 41.976562 27.359375 41.773438 C 27.273438 41.699219 27.207031 41.601562 27.148438 41.503906 C 26.542969 40.503906 26.214844 39.296875 25.328125 38.535156 C 24.941406 38.207031 24.453125 37.960938 24.222656 37.507812 C 24.019531 37.105469 24.070312 36.625 24.183594 36.1875 C 24.304688 35.703125 24.503906 35.226562 24.855469 34.875 C 25.207031 34.523438 25.726562 34.3125 26.210938 34.425781 C 26.164062 34.152344 25.398438 33.957031 25.585938 33.582031 C 26.339844 33.261719 26.703125 33.011719 27.199219 32.617188 C 27.320312 32.519531 27.449219 32.414062 27.5 32.265625 C 27.554688 32.117188 27.488281 31.917969 27.335938 31.882812 C 27.066406 32.207031 26.84375 32.359375 26.554688 32.453125 C 26.429688 32.589844 26.289062 32.71875 26.121094 32.808594 C 25.96875 32.890625 25.632812 33.078125 25.617188 33.160156 C 25.570312 33.425781 25.484375 33.679688 25.316406 33.894531 C 25.027344 34.261719 24.597656 34.476562 24.324219 34.855469 C 24.195312 35.03125 24.085938 35.207031 23.992188 35.390625 C 23.957031 35.496094 23.925781 35.601562 23.898438 35.703125 C 23.789062 36.089844 23.699219 36.566406 23.734375 36.90625 C 23.753906 37.082031 23.683594 37.222656 23.578125 37.316406 C 23.589844 37.394531 23.597656 37.472656 23.59375 37.550781 L 23.359375 37.421875 C 23.175781 37.457031 22.972656 37.386719 22.863281 37.171875 C 22.855469 37.160156 22.851562 37.148438 22.847656 37.136719 L 22.351562 36.863281 C 22.289062 36.828125 22.21875 36.792969 22.15625 36.820312 C 22.097656 36.839844 21.597656 37.007812 21.574219 37.0625 C 21.535156 37.152344 21.667969 37.285156 21.835938 37.40625 C 22.078125 37.300781 22.351562 37.257812 22.554688 37.394531 C 22.667969 37.472656 23.292969 37.761719 23.535156 37.882812 C 23.777344 38.007812 24.023438 38.125 24.257812 38.257812 C 24.648438 38.476562 25.023438 38.738281 25.308594 39.085938 C 25.625 39.476562 25.792969 39.953125 25.878906 40.441406 C 25.910156 40.613281 25.910156 40.820312 25.984375 40.933594 C 26.035156 41.011719 26.121094 41.066406 26.199219 41.113281 C 26.179688 41.101562 26.238281 41.132812 26.253906 41.140625 C 26.285156 41.152344 26.316406 41.167969 26.34375 41.183594 C 26.789062 41.40625 27.035156 41.8125 27.328125 42.195312 C 27.636719 42.605469 27.960938 43.03125 28.15625 43.511719 C 28.25 43.734375 28.324219 43.972656 28.339844 44.214844 C 28.355469 44.488281 28.210938 44.726562 28.207031 44.992188 C 28.207031 45.207031 28.371094 45.402344 28.433594 45.609375 C 28.453125 45.535156 28.492188 45.472656 28.542969 45.421875 "/></g></g></g><g clip-rule="nonzero" clip-path="url(#c8b073464f)"><g clip-rule="nonzero" clip-path="url(#7048dd4606)"><g clip-rule="nonzero" clip-path="url(#ba63c955a0)"><path style=" stroke:none;fill-rule:nonzero;fill:#6dc17b;fill-opacity:1;" d="M 30.640625 37.453125 C 30.613281 37.476562 30.582031 37.488281 30.550781 37.492188 C 30.558594 37.566406 30.574219 37.640625 30.59375 37.710938 C 30.589844 37.695312 30.621094 37.769531 30.636719 37.800781 C 30.628906 37.773438 30.652344 37.804688 30.65625 37.816406 C 30.664062 37.820312 30.664062 37.824219 30.640625 37.8125 C 30.640625 37.8125 30.640625 37.8125 30.636719 37.808594 C 30.90625 37.949219 31.007812 38.230469 30.851562 38.496094 C 30.953125 38.578125 31.042969 38.675781 31.09375 38.800781 C 31.277344 39.25 30.734375 40.03125 30.96875 40.660156 C 30.988281 40.714844 31.027344 40.757812 31.054688 40.808594 C 31.148438 40.851562 31.230469 40.925781 31.285156 41.035156 C 31.347656 41.078125 31.402344 41.140625 31.441406 41.222656 C 31.519531 41.390625 31.476562 41.625 31.335938 41.753906 C 31.273438 41.847656 31.171875 41.914062 31.0625 41.945312 C 31.058594 41.960938 31.054688 41.980469 31.054688 41.988281 C 31.054688 42.023438 31.050781 42.058594 31.050781 42.097656 C 31.050781 42.105469 31.050781 42.121094 31.050781 42.132812 C 31.054688 42.167969 31.058594 42.203125 31.0625 42.242188 C 31.101562 42.5625 31.1875 42.878906 31.167969 43.207031 C 31.148438 43.46875 30.621094 43.792969 30.617188 43.878906 C 30.613281 43.976562 30.605469 44.074219 30.601562 44.171875 C 30.601562 44.210938 30.601562 44.25 30.601562 44.285156 C 30.601562 44.304688 30.601562 44.324219 30.605469 44.34375 C 30.640625 44.53125 30.695312 44.710938 30.789062 44.820312 C 30.792969 44.824219 30.851562 44.882812 30.847656 44.882812 C 30.871094 44.902344 30.898438 44.921875 30.925781 44.941406 C 30.933594 44.945312 30.9375 44.949219 30.941406 44.949219 C 30.949219 44.953125 30.957031 44.957031 30.972656 44.960938 C 31.011719 44.976562 31.050781 44.992188 31.089844 45.003906 C 31.101562 45.007812 31.109375 45.011719 31.117188 45.011719 C 31.121094 45.015625 31.128906 45.015625 31.144531 45.019531 C 31.1875 45.027344 31.230469 45.03125 31.277344 45.039062 C 31.375 45.050781 31.476562 45.054688 31.578125 45.058594 C 31.785156 45.0625 31.992188 45.054688 32.195312 45.050781 C 32.445312 45.046875 32.628906 45.335938 32.601562 45.558594 C 32.574219 45.828125 32.34375 45.960938 32.09375 45.964844 C 31.992188 45.96875 31.257812 46.824219 31.203125 46.839844 C 31.636719 47.050781 32.023438 47.347656 32.363281 47.78125 C 32.546875 47.585938 32.519531 47.261719 32.378906 47.039062 C 32.234375 46.8125 32.003906 46.660156 31.78125 46.515625 C 32.519531 46.050781 33.574219 46.171875 34.1875 46.789062 C 34.449219 47.050781 34.585938 47.4375 34.9375 47.195312 C 35.664062 46.105469 33.34375 45.539062 32.824219 45.414062 C 33.136719 44.890625 34.125 45.367188 34.484375 44.871094 C 34.457031 44.375 33.777344 44.203125 33.300781 44.339844 C 32.820312 44.476562 32.359375 44.78125 31.867188 44.707031 C 31.746094 44.6875 31.625 44.644531 31.554688 44.550781 C 31.488281 44.464844 31.109375 44.167969 31.121094 44.0625 C 31.179688 43.597656 32.230469 44.15625 32.554688 43.800781 C 32.492188 43.097656 33.207031 43.378906 33.148438 43.03125 C 33.121094 42.875 32.921875 42.808594 32.761719 42.839844 C 32.605469 42.875 32.46875 42.972656 32.3125 43.011719 C 31.84375 43.128906 31.371094 42.550781 31.578125 42.113281 C 31.785156 41.679688 32.535156 41.683594 32.738281 42.121094 C 32.761719 42.695312 33.476562 42.121094 33.417969 41.894531 C 33.363281 41.667969 33.042969 41.164062 33.058594 40.5625 C 33.027344 39.800781 33.082031 39.027344 32.117188 40.847656 C 31.957031 41.148438 31.464844 40.945312 31.34375 40.726562 C 31.132812 40.347656 31.246094 39.859375 31.472656 39.488281 C 31.699219 39.117188 32.027344 38.816406 32.285156 38.464844 C 32.40625 38.296875 32.515625 38.101562 32.507812 37.894531 C 32.496094 37.683594 32.320312 37.472656 32.113281 37.496094 C 31.695312 37.542969 31.578125 38.375 31.191406 38.214844 C 30.902344 38.09375 31.085938 37.667969 31.207031 37.378906 C 31.371094 36.988281 31.304688 36.507812 31.042969 36.175781 C 30.945312 36.53125 30.847656 36.890625 30.746094 37.246094 C 30.726562 37.324219 30.703125 37.40625 30.640625 37.453125 "/></g></g></g><g clip-rule="nonzero" clip-path="url(#51b6cfb19c)"><g clip-rule="nonzero" clip-path="url(#731b967fce)"><g clip-rule="nonzero" clip-path="url(#86e174820a)"><path style=" stroke:none;fill-rule:nonzero;fill:#6dc17b;fill-opacity:1;" d="M 26.683594 46.390625 C 26.667969 46.394531 26.648438 46.402344 26.632812 46.40625 C 25.953125 46.582031 25.136719 46.519531 24.679688 45.984375 C 24.160156 45.371094 24.304688 44.390625 23.808594 43.757812 C 23.445312 43.296875 22.828125 43.136719 22.324219 42.828125 C 22.1875 42.746094 22.050781 42.640625 21.996094 42.492188 C 21.886719 42.214844 22.085938 41.921875 22.273438 41.691406 C 22.609375 41.269531 23.269531 40.234375 22.585938 40.707031 C 22.398438 40.835938 22.148438 40.609375 22.003906 40.433594 C 21.859375 40.261719 21.738281 40.054688 21.539062 39.949219 C 21.417969 39.882812 21.253906 39.886719 21.136719 39.949219 C 21.644531 40.152344 21.964844 40.792969 21.90625 41.328125 C 21.890625 41.488281 21.824219 41.644531 21.734375 41.773438 C 21.707031 41.816406 21.671875 41.855469 21.636719 41.894531 C 21.601562 41.933594 21.566406 41.96875 21.53125 42.007812 C 21.566406 41.972656 21.566406 41.972656 21.53125 42.011719 C 21.5 42.050781 21.46875 42.085938 21.441406 42.125 C 21.441406 42.132812 21.4375 42.140625 21.433594 42.144531 C 21.433594 42.152344 21.433594 42.15625 21.433594 42.164062 C 21.433594 42.164062 21.433594 42.167969 21.433594 42.167969 C 21.4375 42.183594 21.4375 42.1875 21.433594 42.1875 C 21.4375 42.195312 21.441406 42.203125 21.449219 42.214844 C 21.457031 42.230469 21.503906 42.308594 21.5 42.304688 C 21.523438 42.339844 21.546875 42.371094 21.574219 42.402344 C 21.613281 42.445312 21.652344 42.488281 21.691406 42.527344 C 21.699219 42.535156 21.742188 42.578125 21.753906 42.585938 C 21.941406 42.757812 22.140625 42.914062 22.332031 43.082031 C 22.523438 43.25 22.710938 43.425781 22.867188 43.621094 C 22.875 43.625 22.882812 43.625 22.890625 43.628906 C 23.460938 43.824219 23.726562 44.332031 23.875 44.882812 C 23.929688 45.089844 23.964844 45.304688 24.023438 45.515625 C 24.023438 45.503906 24.054688 45.597656 24.058594 45.609375 C 24.078125 45.65625 24.097656 45.699219 24.121094 45.742188 C 24.175781 45.859375 24.203125 45.894531 24.277344 46 C 25.09375 47.164062 26.679688 46.453125 26.683594 46.390625 "/></g></g></g><g clip-rule="nonzero" clip-path="url(#403b5e93d3)"><g clip-rule="nonzero" clip-path="url(#8cf46f0243)"><g clip-rule="nonzero" clip-path="url(#81f2506683)"><path style=" stroke:none;fill-rule:nonzero;fill:#6dc17b;fill-opacity:1;" d="M 20.523438 46.785156 C 20.539062 46.78125 20.554688 46.773438 20.570312 46.765625 C 20.683594 46.683594 20.78125 46.582031 20.878906 46.484375 C 21.355469 46.023438 22.011719 45.402344 22.660156 45.527344 C 22.777344 45.449219 22.90625 45.390625 23.042969 45.359375 C 23.023438 45.265625 22.394531 44.855469 22.335938 44.542969 C 22.332031 44.523438 22.328125 44.503906 22.320312 44.484375 C 22.320312 44.476562 22.316406 44.46875 22.316406 44.460938 C 22.296875 44.414062 22.273438 44.371094 22.25 44.328125 C 22.25 44.324219 22.246094 44.320312 22.246094 44.320312 C 22.234375 44.300781 22.21875 44.28125 22.207031 44.261719 C 22.179688 44.226562 22.152344 44.191406 22.121094 44.15625 C 22.078125 44.105469 22.039062 44.058594 22 44.019531 C 21.816406 43.875 21.621094 43.765625 21.390625 43.746094 C 21.035156 43.714844 20.703125 43.902344 20.347656 43.9375 C 19.808594 43.988281 19.300781 43.671875 18.878906 43.328125 C 18.457031 42.984375 18.207031 42.523438 17.683594 42.367188 C 17.164062 42.210938 16.554688 41.871094 16.390625 42.390625 C 16.609375 42.484375 16.851562 42.503906 17.035156 42.566406 C 17.339844 42.605469 17.632812 42.703125 17.878906 42.867188 C 18.121094 43 18.328125 43.171875 18.539062 43.355469 C 18.820312 43.597656 19.144531 43.78125 19.476562 43.949219 C 19.652344 43.960938 19.828125 43.980469 20.003906 44.019531 C 20.117188 44.042969 20.230469 44.074219 20.34375 44.101562 C 20.359375 44.105469 20.367188 44.109375 20.367188 44.109375 C 20.375 44.109375 20.386719 44.113281 20.40625 44.113281 C 20.511719 44.128906 20.613281 44.140625 20.71875 44.152344 C 21.152344 44.199219 21.785156 44.246094 21.96875 44.730469 C 22 44.820312 22.007812 44.910156 21.996094 45 C 22.085938 45.089844 22.152344 45.203125 22.183594 45.335938 C 21.65625 45.535156 21.300781 46.019531 20.875 46.382812 C 20.664062 46.566406 20.398438 46.71875 20.128906 46.785156 C 20.136719 46.789062 20.148438 46.789062 20.15625 46.792969 C 20.207031 46.800781 20.257812 46.804688 20.3125 46.808594 C 20.351562 46.808594 20.367188 46.8125 20.363281 46.8125 C 20.386719 46.808594 20.410156 46.808594 20.433594 46.804688 C 20.449219 46.804688 20.527344 46.78125 20.523438 46.785156 "/></g></g></g><g clip-rule="nonzero" clip-path="url(#0a75e1de49)"><g clip-rule="nonzero" clip-path="url(#624697a7b4)"><g clip-rule="nonzero" clip-path="url(#420c3c46a3)"><path style=" stroke:none;fill-rule:nonzero;fill:#6dc17b;fill-opacity:1;" d="M 31.78125 55.339844 C 30.625 55.425781 30.03125 54.089844 30.125 52.996094 C 30.195312 52.171875 31.511719 52.269531 32.25 52.460938 C 32.25 52.453125 32.25 52.445312 32.25 52.4375 C 32.183594 52.425781 32.121094 52.410156 32.054688 52.386719 C 31.65625 52.25 31.339844 51.855469 30.929688 51.917969 C 30.644531 51.964844 30.277344 52.121094 29.929688 52.21875 C 29.933594 52.269531 29.800781 52.484375 29.816406 52.53125 C 30.117188 53.359375 29.964844 54.476562 30.183594 54.921875 C 30.265625 55.089844 30.363281 55.242188 30.480469 55.390625 C 30.496094 55.40625 31.304688 55.371094 31.511719 55.355469 C 31.820312 55.332031 32.160156 55.367188 32.421875 55.527344 C 32.464844 55.527344 32.507812 55.535156 32.550781 55.542969 C 32.914062 55.632812 33.316406 55.570312 33.683594 55.53125 C 33.785156 55.523438 33.890625 55.511719 33.996094 55.503906 C 34.671875 55.285156 36.046875 55.273438 35.722656 54.972656 C 35.71875 54.96875 35.714844 54.964844 35.710938 54.960938 C 35.660156 54.941406 35.609375 54.917969 35.558594 54.890625 C 34.878906 54.699219 32.835938 55.261719 31.78125 55.339844 "/></g></g></g><g clip-rule="nonzero" clip-path="url(#0d550aa0e2)"><g clip-rule="nonzero" clip-path="url(#ade134c679)"><g clip-rule="nonzero" clip-path="url(#779e7a596e)"><path style=" stroke:none;fill-rule:nonzero;fill:#6dc17b;fill-opacity:1;" d="M 29.671875 58.128906 C 29.640625 58.136719 29.613281 58.144531 29.582031 58.152344 C 29.578125 58.15625 29.574219 58.15625 29.574219 58.15625 C 29.570312 58.160156 29.5625 58.164062 29.550781 58.167969 C 29.429688 58.222656 29.347656 58.316406 29.269531 58.457031 C 29.238281 58.507812 29.210938 58.558594 29.1875 58.613281 C 29.539062 58.558594 29.917969 58.816406 30.058594 59.046875 C 30.40625 59.628906 30.980469 60.109375 30.980469 60.109375 C 31.082031 59.273438 30.363281 58.628906 29.914062 58.050781 C 29.835938 58.082031 29.75 58.105469 29.671875 58.128906 "/></g></g></g><g clip-rule="nonzero" clip-path="url(#1e83d8c4fa)"><g clip-rule="nonzero" clip-path="url(#8efada6412)"><g clip-rule="nonzero" clip-path="url(#cf78cd3809)"><path style=" stroke:none;fill-rule:nonzero;fill:#6dc17b;fill-opacity:1;" d="M 24.425781 53.304688 C 24.632812 53.152344 24.84375 53.003906 25.074219 52.886719 C 25.191406 52.824219 25.332031 52.832031 25.449219 52.886719 C 25.601562 52.714844 25.761719 52.554688 25.941406 52.433594 C 25.898438 52.378906 25.867188 52.3125 25.855469 52.234375 C 25.855469 52.222656 25.851562 52.210938 25.851562 52.195312 C 25.738281 52.261719 25.621094 52.304688 25.507812 52.316406 C 25.105469 52.351562 24.078125 53.269531 23.738281 53.101562 C 23.394531 52.9375 23.648438 52.308594 23.335938 52.09375 C 22.894531 51.789062 23.371094 50.890625 23.371094 50.890625 C 23.371094 50.890625 22.949219 51.195312 22.753906 51.515625 C 22.960938 51.707031 23.078125 51.957031 23.148438 52.253906 C 23.191406 52.421875 23.210938 52.59375 23.234375 52.761719 C 23.25 52.859375 23.265625 52.953125 23.285156 53.050781 C 23.292969 53.089844 23.304688 53.128906 23.3125 53.167969 C 23.316406 53.183594 23.316406 53.183594 23.316406 53.183594 C 23.316406 53.1875 23.320312 53.199219 23.324219 53.210938 C 23.351562 53.277344 23.402344 53.390625 23.417969 53.417969 C 23.4375 53.449219 23.496094 53.515625 23.523438 53.535156 C 23.632812 53.625 23.765625 53.660156 23.882812 53.625 C 24.082031 53.566406 24.257812 53.425781 24.425781 53.304688 "/></g></g></g><g clip-rule="nonzero" clip-path="url(#0b06752b10)"><g clip-rule="nonzero" clip-path="url(#d1f5dcd262)"><g clip-rule="nonzero" clip-path="url(#7461c0c4aa)"><path style=" stroke:none;fill-rule:nonzero;fill:#6dc17b;fill-opacity:1;" d="M 38.992188 53.84375 C 38.914062 53.757812 38.894531 53.675781 38.988281 53.613281 C 40.199219 52.800781 39.949219 52.476562 39.949219 52.476562 C 39.472656 52.523438 39.214844 52.824219 38.734375 52.871094 C 37.34375 53.003906 35.527344 52.507812 35.039062 51.992188 C 34.804688 51.925781 34.117188 50.660156 35.015625 50.347656 C 35.234375 50.273438 35.515625 50.101562 35.726562 50.015625 C 35.816406 49.980469 36.578125 49.546875 36.910156 49.535156 C 37.066406 49.53125 37.214844 49.570312 37.355469 49.628906 C 37.460938 49.671875 37.492188 49.703125 37.558594 49.691406 C 37.605469 49.683594 37.71875 49.636719 37.757812 49.613281 C 37.757812 49.613281 37.835938 49.558594 37.859375 49.546875 C 37.917969 49.507812 37.972656 49.46875 38.035156 49.4375 C 38.128906 49.382812 38.222656 49.347656 38.320312 49.324219 C 38.15625 49.164062 38.085938 49.003906 38.085938 49.003906 C 37.753906 48.578125 38.96875 47.804688 38.96875 47.804688 C 38.96875 47.804688 39.300781 47.34375 38.90625 47.328125 C 38.597656 47.316406 37.640625 47.894531 36.976562 48.835938 C 36.929688 48.902344 36.855469 49.117188 36.554688 49.144531 L 35.339844 49.289062 C 35.035156 49.378906 34.621094 49.679688 34.066406 50.460938 C 33.4375 51.347656 32.085938 50.664062 32.085938 50.664062 C 31.730469 50.910156 31.140625 50.9375 30.429688 50.566406 C 30.347656 50.746094 30.15625 50.839844 29.957031 50.839844 C 29.730469 50.84375 29.96875 51.257812 30.164062 51.199219 C 30.386719 51.128906 30.605469 51.03125 30.835938 51.003906 C 31.136719 50.972656 31.460938 51.011719 31.730469 51.152344 C 31.933594 51.261719 32.121094 51.429688 32.335938 51.511719 C 32.425781 51.542969 32.425781 51.546875 32.53125 51.492188 C 32.652344 51.433594 32.769531 51.375 32.902344 51.351562 C 33.121094 51.320312 33.367188 51.386719 33.566406 51.476562 C 33.992188 51.667969 34.320312 51.996094 34.660156 52.308594 C 34.996094 52.617188 35.273438 52.84375 35.707031 52.933594 C 36.234375 53.039062 36.75 53.199219 37.285156 53.246094 C 37.609375 53.273438 37.929688 53.335938 38.222656 53.484375 C 38.339844 53.546875 38.457031 53.613281 38.574219 53.683594 C 38.613281 53.710938 38.65625 53.734375 38.695312 53.761719 C 38.710938 53.769531 38.71875 53.773438 38.726562 53.777344 C 38.734375 53.78125 38.742188 53.785156 38.75 53.789062 C 38.765625 53.796875 38.890625 53.835938 38.859375 53.832031 C 38.902344 53.839844 38.949219 53.84375 38.992188 53.84375 "/></g></g></g><g clip-rule="nonzero" clip-path="url(#b487d54354)"><g clip-rule="nonzero" clip-path="url(#01f3d8d0f2)"><g clip-rule="nonzero" clip-path="url(#f479188048)"><path style=" stroke:none;fill-rule:nonzero;fill:#6dc17b;fill-opacity:1;" d="M 25.90625 55.679688 C 26.105469 55.976562 26.4375 56.316406 26.773438 56.457031 C 26.902344 56.511719 27.054688 56.519531 27.214844 56.582031 C 27.480469 56.59375 27.734375 56.566406 27.925781 56.535156 C 28.152344 56.496094 28.511719 56.394531 28.128906 56.046875 C 28.011719 55.9375 27.871094 55.832031 27.601562 55.960938 C 27.070312 56.203125 26.019531 54.859375 25.636719 54.078125 C 25.511719 54.21875 25.753906 55.449219 25.90625 55.679688 "/></g></g></g><g clip-rule="nonzero" clip-path="url(#fae76f72d0)"><g clip-rule="nonzero" clip-path="url(#be106b4440)"><g clip-rule="nonzero" clip-path="url(#0981def541)"><path style=" stroke:none;fill-rule:nonzero;fill:#6dc17b;fill-opacity:1;" d="M 25.304688 57.128906 C 25.617188 57.640625 26.066406 58.476562 25.628906 59.039062 C 25.652344 59.042969 25.675781 59.046875 25.707031 59.042969 C 26.03125 59.019531 25.765625 58.59375 26.027344 58.308594 C 26.289062 58.027344 26.460938 58.753906 26.546875 58.542969 C 26.632812 58.328125 26.246094 57.738281 25.640625 57.277344 C 25.417969 57.105469 25.371094 56.816406 25.425781 56.550781 C 25.378906 56.503906 25.335938 56.453125 25.292969 56.402344 C 25.238281 56.335938 25.164062 56.898438 25.304688 57.128906 "/></g></g></g><g clip-rule="nonzero" clip-path="url(#bab8c8bf27)"><g clip-rule="nonzero" clip-path="url(#1ed00093d3)"><g clip-rule="nonzero" clip-path="url(#508e0d078b)"><path style=" stroke:none;fill-rule:nonzero;fill:#6dc17b;fill-opacity:1;" d="M 34.226562 56.410156 C 34.226562 56.433594 34.226562 56.457031 34.226562 56.480469 C 34.230469 56.394531 34.257812 56.550781 34.222656 56.472656 C 34.234375 56.5 34.246094 56.53125 34.261719 56.558594 C 34.273438 56.585938 34.273438 56.589844 34.273438 56.59375 C 34.273438 56.59375 34.273438 56.589844 34.285156 56.605469 C 34.304688 56.632812 34.324219 56.660156 34.34375 56.683594 C 34.449219 56.8125 34.507812 56.867188 34.605469 56.953125 C 34.664062 57.003906 34.726562 57.0625 34.789062 57.121094 C 34.796875 57.117188 34.804688 57.113281 34.808594 57.109375 C 35.292969 56.828125 35.5 57.648438 35.339844 57.035156 C 35.277344 56.789062 34.832031 56.597656 34.414062 56.40625 C 34.351562 56.40625 34.289062 56.40625 34.226562 56.410156 "/></g></g></g><g clip-rule="nonzero" clip-path="url(#754469c599)"><g clip-rule="nonzero" clip-path="url(#77ebbb5ae6)"><g clip-rule="nonzero" clip-path="url(#318f6ec0fa)"><path style=" stroke:none;fill-rule:nonzero;fill:#6dc17b;fill-opacity:1;" d="M 30.015625 43.183594 C 30.011719 43.1875 30.011719 43.1875 30.007812 43.1875 C 30 43.1875 29.992188 43.191406 29.984375 43.191406 C 29.996094 43.191406 30.003906 43.1875 30.015625 43.183594 "/></g></g></g><g clip-rule="nonzero" clip-path="url(#7d71b98751)"><g clip-rule="nonzero" clip-path="url(#9f773ca30f)"><g clip-rule="nonzero" clip-path="url(#2bd50c2ddb)"><path style=" stroke:none;fill-rule:nonzero;fill:#6dc17b;fill-opacity:1;" d="M 29.984375 43.191406 C 29.953125 43.199219 29.917969 43.207031 29.886719 43.214844 C 29.921875 43.207031 29.957031 43.199219 29.984375 43.191406 "/><path style=" stroke:none;fill-rule:nonzero;fill:#6dc17b;fill-opacity:1;" d="M 29.664062 43.871094 C 29.664062 43.871094 29.660156 43.871094 29.660156 43.875 L 29.664062 43.871094 "/></g></g></g><g clip-rule="nonzero" clip-path="url(#608e50a2fa)"><g clip-rule="nonzero" clip-path="url(#4d1b764283)"><g clip-rule="nonzero" clip-path="url(#616831a226)"><path style=" stroke:none;fill-rule:nonzero;fill:#6dc17b;fill-opacity:1;" d="M 36.410156 49.65625 C 36.253906 49.789062 36.191406 49.992188 36.011719 50.089844 C 35.835938 50.1875 35.683594 50.140625 35.492188 50.300781 C 35.375 50.398438 35.398438 50.441406 35.242188 50.542969 C 35.105469 50.628906 34.90625 50.675781 34.753906 50.738281 C 34.980469 51.007812 35.25 51.183594 35.585938 50.988281 C 35.667969 50.941406 35.691406 50.828125 35.761719 50.78125 C 35.972656 50.640625 36.179688 50.695312 36.402344 50.59375 C 36.71875 50.449219 37.019531 50.199219 37.390625 50.175781 C 37.503906 50.167969 37.625 50.273438 37.753906 50.261719 C 37.933594 50.246094 38.042969 50.050781 38.167969 50.027344 C 38.226562 50.015625 38.273438 50.050781 38.386719 50.0625 C 38.546875 50.078125 39.183594 50.445312 39.375 50.265625 C 39.417969 50.230469 39.460938 49.824219 39.351562 49.8125 C 39.300781 49.808594 39.21875 49.976562 39.101562 49.976562 C 38.8125 49.972656 38.492188 49.59375 38.171875 49.558594 C 37.949219 49.535156 37.757812 49.625 37.523438 49.652344 C 37.179688 49.691406 36.710938 49.402344 36.410156 49.65625 C 36.371094 49.6875 36.449219 49.625 36.410156 49.65625 "/></g></g></g><g clip-rule="nonzero" clip-path="url(#574b2bb67b)"><g clip-rule="nonzero" clip-path="url(#6ec66a2765)"><g clip-rule="nonzero" clip-path="url(#95ee7542ee)"><path style=" stroke:none;fill-rule:nonzero;fill:#6dc17b;fill-opacity:1;" d="M 29.808594 42.699219 Z M 29.734375 43.898438 C 29.734375 43.902344 29.734375 43.898438 29.734375 43.898438 Z M 29.496094 56.703125 C 29.742188 56.601562 29.789062 56.386719 29.898438 56.171875 C 30.023438 55.941406 29.839844 55.988281 30.097656 55.890625 C 30.269531 55.824219 30.421875 55.984375 30.585938 55.972656 C 30.5625 55.976562 31.027344 55.875 30.886719 55.808594 C 30.78125 55.738281 30.191406 55.609375 30.03125 55.617188 C 30.230469 55.203125 29.765625 55.125 29.722656 54.816406 C 29.707031 54.710938 29.816406 54.851562 29.835938 54.691406 C 29.867188 54.4375 29.867188 54.285156 29.703125 54.054688 C 30.085938 53.796875 29.8125 53.488281 29.714844 53.183594 C 29.613281 52.882812 29.589844 52.734375 29.441406 52.460938 C 29.332031 52.253906 29.261719 52.121094 29.4375 51.933594 C 29.519531 51.847656 29.699219 51.839844 29.78125 51.722656 C 30.054688 51.949219 30.585938 51.789062 30.890625 51.730469 C 31.125 51.679688 31.410156 51.585938 31.648438 51.679688 C 31.902344 51.78125 31.996094 52.09375 32.277344 52.160156 C 32.953125 52.3125 33.050781 51.617188 33.539062 52.441406 C 33.714844 52.738281 33.839844 52.917969 34.15625 53.070312 C 34.332031 53.15625 34.484375 53.132812 34.578125 53.328125 L 34.566406 53.261719 C 34.878906 53.496094 35.292969 53.59375 35.5625 53.753906 C 35.839844 53.917969 36.019531 54.257812 36.316406 54.421875 C 36.492188 54.519531 36.671875 54.527344 36.90625 54.609375 C 36.796875 54.480469 36.59375 54.308594 36.523438 54.15625 C 36.355469 53.769531 36.585938 53.832031 36.902344 53.765625 C 37.019531 53.742188 37.097656 53.652344 37.21875 53.652344 C 37.367188 53.65625 37.496094 53.808594 37.640625 53.832031 C 37.722656 53.84375 38.222656 53.859375 38.273438 53.777344 C 38.34375 53.675781 37.742188 53.417969 37.605469 53.371094 C 37.34375 53.28125 37.175781 53.238281 36.894531 53.226562 C 36.765625 53.21875 36.597656 53.175781 36.46875 53.175781 C 36.347656 53.171875 35.984375 53.285156 35.925781 53.269531 C 35.75 53.222656 35.867188 53.332031 35.839844 53.320312 C 35.917969 53.351562 35.445312 52.910156 35.765625 53.144531 C 35.511719 52.960938 35.507812 52.878906 35.148438 52.769531 C 34.871094 52.6875 34.796875 52.558594 34.535156 52.386719 C 34.238281 52.191406 33.917969 52.261719 33.703125 52.078125 C 33.355469 51.773438 33.265625 51.550781 32.726562 51.691406 C 32.222656 51.828125 32.414062 51.71875 31.984375 51.421875 C 31.585938 51.152344 31.175781 51.269531 30.746094 51.339844 C 29.960938 51.472656 29.894531 51.289062 29.382812 50.710938 C 29.390625 50.792969 29.539062 51.359375 29.445312 51.460938 C 29.214844 51.707031 28.992188 51.214844 28.941406 51.089844 C 28.59375 50.261719 29.109375 51.039062 29.480469 50.546875 C 29.449219 50.523438 29.421875 50.503906 29.394531 50.480469 C 29.453125 50.460938 29.507812 50.441406 29.566406 50.421875 C 29.207031 50.214844 28.824219 50.117188 28.8125 49.664062 C 28.8125 49.609375 28.789062 49.476562 28.757812 49.417969 C 28.792969 49.414062 28.828125 49.410156 28.863281 49.40625 C 28.660156 49.273438 28.144531 49.070312 28.023438 48.90625 C 28.003906 48.878906 28.050781 48.769531 28.03125 48.722656 C 27.90625 48.402344 27.851562 48.011719 27.78125 47.679688 C 27.75 47.535156 27.664062 47.296875 27.738281 47.175781 C 27.6875 47.257812 28.199219 46.777344 28.164062 46.796875 C 28.285156 46.726562 28.445312 46.796875 28.578125 46.765625 C 28.851562 46.703125 28.851562 46.460938 29.011719 46.398438 C 29.101562 46.363281 29.257812 46.453125 29.351562 46.4375 C 29.523438 46.414062 29.691406 46.359375 29.761719 46.179688 C 29.765625 46.171875 29.742188 45.871094 29.75 45.859375 C 29.824219 45.765625 30.132812 45.765625 30.261719 45.78125 C 30.511719 45.8125 30.597656 45.941406 30.8125 45.988281 C 30.804688 45.988281 31.476562 45.980469 31.335938 45.832031 C 31.296875 45.789062 31.09375 45.871094 31.03125 45.847656 C 30.832031 45.769531 30.847656 45.65625 30.734375 45.546875 C 30.324219 45.148438 30.1875 45.511719 29.714844 45.375 C 29.875 45.035156 30.261719 44.308594 29.96875 43.9375 C 30.601562 43.683594 29.835938 43.292969 29.863281 43.203125 C 29.855469 43.191406 29.847656 43.195312 29.859375 43.179688 C 29.90625 43.152344 30.058594 43.097656 30.148438 43.082031 C 30.105469 42.984375 29.828125 42.734375 29.832031 42.703125 C 29.84375 42.601562 30.328125 42.460938 30.410156 42.34375 C 30.5 42.210938 30.539062 41.964844 30.597656 41.828125 C 30.710938 41.566406 30.902344 41.484375 30.625 41.195312 C 30.546875 41.113281 30.359375 41.09375 30.308594 40.996094 C 30.273438 40.921875 30.480469 40.257812 30.402344 40.285156 C 30.265625 40.335938 29.996094 40.863281 30.027344 41.027344 C 30.066406 41.25 30.425781 41.304688 30.429688 41.488281 C 30.429688 41.5625 30.222656 41.65625 30.183594 41.730469 C 30.136719 41.8125 30.164062 41.988281 30.121094 42.050781 C 30.023438 42.179688 29.863281 42.183594 29.730469 42.269531 C 29.46875 42.441406 29.546875 42.539062 29.40625 42.777344 C 29.394531 42.800781 29.429688 42.832031 29.417969 42.851562 C 29.246094 43.132812 28.972656 43.132812 29.03125 43.609375 C 29.070312 43.898438 29.386719 44.15625 29.394531 44.425781 C 29.402344 44.609375 29.34375 44.503906 29.285156 44.695312 C 29.234375 44.855469 29.132812 44.972656 29.140625 45.160156 C 29.148438 45.304688 29.246094 45.671875 29.144531 45.71875 C 29.105469 45.734375 29.03125 45.613281 28.980469 45.621094 C 28.917969 45.628906 28.660156 45.738281 28.605469 45.726562 C 28.476562 45.703125 28.441406 45.65625 28.359375 45.546875 C 28.25 45.394531 28.257812 44.007812 28.175781 44.035156 C 28.175781 44.035156 28.09375 44.816406 28.085938 44.882812 C 28.050781 45.179688 27.996094 45.664062 28.292969 45.863281 C 28.414062 45.945312 28.476562 46.011719 28.582031 45.882812 C 28.601562 45.871094 28.613281 45.96875 28.609375 45.976562 C 28.574219 46.035156 28.425781 46.03125 28.375 46.0625 C 27.953125 46.300781 27.425781 46.421875 26.953125 46.480469 C 26.960938 46.558594 26.949219 46.660156 26.972656 46.734375 C 27.066406 47.027344 27.324219 46.882812 27.375 46.953125 C 27.378906 46.960938 27.292969 47.226562 27.289062 47.277344 C 27.269531 47.546875 27.386719 47.855469 27.445312 48.113281 C 27.519531 48.449219 27.582031 48.699219 27.574219 49.027344 C 27.496094 49.019531 27.382812 49.027344 27.308594 49 C 27.679688 49.128906 27.355469 49.929688 27.128906 49.972656 L 27.460938 50.191406 C 27.414062 50.390625 27.5 50.378906 27.34375 50.582031 C 27.179688 50.792969 27.3125 50.75 27.441406 50.800781 C 27.523438 50.832031 27.492188 50.898438 27.496094 50.972656 C 27.515625 51.269531 27.265625 51.214844 27.125 51.339844 C 26.96875 51.480469 26.949219 51.75 26.804688 51.859375 C 26.734375 51.910156 26.523438 51.898438 26.441406 51.949219 C 26.382812 51.984375 26.027344 52.414062 26.210938 52.4375 C 26.199219 52.4375 26.707031 52.222656 26.777344 52.199219 C 26.96875 52.132812 27.148438 52.074219 27.34375 51.992188 C 27.597656 51.882812 28.175781 51.691406 28.457031 51.820312 C 28.785156 51.96875 28.59375 52.175781 28.578125 52.390625 C 28.546875 52.804688 28.722656 52.875 28.882812 53.230469 C 29.039062 53.570312 28.964844 53.964844 29.007812 54.328125 C 29.070312 54.835938 29.28125 55.214844 29.496094 55.664062 C 29.574219 55.832031 29.664062 55.917969 29.65625 56.132812 C 29.652344 56.234375 29.390625 56.699219 29.398438 56.710938 C 29.429688 56.710938 29.464844 56.707031 29.496094 56.703125 C 29.550781 56.679688 29.4375 56.722656 29.496094 56.703125 "/></g></g></g><g clip-rule="nonzero" clip-path="url(#72c0f58e1f)"><path style=" stroke:none;fill-rule:nonzero;fill:#6dc17b;fill-opacity:1;" d="M 62.941406 28.621094 C 63.96875 30.21875 63.640625 32.1875 62.195312 33.425781 C 61.285156 34.195312 60.242188 34.65625 59.0625 34.816406 C 57.304688 35.085938 55.546875 35.296875 53.777344 35.480469 C 52.832031 35.585938 51.878906 35.609375 50.851562 35.675781 C 50.835938 37.101562 50.945312 38.519531 51.171875 39.925781 C 51.441406 41.683594 51.769531 43.433594 51.949219 45.203125 C 52.011719 46.09375 51.945312 46.972656 51.757812 47.84375 C 51.535156 49.019531 50.765625 49.808594 49.636719 50.214844 C 48.300781 50.699219 46.976562 50.683594 45.652344 50.171875 C 44.042969 49.570312 43.359375 48.390625 43.699219 46.707031 C 43.871094 45.925781 44.097656 45.160156 44.382812 44.414062 C 44.84375 43.132812 45.351562 41.878906 45.558594 40.53125 C 45.808594 38.863281 45.8125 37.195312 45.566406 35.523438 C 45.367188 35.511719 45.195312 35.492188 45.027344 35.492188 C 42.09375 35.460938 39.160156 35.453125 36.230469 35.398438 C 35.523438 35.355469 34.820312 35.257812 34.128906 35.097656 C 33.78125 35.015625 33.449219 34.886719 33.136719 34.714844 C 31.796875 34.011719 31.308594 32.894531 31.6875 31.425781 C 31.925781 30.511719 32.324219 29.671875 32.871094 28.902344 C 34.277344 26.882812 35.929688 25.089844 37.828125 23.523438 C 39.726562 21.957031 41.800781 20.679688 44.054688 19.683594 C 47.027344 18.363281 49.984375 18.476562 52.828125 20.082031 C 56.097656 21.898438 59.019531 24.167969 61.589844 26.886719 C 62.09375 27.421875 62.542969 28 62.941406 28.621094 Z M 62.941406 28.621094 "/></g></g></svg>