<svg xmlns="http://www.w3.org/2000/svg" xmlns:xlink="http://www.w3.org/1999/xlink" width="106" zoomAndPan="magnify" viewBox="0 0 79.5 79.499996" height="106" preserveAspectRatio="xMidYMid meet" version="1.2"><defs><clipPath id="1d18e12b09"><path d="M 0 0 L 78.792969 0 L 78.792969 78.792969 L 0 78.792969 Z M 0 0 "/></clipPath><clipPath id="f041087463"><path d="M 39.398438 0 C 17.636719 0 0 17.636719 0 39.398438 C 0 61.15625 17.636719 78.792969 39.398438 78.792969 C 61.15625 78.792969 78.792969 61.15625 78.792969 39.398438 C 78.792969 17.636719 61.15625 0 39.398438 0 Z M 39.398438 0 "/></clipPath><clipPath id="a7d19f3d21"><path d="M 19.75 11.792969 L 54 11.792969 L 54 66 L 19.75 66 Z M 19.75 11.792969 "/></clipPath><clipPath id="5de437721c"><path d="M 39.398438 22.445312 L 66.226562 22.445312 L 66.226562 32 L 39.398438 32 Z M 39.398438 22.445312 "/></clipPath></defs><g id="8e18234374"><g clip-rule="nonzero" clip-path="url(#1d18e12b09)"><g clip-rule="nonzero" clip-path="url(#f041087463)"><path style=" stroke:none;fill-rule:nonzero;fill:#f5f5f4;fill-opacity:1;" d="M 0 0 L 78.792969 0 L 78.792969 78.792969 L 0 78.792969 Z M 0 0 "/></g></g><g clip-rule="nonzero" clip-path="url(#a7d19f3d21)"><path style=" stroke:none;fill-rule:nonzero;fill:#6dc17b;fill-opacity:1;" d="M 53.609375 63.390625 C 53.503906 62.785156 53.511719 62.113281 53.371094 61.496094 C 53.015625 58.609375 52.921875 54.707031 52.207031 51.472656 C 52.1875 51.390625 52.15625 51.316406 52.105469 51.25 C 51.367188 50.242188 50.648438 48.097656 50.722656 46.929688 C 50.796875 45.84375 51.222656 44.8125 51.542969 43.765625 C 51.609375 43.539062 51.671875 43.316406 51.726562 43.085938 C 51.792969 42.789062 51.882812 42.488281 51.964844 42.191406 C 52.148438 41.53125 52.09375 40.796875 51.828125 40.070312 C 52.304688 40.015625 52.777344 39.894531 53.226562 39.738281 C 52.308594 38.996094 51.632812 38.230469 50.761719 37.476562 C 50.355469 37.125 49.296875 36.484375 48.589844 36.640625 C 47.265625 35.988281 45.878906 35.820312 44.753906 36.105469 C 44.527344 36.167969 44.289062 36.191406 44.058594 36.207031 C 44.058594 36.207031 44.058594 36.207031 44.054688 36.207031 C 41.519531 36.316406 38.980469 36.859375 36.460938 36.53125 C 34.824219 36.324219 33.1875 35.746094 31.5625 36.050781 C 31.53125 36.058594 31.496094 36.0625 31.460938 36.070312 C 31.164062 35.832031 30.871094 35.589844 30.75 35.351562 C 30.65625 35.160156 30.574219 34.972656 30.511719 34.773438 L 30.472656 34.660156 C 30.34375 34.246094 30.28125 33.808594 30.234375 33.386719 C 30.21875 33.28125 30.21875 33.164062 30.226562 33.042969 C 30.238281 32.730469 30.292969 32.390625 30.335938 32.089844 C 30.375 32.089844 30.421875 32.089844 30.476562 32.089844 C 30.605469 32.089844 30.75 32.085938 30.90625 32.078125 C 31.300781 32.058594 31.734375 32.003906 32 31.921875 C 32.136719 31.882812 32.269531 31.820312 32.34375 31.710938 C 32.425781 31.589844 32.425781 31.425781 32.46875 31.285156 C 32.46875 31.277344 32.472656 31.269531 32.472656 31.261719 C 32.570312 31 32.828125 30.808594 32.941406 30.550781 C 33.078125 30.238281 32.984375 29.835938 32.710938 29.625 L 32.679688 29.597656 L 31.714844 28.785156 L 31.671875 28.75 C 31.671875 28.742188 31.679688 28.738281 31.679688 28.730469 C 31.761719 28.507812 31.828125 28.289062 31.863281 28.058594 C 32.453125 28.058594 32.902344 27.984375 33.363281 27.683594 C 33.507812 27.589844 33.648438 27.480469 33.796875 27.34375 C 34.078125 27.078125 34.355469 26.78125 34.605469 26.457031 C 34.953125 26 35.238281 25.492188 35.375 24.960938 C 35.613281 24.050781 34.492188 24.382812 33.925781 24.457031 C 33.480469 24.519531 32.289062 24.609375 31.847656 25 C 31.816406 25.027344 31.789062 25.0625 31.761719 25.097656 C 31.589844 25.207031 31.226562 25.363281 31.128906 25.390625 C 31.089844 25.402344 31.046875 25.410156 31.015625 25.417969 C 31.433594 24.792969 32.066406 24.160156 32.394531 23.792969 C 32.601562 23.546875 32.835938 23.339844 33.070312 23.132812 C 33.710938 22.605469 34.421875 22.175781 35.089844 21.660156 C 35.605469 21.261719 36.496094 20.5625 36.765625 19.800781 C 36.839844 19.589844 36.867188 19.378906 36.828125 19.160156 C 36.726562 18.652344 36.1875 18.328125 35.5625 18.082031 C 35.386719 18.015625 35.199219 17.945312 35.015625 17.890625 C 34.90625 17.417969 34.789062 16.941406 34.660156 16.464844 C 34.335938 15.269531 33.902344 14.089844 33.207031 13.0625 C 33.097656 12.902344 32.984375 12.738281 32.863281 12.582031 C 32.808594 12.507812 32.746094 12.433594 32.679688 12.382812 C 32.480469 12.535156 32.5625 12.875 32.671875 13.097656 C 33.019531 13.804688 33.269531 14.550781 33.527344 15.289062 C 33.757812 15.964844 33.996094 16.640625 34.136719 17.339844 C 34.160156 17.445312 34.179688 17.546875 34.191406 17.640625 C 34.136719 17.621094 34.078125 17.605469 34.03125 17.585938 C 33.914062 17.546875 33.796875 17.648438 33.824219 17.769531 C 33.867188 17.914062 34.050781 18.0625 34.28125 18.210938 C 34.308594 18.421875 34.328125 18.625 34.355469 18.835938 C 34.394531 19.210938 34.429688 19.625 34.382812 20.011719 C 34.347656 20.277344 34.28125 20.535156 34.160156 20.757812 C 34.105469 20.613281 34.050781 20.464844 33.996094 20.324219 C 33.765625 19.703125 33.527344 19.085938 33.296875 18.46875 C 32.582031 16.574219 31.855469 14.660156 30.722656 12.988281 C 30.621094 12.839844 30.445312 12.675781 30.292969 12.773438 C 30.292969 12.820312 30.292969 12.875 30.292969 12.921875 C 30.734375 13.539062 31.046875 14.25 31.347656 14.953125 C 31.6875 15.746094 32.019531 16.535156 32.296875 17.355469 C 32.699219 18.515625 32.984375 19.726562 33.152344 20.949219 C 33.1875 21.199219 33.214844 21.445312 33.242188 21.695312 C 33.140625 21.804688 33.023438 21.910156 32.914062 22.019531 C 32.726562 22.203125 32.527344 22.386719 32.339844 22.570312 C 31.796875 23.085938 31.230469 23.617188 30.578125 23.984375 C 30.34375 23.699219 30.152344 23.367188 29.980469 23.027344 C 29.566406 22.171875 29.277344 21.207031 28.65625 20.480469 C 28.625 20.445312 28.570312 20.480469 28.589844 20.519531 C 28.605469 20.5625 28.625 20.601562 28.636719 20.640625 C 28.902344 21.335938 29.03125 22.074219 29.125 22.808594 C 29.175781 23.160156 29.195312 23.515625 29.25 23.859375 C 29.308594 24.269531 29.390625 24.695312 29.316406 25.109375 C 29.324219 25.199219 29.332031 25.289062 29.335938 25.375 C 28.46875 25.375 27.570312 25.457031 26.703125 25.410156 C 26.390625 25.171875 26.015625 24.871094 25.609375 24.539062 C 25.664062 23.808594 25.71875 23.074219 25.667969 22.339844 C 25.617188 21.53125 25.4375 20.738281 25.253906 19.949219 C 25.234375 19.859375 25.214844 19.773438 25.195312 19.683594 C 25.1875 19.652344 25.167969 19.601562 25.132812 19.609375 C 25.09375 19.609375 25.085938 19.65625 25.078125 19.699219 C 25.074219 19.839844 25.066406 19.984375 25.066406 20.125 C 25.058594 20.996094 25.121094 21.871094 24.921875 22.714844 C 24.875 22.917969 24.808594 23.132812 24.652344 23.277344 C 24.550781 23.371094 24.40625 23.425781 24.269531 23.414062 C 23.144531 22.449219 22.089844 21.503906 21.792969 21.207031 C 21.664062 21.078125 21.535156 20.941406 21.410156 20.792969 C 21.046875 20.34375 20.78125 19.8125 20.855469 19.257812 C 20.882812 19.019531 20.984375 18.773438 21.179688 18.625 C 21.269531 18.558594 21.371094 18.515625 21.480469 18.488281 C 21.636719 18.449219 21.800781 18.441406 21.960938 18.429688 C 22.261719 18.40625 22.566406 18.386719 22.867188 18.355469 C 23.855469 18.25 24.839844 18.082031 25.804688 17.835938 C 25.96875 17.796875 26.132812 17.757812 26.292969 17.707031 C 26.320312 17.703125 26.347656 17.695312 26.382812 17.679688 C 26.601562 17.613281 26.816406 17.492188 26.84375 17.28125 C 26.683594 17.292969 26.511719 17.308594 26.34375 17.320312 C 26.179688 17.335938 26.015625 17.347656 25.851562 17.363281 C 25.195312 17.417969 24.535156 17.472656 23.878906 17.519531 C 23.300781 17.574219 22.703125 17.621094 22.132812 17.574219 C 21.847656 17.550781 21.566406 17.503906 21.296875 17.429688 C 21.316406 17.160156 21.34375 16.894531 21.386719 16.628906 C 21.433594 16.363281 21.492188 16.097656 21.59375 15.847656 C 21.886719 15.128906 22.429688 14.5625 22.980469 14.007812 C 23.152344 13.835938 23.320312 13.660156 23.484375 13.492188 C 23.59375 13.375 23.707031 13.238281 23.75 13.089844 C 23.761719 13.050781 23.769531 13.003906 23.769531 12.960938 C 23.671875 12.996094 23.585938 13.035156 23.496094 13.082031 C 23.015625 13.316406 22.585938 13.632812 22.191406 14.007812 C 21.757812 14.421875 21.371094 14.898438 21.023438 15.394531 C 21.09375 15 21.203125 14.605469 21.34375 14.226562 C 21.515625 13.757812 21.738281 13.292969 21.988281 12.851562 C 22.191406 12.492188 22.417969 12.140625 22.65625 11.808594 C 22.363281 11.992188 22.097656 12.214844 21.867188 12.464844 C 21.800781 12.539062 21.738281 12.617188 21.675781 12.695312 C 21.261719 13.234375 20.984375 13.871094 20.738281 14.511719 C 20.476562 15.214844 20.25 15.9375 20.082031 16.675781 C 19.945312 17.292969 19.84375 17.933594 19.796875 18.578125 C 19.75 19.210938 19.761719 19.867188 20.039062 20.429688 C 20.140625 20.636719 20.269531 20.824219 20.421875 21.007812 C 20.460938 21.054688 20.503906 21.109375 20.542969 21.160156 C 21.609375 22.429688 22.953125 23.433594 24.191406 24.539062 C 23.925781 24.464844 23.660156 24.40625 23.386719 24.363281 C 22.785156 24.269531 21.695312 23.964844 21.039062 24.207031 C 20.957031 24.234375 20.882812 24.273438 20.820312 24.324219 C 20.800781 24.894531 20.808594 25.492188 20.992188 26.035156 C 21.085938 26.320312 21.277344 26.679688 21.488281 26.898438 C 21.738281 27.15625 22.007812 27.296875 22.335938 27.417969 C 22.945312 27.648438 23.578125 27.71875 24.175781 27.984375 C 24.460938 28.113281 24.652344 28.355469 24.8125 28.613281 C 24.921875 28.792969 25.023438 28.953125 25.113281 29.125 C 25.011719 29.523438 24.910156 29.925781 24.8125 30.320312 C 24.609375 31.121094 24.453125 31.96875 24.339844 32.824219 C 24.265625 33.292969 24.210938 33.761719 24.183594 34.222656 C 24.175781 34.339844 24.167969 34.460938 24.164062 34.578125 C 24.164062 34.625 24.175781 35.132812 24.195312 35.804688 C 24.195312 35.839844 24.195312 35.867188 24.195312 35.902344 C 24.195312 35.90625 24.195312 35.921875 24.195312 35.929688 L 24.726562 40.492188 C 24.839844 41.421875 25.011719 42.339844 25.25 43.25 C 25.390625 43.804688 25.546875 44.355469 25.71875 44.90625 C 25.914062 45.550781 26.179688 46.167969 26.503906 46.761719 C 26.742188 47.1875 26.972656 47.621094 27.199219 48.0625 C 27.511719 48.667969 27.9375 49.21875 28.449219 49.671875 C 28.835938 51.71875 28.828125 53.929688 28.691406 55.980469 C 28.625 57.09375 28.828125 58.175781 28.746094 59.308594 C 28.746094 59.355469 28.738281 59.410156 28.734375 59.457031 C 28.671875 60.089844 28.625 60.75 28.535156 61.394531 C 28.449219 61.726562 28.332031 62.066406 28.257812 62.390625 C 28.148438 62.894531 27.824219 63.125 27.476562 63.464844 C 27.253906 63.683594 26.941406 63.898438 26.761719 64.152344 C 26.558594 64.4375 26.4375 64.890625 26.375 65.21875 C 26.722656 65.171875 27.101562 65.183594 27.460938 65.136719 C 27.769531 65.09375 28.082031 65.074219 28.359375 64.925781 C 28.628906 64.78125 28.757812 64.519531 28.882812 64.246094 C 29.078125 63.796875 29.332031 63.351562 29.582031 62.941406 C 29.773438 62.910156 29.859375 63.078125 30.007812 62.886719 C 30.082031 62.792969 30.082031 62.570312 30.0625 62.445312 C 30.015625 62.175781 29.875 61.972656 29.875 61.691406 C 29.875 61.359375 29.914062 61.015625 29.933594 60.679688 C 29.960938 60.316406 29.96875 59.949219 29.96875 59.582031 C 29.996094 59.40625 30.03125 59.226562 30.0625 59.058594 C 30.421875 57.199219 31.082031 55.308594 31.148438 53.40625 C 31.191406 52.261719 31.386719 51.070312 32.140625 50.195312 C 32.367188 50.183594 32.589844 50.167969 32.8125 50.148438 C 32.792969 50.847656 32.835938 51.589844 32.882812 52.273438 C 32.921875 52.941406 32.882812 53.597656 32.835938 54.265625 C 32.785156 55.011719 32.480469 55.691406 32.753906 56.421875 C 33.042969 57.199219 33.125 57.875 33.140625 58.699219 C 33.148438 59.269531 33.207031 59.820312 33.1875 60.394531 C 33.179688 60.632812 33.160156 60.878906 33.140625 61.128906 C 33.121094 61.375 33.09375 61.625 33.078125 61.871094 C 33.042969 62.132812 33.011719 62.390625 32.996094 62.65625 C 32.96875 63.070312 32.765625 63.507812 32.628906 63.90625 C 32.527344 64.199219 32.398438 64.492188 32.285156 64.777344 C 32.175781 65.046875 32.121094 65.265625 32.214844 65.550781 C 32.367188 66.027344 32.433594 65.53125 32.707031 65.523438 C 32.671875 65.652344 32.679688 65.765625 32.617188 65.898438 C 33.003906 65.808594 33.316406 65.800781 33.613281 65.460938 C 33.875 65.175781 33.839844 64.871094 33.941406 64.53125 C 33.988281 64.367188 34.136719 64.21875 34.164062 64.035156 C 34.1875 63.886719 34.125 63.714844 34.125 63.554688 C 34.125 63.253906 34.160156 62.949219 34.1875 62.636719 C 34.21875 62.242188 34.253906 61.835938 34.210938 61.449219 C 34.207031 61.128906 34.191406 60.816406 34.207031 60.496094 C 34.238281 59.71875 34.207031 58.949219 34.328125 58.175781 C 34.464844 57.359375 34.539062 56.539062 34.652344 55.722656 C 34.777344 54.875 34.992188 54.03125 35.117188 53.183594 C 35.25 52.214844 35.613281 51.289062 35.773438 50.316406 C 35.796875 50.175781 35.828125 50.03125 35.863281 49.882812 C 37.898438 49.714844 39.9375 49.550781 41.949219 49.246094 C 42.441406 50.792969 42.988281 52.335938 43.789062 53.726562 C 44.03125 54.15625 44.3125 54.578125 44.40625 55.066406 C 44.460938 55.371094 44.445312 55.691406 44.417969 56.003906 C 44.269531 57.753906 43.835938 59.585938 43.21875 61.222656 C 43.191406 61.3125 43.164062 61.394531 43.128906 61.46875 C 42.945312 61.855469 42.753906 62.3125 42.449219 62.625 C 42.152344 62.9375 41.894531 63.214844 41.695312 63.609375 C 41.566406 63.867188 41.464844 64.15625 41.382812 64.429688 C 41.316406 64.652344 41.472656 64.605469 41.65625 64.585938 C 41.847656 64.566406 42.015625 64.523438 42.199219 64.476562 C 42.597656 64.367188 43.0625 64.28125 43.375 63.996094 C 43.613281 63.777344 43.699219 63.398438 43.753906 63.09375 C 43.792969 62.855469 43.792969 62.441406 44.101562 62.351562 C 44.289062 62.296875 44.324219 62.433594 44.425781 62.195312 C 44.433594 62.175781 44.445312 62.15625 44.453125 62.132812 C 44.9375 59.996094 45.738281 57.691406 46.78125 55.777344 C 46.871094 55.613281 46.960938 55.460938 47.007812 55.28125 C 47.144531 54.773438 46.898438 54.257812 46.660156 53.789062 C 46.15625 52.796875 45.65625 51.785156 45.480469 50.683594 C 45.398438 50.148438 45.402344 49.589844 45.519531 49.0625 C 45.59375 49.089844 45.675781 49.109375 45.75 49.136719 L 45.757812 49.136719 C 46.4375 49.375 47.011719 49.851562 47.375 50.46875 C 48.207031 51.902344 49.21875 53.285156 50.183594 54.15625 C 50.4375 54.378906 50.6875 54.609375 50.878906 54.886719 C 51.140625 55.277344 51.273438 55.730469 51.386719 56.179688 C 51.882812 58.09375 51.84375 59.09375 51.945312 61.066406 L 51.949219 61.191406 C 52.046875 61.734375 52.03125 62.277344 52.09375 62.820312 C 52.140625 63.234375 52.257812 63.59375 52.195312 64.015625 C 52.148438 64.320312 52.074219 64.625 52.003906 64.933594 C 51.945312 65.222656 51.929688 65.441406 52.074219 65.707031 C 52.304688 66.148438 52.285156 65.644531 52.546875 65.589844 C 52.542969 65.71875 52.570312 65.835938 52.527344 65.972656 C 52.894531 65.820312 53.199219 65.753906 53.4375 65.367188 C 53.640625 65.035156 53.554688 64.75 53.59375 64.390625 C 53.613281 64.226562 53.730469 64.050781 53.722656 63.859375 C 53.722656 63.703125 53.632812 63.546875 53.609375 63.390625 Z M 35.433594 19.183594 C 35.503906 19.324219 35.511719 19.480469 35.433594 19.644531 C 35.402344 19.515625 35.367188 19.386719 35.339844 19.261719 C 35.3125 19.15625 35.285156 19.039062 35.257812 18.929688 C 35.332031 19.003906 35.394531 19.09375 35.433594 19.183594 Z M 35.433594 19.183594 "/></g><g clip-rule="nonzero" clip-path="url(#5de437721c)"><path style=" stroke:none;fill-rule:nonzero;fill:#6dc17b;fill-opacity:1;" d="M 43.003906 24.019531 C 43.730469 24.046875 44.457031 24.101562 45.15625 24.242188 C 45.488281 24.296875 45.742188 24.496094 46.019531 24.660156 C 46.246094 24.828125 46.46875 24.859375 46.71875 24.691406 C 47 24.496094 47.277344 24.382812 47.503906 24.074219 C 47.640625 23.878906 48.003906 24.046875 48.035156 24.328125 C 48.117188 24.828125 48.367188 25.25 48.507812 25.722656 C 48.59375 26.085938 48.730469 26.421875 48.929688 26.757812 C 49.234375 27.261719 49.515625 27.792969 49.851562 28.265625 C 50.019531 28.492188 50.242188 28.660156 50.519531 28.6875 C 50.746094 28.714844 50.800781 28.660156 50.773438 28.464844 C 50.714844 28.210938 50.605469 27.988281 50.492188 27.738281 C 50.464844 27.652344 50.410156 27.539062 50.382812 27.429688 C 50.351562 27.34375 50.296875 27.234375 50.382812 27.175781 C 50.464844 27.121094 50.578125 27.121094 50.6875 27.207031 C 50.828125 27.316406 50.996094 27.402344 51.109375 27.511719 C 51.582031 28.070312 52.199219 27.707031 52.476562 27.261719 C 52.699219 26.898438 52.980469 26.5625 53.203125 26.226562 C 53.289062 26.085938 53.425781 25.976562 53.566406 26.085938 C 53.679688 26.199219 53.761719 26.339844 53.59375 26.535156 C 53.34375 26.84375 53.289062 27.234375 53.261719 27.597656 C 53.261719 27.652344 53.261719 27.707031 53.316406 27.738281 C 53.371094 27.765625 53.425781 27.738281 53.457031 27.679688 C 53.652344 27.429688 53.902344 27.234375 53.988281 26.925781 C 54.097656 26.421875 54.433594 26.03125 54.601562 25.554688 C 54.796875 25.023438 55.132812 24.550781 55.355469 24.046875 C 55.550781 23.628906 55.914062 23.320312 56.363281 23.125 C 56.472656 23.070312 56.558594 23.097656 56.585938 23.207031 C 56.585938 23.238281 56.585938 23.238281 56.585938 23.265625 C 56.976562 23.933594 56.753906 23.878906 57.480469 23.628906 C 58.179688 23.375 58.878906 23.207031 59.605469 23.039062 C 60.273438 22.875 60.972656 22.761719 61.671875 22.675781 C 62.34375 22.59375 63.042969 22.480469 63.742188 22.539062 C 64.273438 22.566406 64.832031 22.511719 65.363281 22.59375 C 65.613281 22.621094 65.863281 22.734375 66.089844 22.816406 C 66.226562 22.875 66.226562 22.957031 66.144531 23.039062 C 66.03125 23.152344 65.921875 23.179688 65.78125 23.207031 C 65.136719 23.375 64.46875 23.515625 63.851562 23.796875 C 63.152344 24.101562 62.652344 24.605469 62.316406 25.25 C 62.203125 25.472656 62.148438 25.722656 62.230469 25.976562 C 62.289062 26.144531 62.175781 26.171875 62.035156 26.144531 C 61.308594 25.976562 60.609375 26.171875 59.910156 26.3125 C 59.464844 26.394531 58.988281 26.480469 58.597656 26.675781 C 58.234375 26.871094 57.984375 27.207031 57.898438 27.625 C 57.84375 27.847656 57.898438 28.015625 58.09375 28.15625 C 58.121094 28.183594 58.179688 28.210938 58.179688 28.265625 C 58.152344 28.324219 58.09375 28.351562 58.039062 28.324219 C 57.230469 27.960938 56.699219 28.519531 56.109375 28.882812 C 55.523438 29.273438 55.132812 29.832031 54.714844 30.417969 C 54.351562 30.921875 53.957031 31.425781 53.371094 31.734375 C 53.035156 31.902344 52.671875 31.902344 52.308594 31.789062 C 51.863281 31.648438 51.414062 31.480469 50.96875 31.285156 C 50.269531 30.921875 49.515625 30.671875 48.789062 30.417969 C 48.367188 30.28125 47.894531 30.335938 47.53125 30.671875 C 47.417969 30.78125 47.277344 30.8125 47.140625 30.753906 C 47 30.699219 47 30.558594 47 30.449219 C 47 30.335938 47 30.195312 47 30.085938 C 47.082031 29.609375 46.859375 29.273438 46.578125 28.910156 C 46.105469 28.296875 45.433594 28.070312 44.734375 27.875 C 44.652344 27.847656 44.566406 27.875 44.484375 27.875 C 44.09375 27.960938 43.898438 27.820312 43.839844 27.429688 C 43.8125 27.207031 43.757812 27.066406 43.5625 26.953125 C 43.476562 26.925781 43.476562 26.8125 43.449219 26.757812 C 43.394531 26.589844 43.28125 26.421875 43.113281 26.367188 C 42.472656 26.03125 41.882812 25.640625 41.214844 25.386719 C 40.960938 25.304688 40.710938 25.222656 40.429688 25.25 C 40.066406 25.277344 39.761719 25.191406 39.453125 25.054688 C 39.480469 25.164062 39.425781 25.109375 39.425781 25.082031 C 39.398438 25.023438 39.480469 24.996094 39.535156 24.96875 C 39.761719 24.914062 39.929688 24.773438 40.125 24.660156 C 40.488281 24.4375 40.90625 24.328125 41.324219 24.242188 C 41.882812 24.160156 42.414062 23.933594 43.003906 24.019531 Z M 43.003906 24.019531 "/></g></g></svg>