<svg xmlns="http://www.w3.org/2000/svg" xmlns:xlink="http://www.w3.org/1999/xlink" width="106" zoomAndPan="magnify" viewBox="0 0 79.5 79.499996" height="106" preserveAspectRatio="xMidYMid meet" version="1.2"><defs><clipPath id="963f747f84"><path d="M 0 0 L 78.792969 0 L 78.792969 78.792969 L 0 78.792969 Z M 0 0 "/></clipPath><clipPath id="68c5d494a0"><path d="M 39.398438 0 C 17.636719 0 0 17.636719 0 39.398438 C 0 61.15625 17.636719 78.792969 39.398438 78.792969 C 61.15625 78.792969 78.792969 61.15625 78.792969 39.398438 C 78.792969 17.636719 61.15625 0 39.398438 0 Z M 39.398438 0 "/></clipPath><clipPath id="cbdab9c0c7"><path d="M 15 21 L 40 21 L 40 51 L 15 51 Z M 15 21 "/></clipPath><clipPath id="8c4330a7c6"><path d="M 24.953125 20.535156 L 41.9375 31.332031 L 26.742188 55.234375 L 9.761719 44.4375 Z M 24.953125 20.535156 "/></clipPath><clipPath id="9a450108be"><path d="M 24.953125 20.535156 L 41.9375 31.332031 L 26.742188 55.234375 L 9.761719 44.4375 Z M 24.953125 20.535156 "/></clipPath><clipPath id="aec6a683fd"><path d="M 37 18 L 58 18 L 58 39 L 37 39 Z M 37 18 "/></clipPath><clipPath id="a0d5aa309d"><path d="M 35.558594 35.515625 L 40.089844 15.144531 L 59.003906 19.355469 L 54.472656 39.726562 Z M 35.558594 35.515625 "/></clipPath><clipPath id="9d542825ec"><path d="M 35.558594 35.515625 L 40.089844 15.144531 L 59.003906 19.355469 L 54.472656 39.726562 Z M 35.558594 35.515625 "/></clipPath><clipPath id="2f4d158446"><path d="M 33.636719 41 L 60.957031 41 L 60.957031 60.847656 L 33.636719 60.847656 Z M 33.636719 41 "/></clipPath></defs><g id="e2e8f581e4"><g clip-rule="nonzero" clip-path="url(#963f747f84)"><g clip-rule="nonzero" clip-path="url(#68c5d494a0)"><path style=" stroke:none;fill-rule:nonzero;fill:#f5f5f4;fill-opacity:1;" d="M 0 0 L 78.792969 0 L 78.792969 78.792969 L 0 78.792969 Z M 0 0 "/></g></g><g clip-rule="nonzero" clip-path="url(#cbdab9c0c7)"><g clip-rule="nonzero" clip-path="url(#8c4330a7c6)"><g clip-rule="nonzero" clip-path="url(#9a450108be)"><path style=" stroke:none;fill-rule:nonzero;fill:#6dc17b;fill-opacity:1;" d="M 32.085938 39.527344 C 34.199219 39.316406 36.214844 38.277344 37.609375 36.679688 C 39.019531 35.066406 39.777344 32.902344 39.6875 30.761719 C 38.367188 32.085938 36.949219 33.308594 35.449219 34.417969 C 35.179688 33.347656 35.085938 32.238281 35.171875 31.140625 C 32.914062 32.621094 31.261719 34.992188 30.648438 37.625 C 30.59375 37.863281 30.554688 38.125 30.558594 38.375 C 29.742188 38.527344 28.917969 38.632812 28.089844 38.699219 C 28.097656 38.683594 28.105469 38.667969 28.109375 38.652344 C 28.457031 37.753906 29.613281 34.722656 29.265625 33.261719 C 30.675781 31.988281 32.183594 30.78125 33.734375 29.703125 C 33.914062 29.578125 34.132812 29.40625 34.160156 29.273438 C 34.199219 29.082031 33.8125 29.257812 33.550781 29.4375 C 32.023438 30.484375 30.53125 31.652344 29.125 32.890625 C 29.042969 32.753906 28.941406 32.644531 28.804688 32.570312 C 28.761719 32.546875 28.714844 32.53125 28.671875 32.511719 C 29.199219 30.699219 29.628906 28.839844 29.933594 26.996094 C 29.984375 26.679688 29.980469 26.253906 29.820312 26.371094 C 29.710938 26.453125 29.652344 26.722656 29.613281 26.9375 C 29.296875 28.777344 28.855469 30.632812 28.304688 32.429688 C 27.921875 32.394531 27.519531 32.507812 27.1875 32.707031 C 26.109375 33.359375 25.078125 34.222656 24.140625 35.21875 C 23.867188 34.484375 23.628906 33.738281 23.433594 32.980469 C 23.664062 32.878906 23.882812 32.734375 24.078125 32.582031 C 26.199219 30.910156 27.644531 28.40625 28.027344 25.734375 C 27.070312 26.277344 26.027344 26.664062 24.945312 26.875 C 25.3125 25.042969 25.816406 23.242188 26.453125 21.488281 C 24.476562 22.3125 22.839844 23.917969 21.976562 25.875 C 21.121094 27.816406 21.039062 30.085938 21.742188 32.085938 C 21.316406 33.683594 21.460938 35.441406 22.230469 36.90625 C 22.296875 37.039062 22.375 37.167969 22.457031 37.292969 C 22.035156 37.894531 21.652344 38.515625 21.308594 39.148438 C 20.910156 39.167969 20.503906 39.164062 20.097656 39.132812 C 18.75 39.027344 18.011719 37.238281 17.78125 36.226562 C 17.746094 36.082031 17.707031 35.914062 17.570312 35.820312 C 17.4375 35.730469 17.375 35.75 17.355469 35.832031 C 17.300781 36.105469 17.730469 37.074219 17.773438 37.179688 C 18.101562 37.984375 18.582031 38.925781 19.507812 39.300781 C 19.890625 39.453125 20.300781 39.46875 20.695312 39.464844 C 20.847656 39.464844 21 39.460938 21.152344 39.453125 C 21.070312 39.609375 20.988281 39.765625 20.910156 39.925781 C 20.402344 39.96875 19.882812 39.972656 19.359375 39.929688 C 18.015625 39.824219 17.277344 38.039062 17.042969 37.023438 C 17.007812 36.878906 16.96875 36.710938 16.835938 36.621094 C 16.699219 36.527344 16.636719 36.546875 16.621094 36.628906 C 16.5625 36.902344 16.996094 37.875 17.035156 37.976562 C 17.367188 38.785156 17.84375 39.722656 18.769531 40.097656 C 19.152344 40.253906 19.5625 40.269531 19.960938 40.265625 C 20.230469 40.261719 20.503906 40.25 20.773438 40.234375 C 20.679688 40.433594 20.589844 40.636719 20.507812 40.839844 C 19.964844 40.890625 19.40625 40.898438 18.84375 40.851562 C 17.5 40.746094 16.761719 38.960938 16.527344 37.949219 C 16.496094 37.800781 16.457031 37.632812 16.320312 37.542969 C 16.183594 37.449219 16.121094 37.46875 16.105469 37.550781 C 16.046875 37.828125 16.480469 38.796875 16.523438 38.898438 C 16.851562 39.707031 17.328125 40.644531 18.253906 41.019531 C 18.636719 41.175781 19.046875 41.191406 19.445312 41.1875 C 19.761719 41.183594 20.074219 41.167969 20.386719 41.144531 C 20.308594 41.34375 20.238281 41.542969 20.171875 41.738281 C 19.570312 41.808594 18.953125 41.824219 18.332031 41.773438 C 16.984375 41.667969 16.246094 39.882812 16.011719 38.871094 C 15.980469 38.722656 15.941406 38.554688 15.804688 38.464844 C 15.671875 38.371094 15.605469 38.390625 15.589844 38.472656 C 15.535156 38.75 15.964844 39.71875 16.007812 39.820312 C 16.335938 40.628906 16.8125 41.566406 17.738281 41.941406 C 18.121094 42.097656 18.53125 42.113281 18.929688 42.109375 C 19.3125 42.105469 19.691406 42.085938 20.066406 42.054688 C 20.003906 42.257812 19.941406 42.464844 19.890625 42.671875 C 19.535156 44.039062 19.25 45.632812 18.03125 46.351562 C 17.644531 46.582031 17.171875 46.714844 16.914062 47.082031 C 16.007812 48.402344 18.339844 49.6875 19.34375 50.015625 C 19.875 50.1875 20.550781 50.058594 20.832031 49.574219 C 21.058594 49.1875 20.980469 48.703125 21.023438 48.253906 C 21.15625 46.847656 22.476562 45.914062 23.566406 45.007812 C 23.695312 44.902344 23.820312 44.792969 23.945312 44.683594 C 24.054688 44.96875 24.171875 45.257812 24.300781 45.539062 C 24.46875 45.902344 24.65625 46.265625 24.957031 46.546875 C 25.691406 47.226562 26.742188 47.261719 27.613281 47.214844 C 27.722656 47.210938 28.785156 47.191406 29.007812 47.023438 C 29.078125 46.972656 29.070312 46.90625 28.929688 46.824219 C 28.785156 46.738281 28.621094 46.773438 28.472656 46.808594 C 27.457031 47.027344 25.527344 47.113281 24.859375 45.941406 C 24.585938 45.464844 24.359375 44.972656 24.179688 44.46875 C 24.335938 44.324219 24.488281 44.175781 24.636719 44.023438 C 24.726562 44.246094 24.816406 44.464844 24.917969 44.683594 C 25.082031 45.042969 25.273438 45.410156 25.574219 45.691406 C 26.308594 46.367188 27.359375 46.402344 28.230469 46.359375 C 28.339844 46.351562 29.402344 46.332031 29.625 46.164062 C 29.695312 46.113281 29.683594 46.046875 29.542969 45.964844 C 29.402344 45.882812 29.234375 45.917969 29.089844 45.949219 C 28.074219 46.167969 26.140625 46.257812 25.476562 45.082031 C 25.234375 44.664062 25.035156 44.230469 24.863281 43.789062 C 25.015625 43.628906 25.164062 43.46875 25.308594 43.300781 C 25.378906 43.476562 25.453125 43.652344 25.535156 43.824219 C 25.699219 44.1875 25.886719 44.550781 26.191406 44.832031 C 26.921875 45.511719 27.976562 45.546875 28.847656 45.5 C 28.957031 45.496094 30.019531 45.472656 30.242188 45.308594 C 30.3125 45.253906 30.300781 45.191406 30.160156 45.109375 C 30.019531 45.023438 29.851562 45.058594 29.703125 45.089844 C 28.691406 45.308594 26.757812 45.398438 26.089844 44.226562 C 25.871094 43.84375 25.6875 43.445312 25.523438 43.042969 C 25.640625 42.90625 25.75 42.769531 25.859375 42.628906 C 25.890625 42.691406 25.914062 42.757812 25.945312 42.820312 C 26.109375 43.179688 26.296875 43.546875 26.601562 43.824219 C 27.332031 44.503906 28.386719 44.539062 29.257812 44.496094 C 29.367188 44.488281 30.425781 44.46875 30.652344 44.300781 C 30.722656 44.25 30.710938 44.183594 30.570312 44.101562 C 30.429688 44.019531 30.261719 44.054688 30.113281 44.085938 C 29.097656 44.304688 27.167969 44.394531 26.5 43.21875 C 26.339844 42.9375 26.195312 42.648438 26.066406 42.351562 C 26.375 41.9375 26.664062 41.507812 26.929688 41.066406 C 27.121094 41.101562 27.320312 41.125 27.515625 41.132812 C 29.171875 41.207031 30.824219 40.59375 32.085938 39.527344 "/></g></g></g><g clip-rule="nonzero" clip-path="url(#aec6a683fd)"><g clip-rule="nonzero" clip-path="url(#a0d5aa309d)"><g clip-rule="nonzero" clip-path="url(#9d542825ec)"><path style=" stroke:none;fill-rule:nonzero;fill:#6dc17b;fill-opacity:1;" d="M 53.804688 18.753906 C 55.132812 18.976562 56.25 19.679688 57.0625 20.867188 C 57.21875 21.09375 57.449219 21.269531 57.640625 21.476562 C 57.84375 21.703125 57.886719 21.964844 57.835938 22.261719 C 57.6875 23.078125 57.1875 23.585938 56.453125 23.914062 C 55.390625 24.390625 54.296875 24.777344 53.183594 25.097656 C 52.414062 25.316406 51.660156 25.570312 50.941406 25.921875 C 48.90625 26.917969 46.738281 27.425781 44.503906 27.703125 C 43.460938 27.835938 42.417969 27.992188 41.363281 27.894531 C 40.457031 27.808594 39.59375 27.59375 38.832031 27.078125 C 37.949219 26.480469 37.738281 25.71875 38.175781 24.742188 C 38.484375 24.058594 39 23.554688 39.609375 23.144531 C 39.9375 22.921875 40.289062 22.730469 40.636719 22.535156 C 41.621094 21.988281 42.519531 21.308594 43.476562 20.71875 C 46.3125 18.96875 49.398438 18.285156 52.707031 18.566406 C 53.046875 18.59375 53.390625 18.632812 53.804688 18.753906 Z M 45.765625 26.324219 C 45.613281 26.328125 45.460938 26.328125 45.3125 26.332031 C 43.789062 26.339844 42.347656 26.089844 41.152344 25.082031 C 41.476562 25.9375 44.046875 26.628906 45.765625 26.324219 Z M 44.769531 35.105469 C 45.113281 33.769531 45.644531 32.601562 46.433594 31.550781 C 47.132812 30.621094 47.8125 29.683594 48.476562 28.734375 C 49.183594 27.722656 50.089844 26.980469 51.253906 26.554688 C 52.078125 26.253906 52.894531 25.925781 53.722656 25.632812 C 54.476562 25.367188 55.265625 25.226562 56.058594 25.148438 C 57.097656 25.050781 57.589844 25.707031 57.265625 26.707031 C 57.152344 27.054688 56.945312 27.339844 56.753906 27.628906 C 55.601562 29.359375 54.65625 31.207031 53.703125 33.050781 C 52.773438 34.839844 51.46875 36.269531 49.75 37.324219 C 48.808594 37.902344 47.8125 38.207031 46.71875 37.988281 C 46.117188 37.867188 45.59375 37.535156 45.15625 37.109375 C 44.675781 36.644531 44.628906 36.039062 44.730469 35.414062 C 44.75 35.289062 44.761719 35.164062 44.769531 35.105469 Z M 49.519531 35.710938 C 49.597656 35.546875 49.667969 35.398438 49.734375 35.253906 C 49.984375 34.726562 50.257812 34.214844 50.628906 33.765625 C 52.019531 32.0625 53.554688 30.5 55.167969 29.011719 C 55.265625 28.921875 55.359375 28.832031 55.453125 28.738281 C 54.949219 29.0625 54.46875 29.410156 54.019531 29.796875 C 52.726562 30.917969 51.375 31.972656 50.144531 33.167969 C 49.570312 33.722656 48.839844 34.082031 48.304688 34.6875 C 48.070312 34.949219 47.820312 35.203125 47.570312 35.453125 C 46.984375 36.042969 46.320312 36.449219 45.441406 36.367188 C 45.667969 36.449219 45.890625 36.449219 46.117188 36.417969 C 46.824219 36.320312 47.335938 35.894531 47.828125 35.425781 C 48.34375 34.929688 48.824219 34.394531 49.40625 33.972656 C 50.058594 33.496094 50.671875 32.976562 51.230469 32.390625 C 51.507812 32.105469 51.792969 31.824219 52.113281 31.585938 C 52.171875 31.539062 52.226562 31.464844 52.339844 31.523438 C 51.871094 32.058594 51.433594 32.601562 50.945312 33.097656 C 50.308594 33.738281 49.839844 34.476562 49.460938 35.289062 C 49.386719 35.445312 49.351562 35.570312 49.519531 35.710938 Z M 49.519531 35.710938 "/></g></g></g><path style=" stroke:none;fill-rule:nonzero;fill:#6dc17b;fill-opacity:1;" d="M 54.03125 45.203125 C 54.03125 42.210938 52.535156 39.21875 54.03125 37.71875 C 55.53125 36.222656 56.277344 39.21875 55.53125 39.21875 C 54.472656 39.21875 54.03125 40.714844 54.78125 42.957031 C 55.53125 45.203125 54.03125 45.953125 54.03125 45.203125 Z M 56.933594 45.203125 C 56.933594 42.210938 55.4375 39.21875 56.933594 37.71875 C 58.429688 36.222656 59.179688 39.21875 58.429688 39.21875 C 57.371094 39.21875 56.933594 40.714844 57.679688 42.957031 C 58.429688 45.203125 56.933594 45.953125 56.933594 45.203125 Z M 56.933594 45.203125 "/><g clip-rule="nonzero" clip-path="url(#2f4d158446)"><path style=" stroke:none;fill-rule:nonzero;fill:#6dc17b;fill-opacity:1;" d="M 33.828125 59.703125 C 33.828125 60.449219 34.578125 60.449219 35.324219 60.449219 L 52.535156 60.449219 C 56.277344 60.449219 57.976562 58.136719 58.523438 55.960938 C 59.273438 52.96875 57.027344 47.730469 58.523438 46.980469 C 60.019531 46.234375 60.769531 46.234375 60.769531 44.734375 C 60.769531 43.238281 57.421875 40.796875 55.53125 41.742188 C 52.535156 43.238281 53.460938 46.929688 54.03125 49.226562 C 54.691406 51.863281 53.199219 51.914062 50.292969 52.96875 C 46.59375 54.304688 41.070312 56.289062 39.816406 56.710938 C 37.570312 57.457031 33.828125 58.953125 33.828125 59.703125 Z M 33.828125 59.703125 "/></g><path style=" stroke:none;fill-rule:nonzero;fill:#6dc17b;fill-opacity:1;" d="M 52.59375 52.21875 C 50.433594 52.96875 49.710938 58.953125 42.511719 58.953125 C 37.738281 58.953125 36.03125 54.851562 36.03125 50.722656 C 36.03125 46.589844 39.898438 43.238281 44.671875 43.238281 C 49.445312 43.238281 53.277344 51.980469 52.59375 52.21875 Z M 52.59375 52.21875 "/><path style=" stroke:none;fill-rule:nonzero;fill:#6dc17b;fill-opacity:1;" d="M 42.125 58.957031 C 40.847656 58.957031 39.589844 58.597656 38.464844 57.894531 C 36.828125 56.875 35.671875 55.253906 35.210938 53.332031 C 34.066406 48.570312 36.859375 43.726562 41.441406 42.535156 C 46.976562 41.097656 52.605469 44.609375 53.992188 50.359375 C 54.183594 51.164062 53.714844 51.976562 52.945312 52.175781 C 52.175781 52.378906 51.390625 51.890625 51.195312 51.085938 C 50.199219 46.9375 46.136719 44.40625 42.140625 45.441406 C 39.101562 46.230469 37.246094 49.445312 38.003906 52.605469 C 38.28125 53.753906 38.96875 54.722656 39.945312 55.328125 C 40.921875 55.9375 42.066406 56.117188 43.171875 55.828125 C 43.980469 55.617188 44.660156 55.09375 45.089844 54.351562 C 45.519531 53.609375 45.644531 52.738281 45.441406 51.894531 C 45.300781 51.300781 44.941406 50.800781 44.4375 50.484375 C 43.929688 50.167969 43.292969 49.953125 42.765625 50.226562 C 41.792969 50.722656 41.792969 52.21875 42.511719 52.96875 C 43.074219 53.554688 41.3125 53.765625 40.351562 52.96875 C 39.492188 52.253906 39.121094 51.105469 39.554688 49.828125 C 39.988281 48.535156 40.902344 47.625 42.066406 47.320312 C 43.382812 46.980469 44.753906 47.191406 45.917969 47.917969 C 47.082031 48.644531 47.90625 49.800781 48.238281 51.171875 C 48.625 52.785156 48.386719 54.460938 47.5625 55.890625 C 46.734375 57.320312 45.425781 58.328125 43.871094 58.730469 C 43.289062 58.882812 42.703125 58.957031 42.125 58.957031 Z M 42.125 58.957031 "/></g></svg>