<svg xmlns="http://www.w3.org/2000/svg" xmlns:xlink="http://www.w3.org/1999/xlink" width="106" zoomAndPan="magnify" viewBox="0 0 79.5 79.499996" height="106" preserveAspectRatio="xMidYMid meet" version="1.2"><defs><clipPath id="1299eaf3a5"><path d="M 0 0 L 78.792969 0 L 78.792969 78.792969 L 0 78.792969 Z M 0 0 "/></clipPath><clipPath id="f815d65c92"><path d="M 39.398438 0 C 17.636719 0 0 17.636719 0 39.398438 C 0 61.15625 17.636719 78.792969 39.398438 78.792969 C 61.15625 78.792969 78.792969 61.15625 78.792969 39.398438 C 78.792969 17.636719 61.15625 0 39.398438 0 Z M 39.398438 0 "/></clipPath><clipPath id="9f9c195cb9"><path d="M 13.976562 17.34375 L 41.757812 17.34375 L 41.757812 59.867188 L 13.976562 59.867188 Z M 13.976562 17.34375 "/></clipPath><clipPath id="f01b41cb68"><path d="M 41.484375 31.109375 L 59 31.109375 L 59 60 L 41.484375 60 Z M 41.484375 31.109375 "/></clipPath><clipPath id="94955baf10"><path d="M 48.332031 17.347656 L 56.414062 17.347656 L 56.414062 29.09375 L 48.332031 29.09375 Z M 48.332031 17.347656 "/></clipPath><clipPath id="1b7d5684a0"><path d="M 41.484375 23 L 50 23 L 50 40.589844 L 41.484375 40.589844 Z M 41.484375 23 "/></clipPath></defs><g id="3c0926098f"><g clip-rule="nonzero" clip-path="url(#1299eaf3a5)"><g clip-rule="nonzero" clip-path="url(#f815d65c92)"><path style=" stroke:none;fill-rule:nonzero;fill:#f5f5f4;fill-opacity:1;" d="M 0 0 L 78.792969 0 L 78.792969 78.792969 L 0 78.792969 Z M 0 0 "/></g></g><g clip-rule="nonzero" clip-path="url(#9f9c195cb9)"><path style=" stroke:none;fill-rule:nonzero;fill:#6dc17b;fill-opacity:1;" d="M 30.574219 36.195312 C 30.035156 35.191406 29.109375 33.933594 27.90625 32.445312 C 26.699219 30.960938 25.773438 30.679688 23.488281 29.519531 C 21.207031 28.359375 13.980469 27.828125 13.980469 28.933594 C 13.980469 30.785156 15.777344 31.960938 17.695312 33.628906 C 19.613281 35.296875 20.085938 36.429688 22.398438 37.097656 C 24.710938 37.765625 30.097656 37.355469 30.097656 37.355469 C 30.097656 37.355469 30.582031 38.582031 30.945312 39.25 C 31.308594 39.917969 32.464844 43.179688 32.464844 43.179688 L 31.613281 43.308594 C 30.257812 43.4375 29.664062 44.976562 29.429688 46 C 29.195312 47.023438 30.40625 48.261719 31.171875 48.59375 L 32.757812 49.277344 C 32.757812 49.277344 32.820312 52.484375 32.917969 54.414062 C 33.085938 57.660156 34.367188 59.867188 34.367188 59.867188 L 35.246094 59.867188 L 34.671875 56.574219 L 33.5625 49.671875 C 38.136719 50.953125 40.148438 49.671875 40.148438 49.671875 C 41.191406 43.976562 39.5 42.132812 37.933594 41.890625 C 36.363281 41.648438 36.117188 42.109375 34.769531 42.695312 C 34.164062 42.960938 33.246094 43.089844 33.246094 43.089844 L 33 36.351562 C 33 36.351562 34.609375 34.910156 36.460938 34.265625 C 38.3125 33.621094 38.933594 29.695312 39.257812 28.328125 C 39.585938 26.960938 40.859375 22.882812 41.09375 21.835938 C 41.328125 20.789062 41.09375 17.34375 41.09375 17.34375 C 41.09375 17.34375 40.046875 17.746094 37.917969 19.429688 C 35.785156 21.113281 32.585938 27.851562 32.105469 31.703125 C 31.628906 35.554688 31.703125 38.4375 31.703125 38.4375 C 31.703125 38.4375 31.121094 37.195312 30.574219 36.195312 Z M 30.574219 36.195312 "/></g><g clip-rule="nonzero" clip-path="url(#f01b41cb68)"><path style=" stroke:none;fill-rule:nonzero;fill:#6dc17b;fill-opacity:1;" d="M 48.203125 53.867188 C 48.175781 53.914062 48.148438 53.960938 48.121094 54.011719 C 48.863281 53.585938 49.617188 53.164062 50.183594 52.515625 C 50.785156 51.828125 51.234375 51.023438 51.894531 50.390625 C 53.179688 49.15625 54.917969 48.59375 56.613281 48.171875 C 56.824219 48.117188 57.035156 48.070312 57.246094 48.019531 C 57.472656 47.964844 57.714844 47.886719 57.949219 47.902344 C 58.339844 47.933594 58.578125 48.246094 58.617188 48.621094 C 58.703125 49.523438 57.738281 49.84375 57.164062 50.304688 C 55.972656 51.261719 55.378906 52.882812 53.945312 53.546875 C 53.492188 53.757812 53.003906 53.839844 52.511719 53.886719 C 51.980469 53.933594 51.449219 53.957031 50.921875 54.007812 C 49.875 54.109375 48.839844 54.273438 47.816406 54.5 C 47.628906 54.777344 47.425781 55.042969 47.195312 55.289062 C 46.804688 55.710938 46.375 56.09375 45.9375 56.460938 C 45.140625 57.132812 44.285156 57.785156 43.363281 58.28125 C 43.605469 58.351562 43.847656 58.417969 44.09375 58.464844 C 44.707031 58.585938 45.304688 58.558594 45.839844 58.214844 C 46.308594 57.910156 46.714844 57.511719 47.125 57.136719 C 47.914062 56.414062 48.746094 55.65625 49.804688 55.371094 C 50.414062 55.207031 51.050781 55.207031 51.671875 55.097656 C 52.285156 54.988281 52.84375 54.683594 53.457031 54.574219 C 53.753906 54.519531 54.0625 54.515625 54.355469 54.605469 C 54.621094 54.691406 54.855469 54.847656 55.089844 54.996094 C 55.332031 55.144531 55.570312 55.273438 55.847656 55.328125 C 56.140625 55.390625 56.445312 55.378906 56.742188 55.371094 C 57.027344 55.359375 57.359375 55.300781 57.628906 55.40625 C 57.855469 55.488281 58.003906 55.683594 58.039062 55.917969 C 58.109375 56.429688 57.769531 56.875 57.464844 57.242188 C 57.082031 57.699219 56.636719 58.097656 56.148438 58.433594 C 55.660156 58.773438 55.109375 59.058594 54.515625 59.152344 C 54.203125 59.199219 53.890625 59.1875 53.582031 59.113281 C 53.300781 59.046875 53.03125 58.957031 52.742188 58.953125 C 52.265625 58.953125 51.832031 59.140625 51.382812 59.28125 C 50.925781 59.425781 50.503906 59.671875 50.042969 59.820312 C 49.605469 59.960938 49.136719 60.015625 48.691406 59.878906 C 48.414062 59.796875 48.164062 59.648438 47.910156 59.519531 C 47.636719 59.382812 47.351562 59.292969 47.046875 59.265625 C 46.421875 59.210938 45.796875 59.339844 45.175781 59.398438 C 44.238281 59.488281 43.113281 59.339844 42.589844 58.453125 C 42.558594 58.402344 42.546875 58.351562 42.550781 58.308594 C 42.496094 58.136719 42.464844 57.964844 42.453125 57.777344 C 42.421875 57.332031 42.5 56.871094 42.40625 56.425781 C 42.3125 55.988281 42.046875 55.613281 41.863281 55.210938 C 41.492188 54.386719 41.480469 53.457031 41.753906 52.601562 C 41.886719 52.179688 42.078125 51.777344 42.3125 51.398438 C 42.5625 50.992188 42.835938 50.609375 42.964844 50.144531 C 43.214844 49.246094 43.039062 48.296875 43.089844 47.378906 C 43.113281 46.949219 43.160156 46.464844 43.433594 46.113281 C 43.679688 45.800781 44.121094 45.644531 44.484375 45.839844 C 44.816406 46.019531 44.941406 46.421875 44.980469 46.769531 C 45.035156 47.222656 45.003906 47.6875 44.980469 48.140625 C 44.960938 48.609375 44.933594 49.085938 45.007812 49.554688 C 45.078125 50.011719 45.277344 50.394531 45.460938 50.8125 C 45.648438 51.238281 45.707031 51.652344 45.628906 52.117188 C 45.558594 52.5625 45.382812 52.992188 45.347656 53.449219 C 45.308594 53.917969 45.5 54.363281 45.429688 54.835938 C 45.363281 55.265625 45.128906 55.65625 44.867188 56 C 44.558594 56.402344 44.222656 56.78125 43.867188 57.144531 C 44.03125 57.03125 44.199219 56.917969 44.359375 56.800781 C 44.863281 56.441406 45.347656 56.054688 45.8125 55.644531 C 46.238281 55.265625 46.664062 54.875 47.019531 54.425781 C 47.082031 54.34375 47.140625 54.261719 47.199219 54.175781 C 47.199219 54.167969 47.203125 54.152344 47.207031 54.140625 C 47.273438 53.914062 47.34375 53.6875 47.417969 53.464844 C 47.570312 52.691406 47.636719 51.84375 47.257812 51.128906 C 47.039062 50.714844 46.691406 50.390625 46.582031 49.921875 C 46.46875 49.445312 46.558594 48.957031 46.574219 48.476562 C 46.613281 47.511719 46.25 46.632812 45.609375 45.921875 C 44.992188 45.234375 44.1875 44.582031 44.019531 43.617188 C 43.945312 43.207031 43.972656 42.6875 44.320312 42.402344 C 44.703125 42.089844 45.214844 42.238281 45.589844 42.480469 C 45.78125 42.601562 45.960938 42.746094 46.171875 42.832031 C 46.363281 42.910156 46.578125 42.949219 46.785156 42.972656 C 47.222656 43.019531 47.667969 43.039062 48.078125 43.21875 C 48.820312 43.546875 49.128906 44.359375 49.152344 45.121094 C 49.167969 45.585938 49.035156 46.039062 49.050781 46.503906 C 49.0625 46.761719 49.121094 47.011719 49.160156 47.269531 C 49.203125 47.535156 49.226562 47.804688 49.222656 48.074219 C 49.214844 49.125 48.824219 50.125 48.496094 51.109375 C 48.304688 51.691406 48.113281 52.273438 47.917969 52.859375 C 47.914062 52.902344 47.910156 52.949219 47.902344 52.996094 C 48.203125 52.515625 48.589844 52.125 48.964844 51.699219 C 49.296875 51.320312 49.542969 50.878906 49.710938 50.402344 C 50.242188 48.890625 50.203125 47.058594 51.035156 45.667969 C 51.039062 45.429688 51.046875 45.195312 51.03125 44.960938 C 51.007812 44.621094 50.953125 44.277344 50.84375 43.957031 C 50.734375 43.644531 50.582031 43.34375 50.371094 43.089844 C 50.148438 42.816406 49.867188 42.613281 49.574219 42.417969 C 49.304688 42.234375 49.027344 42.050781 48.8125 41.804688 C 48.597656 41.558594 48.449219 41.269531 48.367188 40.953125 C 48.1875 40.269531 48.242188 39.515625 48.253906 38.816406 C 48.257812 38.410156 48.277344 38.003906 48.316406 37.597656 C 48.34375 37.300781 48.34375 36.925781 48.558594 36.691406 C 48.796875 36.429688 49.113281 36.582031 49.304688 36.8125 C 49.519531 37.066406 49.660156 37.367188 49.761719 37.679688 C 49.988281 38.378906 50.078125 39.121094 50.222656 39.839844 C 50.375 40.59375 50.574219 41.316406 50.890625 42.019531 C 51.183594 42.675781 51.511719 43.332031 51.609375 44.054688 C 51.632812 44.230469 51.644531 44.421875 51.636719 44.617188 C 51.730469 44.382812 51.773438 44.132812 51.808594 43.882812 C 51.84375 43.613281 51.871094 43.34375 51.878906 43.066406 C 51.886719 42.511719 51.828125 41.953125 51.804688 41.398438 C 51.753906 40.277344 51.855469 39.089844 52.683594 38.253906 C 53.390625 37.539062 54.398438 37.210938 55.058594 36.453125 C 55.730469 35.675781 55.683594 34.5625 55.789062 33.601562 C 55.84375 33.09375 55.929688 32.585938 56.160156 32.125 C 56.390625 31.660156 56.796875 31.175781 57.355469 31.136719 C 57.597656 31.117188 57.867188 31.210938 58.039062 31.390625 C 58.265625 31.628906 58.261719 31.945312 58.242188 32.253906 C 58.191406 32.9375 58.082031 33.617188 57.972656 34.296875 C 57.867188 34.96875 57.785156 35.640625 57.734375 36.316406 C 57.683594 37.003906 57.648438 37.695312 57.574219 38.382812 C 57.445312 39.570312 57.1875 40.761719 56.546875 41.785156 C 56.253906 42.261719 55.882812 42.679688 55.4375 43.023438 C 55.023438 43.34375 54.570312 43.597656 54.105469 43.835938 C 53.222656 44.296875 52.292969 44.695312 51.640625 45.46875 C 51.152344 46.226562 50.976562 47.152344 50.839844 48.039062 C 50.859375 48.027344 50.875 48.015625 50.894531 48.003906 C 51.066406 47.722656 51.253906 47.449219 51.457031 47.191406 C 51.878906 46.652344 52.398438 46.164062 53.019531 45.859375 C 53.320312 45.710938 53.636719 45.609375 53.964844 45.542969 C 54.34375 45.46875 54.726562 45.417969 55.09375 45.292969 C 55.820312 45.046875 56.445312 44.589844 57.207031 44.433594 C 57.675781 44.339844 58.929688 44.171875 58.828125 44.996094 C 58.742188 45.714844 57.878906 45.90625 57.300781 45.996094 C 56.945312 46.050781 56.609375 46.121094 56.300781 46.304688 C 56.03125 46.46875 55.792969 46.675781 55.558594 46.882812 C 55.320312 47.089844 55.082031 47.296875 54.816406 47.460938 C 54.664062 47.554688 54.519531 47.648438 54.351562 47.714844 C 54.191406 47.773438 54.027344 47.820312 53.859375 47.851562 C 53.167969 47.988281 52.449219 47.925781 51.773438 48.125 C 51.515625 48.199219 51.261719 48.3125 51.050781 48.480469 C 50.921875 48.582031 50.8125 48.710938 50.71875 48.851562 C 50.597656 49.648438 50.453125 50.4375 50.105469 51.175781 C 49.871094 51.683594 49.523438 52.101562 49.152344 52.511719 C 48.964844 52.714844 48.78125 52.925781 48.625 53.15625 C 48.472656 53.386719 48.339844 53.628906 48.203125 53.871094 Z M 48.203125 53.867188 "/></g><g clip-rule="nonzero" clip-path="url(#94955baf10)"><path style=" stroke:none;fill-rule:nonzero;fill:#6dc17b;fill-opacity:1;" d="M 49.488281 24.507812 C 49.4375 24.257812 49.25 24.148438 49.09375 23.96875 C 49.046875 23.910156 49.011719 23.839844 49 23.765625 C 49.039062 23.289062 48.734375 22.886719 48.605469 22.441406 C 48.132812 20.828125 48.191406 18.769531 49.484375 17.546875 C 49.703125 17.335938 50.203125 17.214844 50.3125 17.582031 C 50.492188 19.199219 49.367188 20.847656 49.78125 22.503906 C 50.09375 21.09375 50.589844 19.675781 51.589844 18.601562 C 52.011719 18.148438 52.472656 17.722656 53.050781 17.476562 C 53.714844 17.160156 54.171875 17.507812 53.828125 18.21875 C 52.996094 19.855469 51.230469 20.855469 50.597656 22.625 C 50.566406 22.695312 50.511719 22.886719 50.65625 22.832031 C 51.671875 22.25 52.769531 21.695312 53.957031 21.636719 C 54.082031 21.632812 54.199219 21.578125 54.328125 21.589844 C 54.414062 21.597656 54.5 21.585938 54.585938 21.621094 C 55.816406 21.554688 57.476562 23.0625 55.496094 23.527344 C 54.203125 23.660156 52.914062 23.488281 51.617188 23.519531 C 50.46875 23.582031 50.6875 23.84375 51.285156 24.566406 C 52.269531 25.867188 53.890625 26.207031 55.335938 26.742188 C 55.542969 26.824219 55.707031 26.972656 55.847656 27.148438 C 56.097656 27.757812 55.210938 28.03125 54.753906 28.132812 C 52.570312 28.472656 51.214844 26.546875 50.507812 24.753906 C 50.480469 24.695312 50.480469 24.609375 50.386719 24.601562 C 50.308594 25.519531 50.753906 26.4375 51.34375 27.117188 C 51.671875 27.515625 52.085938 27.941406 52.066406 28.496094 C 52.054688 28.847656 51.75 29.0625 51.417969 29.085938 C 49.765625 28.996094 49.421875 26.589844 49.480469 25.28125 C 49.496094 25.023438 49.5625 24.757812 49.488281 24.507812 "/></g><g clip-rule="nonzero" clip-path="url(#1b7d5684a0)"><path style=" stroke:none;fill-rule:nonzero;fill:#6dc17b;fill-opacity:1;" d="M 41.761719 37.421875 C 41.484375 32.207031 43.957031 27.175781 48.214844 24.203125 C 48.410156 24.101562 48.4375 23.875 48.582031 23.726562 C 48.667969 23.636719 48.753906 23.628906 48.820312 23.726562 C 48.980469 24.003906 49.410156 24.398438 48.796875 24.414062 C 43.800781 27.777344 41.535156 34.289062 42.585938 40.132812 C 42.609375 40.492188 42.121094 40.589844 42.019531 40.238281 C 41.707031 39.417969 41.804688 38.183594 41.761719 37.421875 "/></g><path style=" stroke:none;fill-rule:nonzero;fill:#6dc17b;fill-opacity:1;" d="M 46.03125 19.800781 C 46.871094 20.007812 47.480469 22.535156 48.667969 23.308594 C 48.75 23.375 48.664062 23.496094 48.574219 23.464844 C 47.3125 23.191406 46.085938 22.3125 45.683594 21.046875 C 45.566406 20.636719 45.484375 19.917969 46.03125 19.800781 "/><path style=" stroke:none;fill-rule:nonzero;fill:#6dc17b;fill-opacity:1;" d="M 49.273438 24.484375 C 49.316406 24.550781 49.292969 24.625 49.257812 24.691406 C 49.015625 25.253906 49.011719 25.867188 49.085938 26.464844 C 49.09375 26.574219 49.09375 26.6875 49.148438 26.785156 C 49.191406 27.0625 49.253906 27.339844 49.308594 27.613281 C 49.355469 27.945312 49.574219 28.464844 49.1875 28.664062 C 47.789062 28.796875 48.019531 25.960938 48.582031 25.191406 C 48.710938 24.964844 48.84375 24.734375 49.03125 24.550781 C 49.089844 24.503906 49.207031 24.390625 49.273438 24.484375 "/></g></svg>